<?xml version="1.0" standalone="no"?>
<!DOCTYPE svg PUBLIC "-//W3C//DTD SVG 1.1//EN" "http://www.w3.org/Graphics/SVG/1.1/DTD/svg11.dtd" >
<svg xmlns="http://www.w3.org/2000/svg">
<metadata>Generated by IcoMoon</metadata>
<defs>
<font id="icons" horiz-adv-x="1024">
<font-face units-per-em="1024" ascent="960" descent="-64" />
<missing-glyph horiz-adv-x="1024" />
<glyph unicode="&#x20;" horiz-adv-x="512" d="" />
<glyph unicode="&#xe900;" glyph-name="menu" d="M48.561 830.377c-18.819-4.605-35.435-18.218-43.443-36.036-6.406-13.613-6.206-37.837 0.4-51.050 6.406-13.013 18.018-24.424 30.83-30.43l10.41-4.805h930.918l10.41 4.805c12.813 6.006 24.424 17.417 30.83 30.43 6.607 13.213 6.807 37.437 0.4 51.050-6.006 13.213-17.217 24.824-30.23 31.231l-11.411 5.606-461.455 0.4c-253.85 0-464.258-0.4-467.661-1.201zM45.758 508.059c-16.817-5.205-32.032-18.018-40.24-34.234-3.804-7.407-4.605-12.212-4.605-26.026 0-14.414 0.801-18.418 5.205-27.027 6.206-12.012 17.217-22.822 29.629-29.229l9.009-4.805h934.922l10.010 5.405c22.222 11.812 34.034 31.031 34.034 55.655s-11.812 43.843-34.034 55.655l-10.010 5.405-464.458 0.4c-255.452 0.2-466.66-0.4-469.463-1.201zM33.546 180.937c-46.446-24.024-44.244-87.887 4.004-111.91l9.209-4.605h930.918l11.411 5.606c13.013 6.406 24.224 18.018 30.23 31.231 6.406 13.613 6.206 37.837-0.4 51.050-6.406 13.013-18.018 24.424-30.83 30.43l-10.41 4.805h-931.518l-12.612-6.607z" />
<glyph unicode="&#xe901;" glyph-name="chat" d="M459.036 931.942c-130.055-13.006-242.903-65.428-329.54-153.265-146.462-147.863-171.073-361.954-61.626-533.827 14.406-22.61 14.006-19.808 8.804-59.025-10.605-82.835-34.415-151.264-65.228-187.68-13.606-15.807-14.806-23.41-5.002-32.414 5.402-5.202 9.604-5.002 42.818 1 81.835 15.206 167.871 42.618 229.898 73.431l24.21 12.005 23.81-8.404c28.412-10.004 71.43-20.609 101.843-25.011 46.42-6.803 115.049-7.203 160.068-1 150.464 21.209 283.52 101.643 362.354 219.493 17.007 25.211 42.618 77.633 51.822 105.645 43.619 133.457 17.607 279.119-70.43 392.567-79.434 102.443-201.085 172.273-335.743 192.482-40.217 6.203-100.243 7.803-138.059 4.002zM301.569 534.974c33.014-15.006 48.22-55.824 33.414-88.638-19.008-42.218-72.831-53.823-107.045-23.010-40.417 36.415-23.61 103.244 29.412 116.65 12.005 3.001 31.613 0.8 44.219-5.002zM528.665 538.976c20.008-5.202 37.416-19.808 46.22-38.816 6.403-14.206 6.003-39.417-1.201-54.623-6.203-13.606-19.008-26.611-32.814-33.614-8.404-4.202-12.405-5.002-28.812-5.002s-20.409 0.8-28.812 5.002c-13.806 7.003-26.611 20.008-32.814 33.614-7.203 15.206-7.603 40.417-1.201 54.623 8.604 18.608 26.211 33.614 45.419 38.816 13.606 3.602 20.209 3.602 34.014 0zM779.171 535.174c44.219-20.209 53.223-79.434 17.007-111.847-26.411-23.81-65.628-23.41-91.239 1-38.816 36.616-22.61 100.443 29.012 115.049 12.805 3.602 32.214 1.801 45.219-4.202z" />
<glyph unicode="&#xe902;" glyph-name="search" d="M387.931 955.893c-66.035-7.204-136.473-32.617-192.102-69.237-164.688-108.658-235.326-311.966-173.893-499.867 10.005-30.616 32.617-76.841 50.627-103.655 70.838-105.656 182.097-174.693 307.364-190.502 39.021-5.003 96.852-3.402 134.472 3.802 67.636 12.807 136.273 44.023 190.502 86.846 19.811 15.408 58.031 54.229 72.639 73.439 48.226 63.834 76.841 132.271 87.647 209.112 3.602 26.614 4.202 85.045 1.001 109.058-10.406 78.642-38.42 148.479-83.845 209.112-67.236 89.648-164.088 148.679-275.347 168.29-27.615 4.803-91.049 6.804-119.064 3.602zM459.769 836.029c28.815-2.601 47.826-6.403 74.039-15.208 101.454-33.618 180.696-119.864 205.31-223.319 30.616-129.269-21.011-260.939-131.070-334.779-118.863-79.642-276.347-67.836-384.405 29.015-47.625 42.623-81.644 101.654-96.451 167.689-3.602 16.609-4.202 25.614-4.402 63.434 0 48.226 1.601 60.232 13.407 97.052 38.020 119.064 145.277 204.709 270.544 215.915 26.214 2.401 27.815 2.401 53.028 0.2zM824.164 204.292c-9.205-12.407-51.828-55.43-67.436-68.236l-12.407-10.205 88.847-87.647c102.255-100.654 101.054-99.653 128.869-99.653 14.808 0 18.61 0.8 27.215 5.403 34.418 18.21 45.424 61.833 23.212 91.849-5.403 7.404-178.295 177.895-180.296 177.895-0.6 0-4.202-4.402-8.004-9.405z" />
<glyph unicode="&#xe903;" glyph-name="arrow-down" d="M490.25 960c11.334 0 22.666 0 34 0 25.942-8.948 41.608-26.948 47-54 0.666-251.334 1.334-502.666 2-754 88.334 88.334 176.666 176.666 265 265 36.436 18.98 67.436 12.648 93-19 13.49-27.304 11.49-53.304-6-78-124.334-124.334-248.666-248.666-373-373-7.518-3.758-14.85-7.426-22-11-12.666 0-25.334 0-38 0-8.038 3.010-16.038 6.676-24 11-124.946 122.944-249.278 246.612-373 371-20.285 37.848-13.285 69.516 21 95 23.030 9.898 45.696 9.232 68-2 85.666-84.334 171.334-168.666 257-253 0.666 250 1.334 500 2 750 6.294 25.954 21.96 43.287 47 52z" />
<glyph unicode="&#xe904;" glyph-name="arrow-left" d="M1024 465.706c0-10.666 0-21.334 0-32-6.97-24.636-22.97-40.302-48-47-251.334-0.666-502.666-1.334-754-2 89-86.334 176.666-174 263-263 16.656-37.452 8.322-67.786-25-91-24.686-10.354-48.686-9.020-72 4-124.946 122.944-249.278 246.612-373 371-6.644 8.63-11.644 17.964-15 28 0 10.666 0 21.334 0 32 3.53 11.044 9.197 21.044 17 30 122.945 120.944 245.278 242.612 367 365 38.062 20.51 69.728 13.51 95-21 9.812-22.999 9.146-45.666-2-68-84.278-86.278-169.278-171.944-255-257 251.334-0.666 502.666-1.334 754-2 25.030-6.698 41.030-22.364 48-47z" />
<glyph unicode="&#xe905;" glyph-name="arrow-right" d="M1024 461.626c0-10.666 0-21.334 0-32-2.68-7.634-6.348-14.966-11-22-124.334-124.334-248.666-248.666-373-373-26-14.666-52-14.666-78 0-27.414 24.668-33.080 53.668-17 87 86.892 86.892 173.892 173.892 261 261-248.666 0.666-497.334 1.334-746 2-30.718 3.638-50.718 19.97-60 49 0 10.666 0 21.334 0 32 5.726 17.408 16.393 31.074 32 41 5.178 2.394 10.512 4.394 16 6 251.334 0.666 502.666 1.334 754 2-86.278 84.278-171.944 169.278-257 255-20.264 37.926-13.264 69.593 21 95 25.686 12.044 50.352 10.044 74-6 123.054-123.722 246.722-246.722 371-369 6.050-8.754 10.384-18.088 13-28z" />
<glyph unicode="&#xe906;" glyph-name="arrow-up" d="M491.932 960c10.666 0 21.334 0 32 0 7.634-2.681 14.966-6.348 22-11 123.612-125.612 247.944-250.612 373-375 20-28.666 20-57.334 0-86-26.21-22.308-54.544-25.308-85-9-87.612 85.612-174.612 171.944-261 259-0.666-250.666-1.334-501.334-2-752-7.162-24.824-22.828-41.49-47-50-10.666 0-21.334 0-32 0-27.892 8.244-44.226 26.91-49 56-0.666 248.666-1.334 497.334-2 746-83.666-83.666-167.334-167.334-251-251-34.014-17.274-63.681-11.608-89 17-13.784 23.642-14.451 47.642-2 72 117.334 117.334 234.666 234.667 352 352 9.496 16.221 23.162 26.888 41 32z" />
<glyph unicode="&#xe907;" glyph-name="camera" d="M1024 624c-13.444 56.44-48.778 90.108-106 101-54.662 1-109.33 1.334-164 1 1.72 73.653-32.948 119.32-104 137-92 1.333-184 1.333-276 0-71.052-17.68-105.72-63.347-104-137-54.67 0.334-109.337 0-164-1-57.223-10.892-92.556-44.56-106-101 0-163.334 0-326.666 0-490 13.183-55.514 47.85-89.18 104-101 272-1.334 544-1.334 816 0 56.15 11.82 90.816 45.486 104 101 0 163.334 0 326.666 0 490zM490 624c98.854 3.752 173.854-36.248 225-120 43.79-90.974 35.79-176.974-24-258-66.272-74.084-147.94-99.084-245-75-103.88 37.27-159.214 111.27-166 222 4.152 89.020 44.152 156.352 120 202 28.494 15.168 58.494 24.834 90 29zM492 516c72.374 4.544 119.374-27.456 141-96 10.128-66.384-14.872-114.052-75-143-69.828-20.904-122.828 0.096-159 63-22.51 60.294-9.51 111.294 39 153 16.8 11.082 34.8 18.75 54 23z" />
<glyph unicode="&#xe908;" glyph-name="close" d="M48 960c10.667 0 21.333 0 32 0 10.037-3.356 19.37-8.356 28-15 134.36-134.694 269.028-269.028 404-403 134.972 133.972 269.64 268.306 404 403 8.63 6.644 17.964 11.644 28 15 10.666 0 21.334 0 32 0 24.666-7.333 40.666-23.333 48-48 0-10.667 0-21.333 0-32-3.356-10.037-8.356-19.37-15-28-134.694-134.36-269.028-269.028-403-404 133.972-134.972 268.306-269.64 403-404 6.644-8.63 11.644-17.964 15-28 0-10.666 0-21.334 0-32-7.334-24.666-23.334-40.666-48-48-10.666 0-21.334 0-32 0-10.036 3.356-19.37 8.356-28 15-134.36 134.694-269.028 269.028-404 403-134.972-133.972-269.64-268.306-404-403-8.63-6.644-17.963-11.644-28-15-10.667 0-21.333 0-32 0-24.667 7.334-40.667 23.334-48 48 0 10.666 0 21.334 0 32 3.356 10.036 8.356 19.37 15 28 134.694 134.36 269.028 269.028 403 404-133.972 134.972-268.306 269.64-403 404-6.644 8.63-11.644 17.963-15 28 0 10.667 0 21.333 0 32 7.333 24.667 23.333 40.667 48 48z" />
<glyph unicode="&#xe909;" glyph-name="cart" d="M1024 760.264c0-8 0-16 0-24-40.904-139.584-81.238-279.584-121-420-3-8.334-8.666-14-17-17-178-0.666-356-1.334-534-2-8.058-10.41-11.724-22.076-11-35 4.362-14.364 14.030-22.030 29-23 173.496-0.010 346.83-1.344 520-4 10.184-6.034 14.852-15.034 14-27 0.852-11.966-3.816-20.966-14-27-38.488-2.618-77.154-3.952-116-4 33.124-8.456 55.458-28.79 67-61 11.772-54.796-7.896-93.13-59-115-59.038-11.996-98.038 10.338-117 67-7.192 46.612 9.808 80.946 51 103 5.81 2.572 11.81 4.572 18 6-87.334 1.334-174.666 1.334-262 0 36.334-9.666 59.334-32.666 69-69 6.956-42.522-7.376-75.522-43-99-44.146-20.596-83.146-13.596-117 21-18.886 25.96-24.22 54.628-16 86 11.542 32.21 33.876 52.544 67 61-27.334 0.666-54.666 1.334-82 2-51.080 15.094-74.748 49.428-71 103 3.198 16.402 9.198 31.734 18 46 1.334 3.334 1.334 6.666 0 10-47.358 166.102-95.024 332.102-143 498-45.319 1.666-90.652 2.666-136 3-8.37 3.376-14.37 9.042-18 17 0 8 0 16 0 24 3.63 7.958 9.63 13.624 18 17 57.333 1.333 114.667 1.333 172 0 5.591-3.586 10.591-7.92 15-13 10.336-34.678 20.668-69.345 31-104 256.664-1.667 513.33-2.667 770-3 8.37-3.376 14.37-9.042 18-17z" />
<glyph unicode="&#xe90a;" glyph-name="menu_accessories" d="M483.127 932.941c-113.874-19.385-184.088-85.556-210.644-198.513-3.031-41.84-4.133-83.748-3.309-125.725-19.13 0.366-38.247 0-57.348-1.103-27.538-3.302-47.022-17.639-58.451-43.011-49.705-149.851-98.965-299.838-147.782-449.963-4.175-12.899-6.013-26.133-5.514-39.703 3.573-62.035 35.924-99.164 97.051-111.388 277.184-1.471 554.365-1.471 831.548 0 12.18 2.345 23.945 6.022 35.291 11.028 52.661 32.953 70.675 79.641 54.040 140.062-48.525 148.516-97.051 297.035-145.576 445.551-11.198 27.377-31.418 43.185-60.657 47.423-19.101 1.103-38.218 1.469-57.348 1.103 0.368 36.035 0 72.060-1.103 108.079-2.367 22.701-7.513 44.758-15.44 66.171-50.877 106.895-135.796 156.891-254.758 149.988zM500.773 899.856c111.807-2.003 183.492-56.41 215.056-163.222 3.137-42.555 4.239-85.197 3.309-127.931-13.234 0-26.468 0-39.703 0 0.891 35.386-0.212 70.677-3.309 105.874-18.66 73.507-65.348 117.253-140.062 131.239-97.699 6.123-160.562-37.624-188.587-131.239-3.055-35.205-4.158-70.496-3.309-105.874-13.234 0-26.468 0-39.703 0-0.929 41.999 0.174 83.907 3.309 125.725 18.038 77.594 64.724 129.428 140.062 155.502 17.672 4.935 35.318 8.244 52.937 9.926zM500.773 813.834c74.028-1.157 121.45-37.184 142.268-108.079 2.98-32.269 4.083-64.62 3.309-97.051-89.699 0-179.396 0-269.095 0-0.712 31.689 0.39 63.306 3.309 94.845 15.93 63.363 56 100.124 120.211 110.285zM209.621 573.413c201.455 0.368 402.908 0 604.361-1.103 8.249-2.845 15.235-7.625 20.954-14.337 11.24-28.573 21.166-57.615 29.777-87.125-33.423-152.165-125.326-248.847-275.712-290.049 2.173 31.272-8.121 57.375-30.88 78.302-29.649 18.257-59.794 18.991-90.434 2.206-24.838-20.683-36.233-47.52-34.188-80.508-149.74 39.822-241.277 135.403-274.61 286.741 7.428 27.498 15.883 54.701 25.366 81.611 5.375 11.633 13.832 19.719 25.366 24.263zM136.833 407.985c51.144-140.461 149.663-227.586 295.564-261.375 0.362-23.877 7.347-45.565 20.954-65.068 41.017-36.16 80.72-34.689 119.108 4.411 10.931 18.212 16.446 38.064 16.543 59.554 145.574 34.932 244.462 122.423 296.667 262.478 33.377-103.805 67.197-207.472 101.462-311.004 8.805-45.257-7.738-77.239-49.628-95.948-7.971-2.084-16.060-3.556-24.263-4.411-267.624-1.471-535.25-1.471-802.873 0-51.416 7.634-76.781 37.411-76.097 89.331 34.421 107.307 68.609 214.65 102.565 322.032zM502.979 240.352c29.488 1.259 46.031-12.709 49.628-41.908 1.471-22.791 1.471-45.585 0-68.377-3.218-24.538-17.187-37.773-41.908-39.703-20.57 2.186-33.805 13.214-39.703 33.085-1.471 27.94-1.471 55.877 0 83.817 5.186 16.578 15.846 27.607 31.983 33.085z" />
<glyph unicode="&#xe90b;" glyph-name="map" d="M473.594 960c-73.882-8.943-139.882-36.61-198-83-110.551-97.53-152.885-219.196-127-365 20.095-79.614 50.762-154.948 92-226 65.342-111.998 140.010-217.332 224-316 10.134-13.138 21.8-24.47 35-34 8 0 16 0 24 0 13.2 9.53 24.866 20.862 35 34 83.99 98.668 158.658 204.002 224 316 41.238 71.052 71.904 146.386 92 226 15.572 75.996 8.904 149.996-20 222-61.078 130.074-162.744 205.408-305 226-25.334 0-50.666 0-76 0zM487.594 774c81.91 5.216 144.242-26.784 187-96 39.054-84.722 26.054-160.388-39-227-66.066-53.406-137.4-61.406-214-24-74.526 47.418-104.86 115.084-91 203 22.784 80.46 75.118 128.46 157 144z" />
<glyph unicode="&#xe90c;" glyph-name="menu_adult" d="M464.238 959.825c31.977 0.457 63.954 0 95.931-1.142 20.1-1.827 39.743-4.797 59.386-9.136 19.186-13.248 20.785-28.551 4.568-45.682-5.025-2.056-10.507-3.198-15.989-3.426-187.523 31.063-341.698-26.039-462.526-171.306-101.642-142.070-121.285-295.103-59.386-459.1 76.517-166.738 206.481-260.842 389.435-282.084 169.935-8.451 306.752 54.361 409.992 188.437 77.659 111.235 103.926 233.89 78.801 367.737 3.426 23.069 16.445 31.063 38.829 23.983 2.741-2.741 5.253-5.253 7.994-7.994 39.058-202.598-18.501-372.076-172.448-508.208-143.897-111.235-303.783-142.298-479.657-93.647-167.195 57.559-279.343 169.707-336.902 336.902-48.651 175.874-17.587 335.76 93.647 479.657 91.82 107.123 207.851 168.793 348.322 185.010zM866.236 959.825c7.766 0.457 15.303 0 22.841-1.142 6.624-2.969 10.735-7.766 12.562-14.847 1.142-34.946 1.599-70.121 1.142-105.068 34.946 0.457 70.121 0 105.068-1.142 11.877-3.655 17.131-11.649 15.989-23.983 1.142-12.334-4.111-20.328-15.989-23.983-34.946-1.142-70.121-1.599-105.068-1.142 0.457-34.946 0-70.121-1.142-105.068-3.655-11.877-11.649-17.131-23.983-15.989-12.334-1.142-20.328 4.111-23.983 15.989-1.142 34.946-1.599 70.121-1.142 105.068-34.946-0.457-70.121 0-105.068 1.142-11.877 3.655-17.131 11.649-15.989 23.983-1.142 12.334 4.111 20.328 15.989 23.983 34.946 1.142 70.121 1.599 105.068 1.142-0.457 34.946 0 70.121 1.142 105.068 2.284 7.081 6.395 12.562 12.562 15.989zM311.205 717.713c14.847 1.142 25.125-4.797 30.835-18.273 1.599-167.423 1.599-335.074 0-502.497-13.704-22.384-29.693-23.983-47.966-4.568-1.599 170.621-1.599 341.013 0 511.634 4.797 6.167 10.507 10.735 17.131 13.704zM571.59 717.713c25.125 0.457 50.25 0 75.375-1.142 60.071-9.822 96.16-44.311 108.494-103.926 2.056-32.891 1.37-65.553-2.284-98.215-7.081-26.495-21.242-48.651-42.255-66.238 35.86-32.206 51.163-72.634 45.682-121.056 6.395-62.812-17.816-108.951-73.091-138.187-11.877-4.568-23.983-7.537-36.545-9.136-137.502-14.847-198.715 46.367-183.868 183.868 4.111 34.033 18.958 62.127 44.54 84.511-35.175 32.891-50.478 73.776-45.682 122.198-4.34 80.4 32.206 129.507 109.636 147.323zM585.295 667.463c-25.125-2.284-44.54-13.019-57.787-32.434-6.395-8.68-10.278-19.186-12.106-29.921-3.883-23.983-3.883-47.737 0.228-71.72 1.827-10.278 5.482-20.1 11.42-28.779 3.426-5.025 7.766-9.593 12.334-13.704 10.735-9.136 24.211-14.618 38.373-15.989 18.273-1.827 36.774-2.284 55.275-1.37 6.852 0.457 13.704 1.599 20.1 3.883 39.743 13.933 57.787 42.484 54.133 86.11-0.457 4.34-0.457 8.908 0 13.248 2.969 32.891-7.994 58.016-32.891 75.603-8.908 6.395-19.186 10.278-29.921 11.877-19.643 3.198-39.286 4.111-59.158 3.198zM576.158 423.067c-27.866-5.253-47.28-21.242-58.244-47.966-24.668-118.315 22.156-165.139 140.471-140.471 21.927 8.908 36.774 24.668 44.54 46.824 3.426 25.81 4.34 51.62 2.284 77.659-6.395 35.403-27.409 56.417-62.812 62.812-22.156 1.142-44.083 1.599-66.238 1.142z" />
<glyph unicode="&#xe90d;" glyph-name="grid-mini" d="M32.094 959.801c132.246 0.533 264.486 0 396.722-1.6 14.397-5.866 24.53-15.997 30.394-30.394 2.134-132.24 2.134-264.483 0-396.722-5.864-14.397-15.997-24.53-30.394-30.394-132.24-2.134-264.483-2.134-396.722 0-14.397 5.864-24.528 15.997-30.394 30.394-2.132 132.24-2.132 264.483 0 396.722 6.471 14.461 16.602 25.126 30.394 31.994zM595.184 959.801c132.246 0.533 264.486 0 396.722-1.6 14.397-5.866 24.53-15.997 30.394-30.394 2.134-132.24 2.134-264.483 0-396.722-5.864-14.397-15.997-24.53-30.394-30.394-132.24-2.134-264.483-2.134-396.722 0-14.397 5.864-24.53 15.997-30.394 30.394-2.134 132.24-2.134 264.483 0 396.722 6.469 14.461 16.602 25.126 30.394 31.994zM32.094 396.711c132.246 0.534 264.486 0 396.722-1.6 14.397-5.864 24.53-15.997 30.394-30.394 2.134-132.24 2.134-264.483 0-396.722-5.864-14.397-15.997-24.53-30.394-30.394-132.24-2.134-264.483-2.134-396.722 0-14.397 5.864-24.528 15.997-30.394 30.394-2.132 132.24-2.132 264.483 0 396.722 6.471 14.461 16.602 25.125 30.394 31.994zM595.184 396.711c132.246 0.534 264.486 0 396.722-1.6 14.397-5.864 24.53-15.997 30.394-30.394 2.134-132.24 2.134-264.483 0-396.722-5.864-14.397-15.997-24.53-30.394-30.394-132.24-2.134-264.483-2.134-396.722 0-14.397 5.864-24.53 15.997-30.394 30.394-2.134 132.24-2.134 264.483 0 396.722 6.469 14.461 16.602 25.125 30.394 31.994z" />
<glyph unicode="&#xe90e;" glyph-name="grid" d="M43.134 959.851c74.162 0.398 148.32 0 222.472-1.196 21.479-3.941 35.435-16.3 41.863-37.079 1.596-77.347 1.596-154.695 0-232.041-5.98-18.738-18.341-31.098-37.079-37.079-77.346-1.596-154.693-1.596-232.041 0-20.778 6.428-33.138 20.384-37.079 41.863-1.594 74.157-1.594 148.315 0 222.472 4.818 23.553 18.773 37.906 41.863 43.059zM399.568 959.851c74.959 0.398 149.913 0 224.864-1.196 19.082-4.725 32.239-16.287 39.471-34.687 1.596-78.942 1.596-157.883 0-236.825-5.402-18.872-17.762-30.433-37.079-34.687-76.55-1.596-153.099-1.596-229.649 0-19.317 4.253-31.677 15.815-37.079 34.687-1.596 78.942-1.596 157.883 0 236.825 7.65 18.433 20.807 30.394 39.471 35.883zM758.394 959.851c74.162 0.398 148.32 0 222.472-1.196 23.522-4.386 37.478-18.34 41.863-41.863 1.596-74.157 1.596-148.315 0-222.472-3.94-21.479-16.3-35.435-37.079-41.863-77.346-1.596-154.695-1.596-232.041 0-18.738 5.98-31.098 18.341-37.079 37.079-1.596 77.346-1.596 154.693 0 232.041 6.844 20.808 20.798 33.566 41.863 38.275zM35.958 601.025c78.945 0.399 157.888 0 236.825-1.196 18.872-5.402 30.433-17.762 34.687-37.079 1.596-76.55 1.596-153.099 0-229.649-4.253-19.317-15.815-31.677-34.687-37.079-78.942-1.596-157.883-1.596-236.825 0-18.399 7.232-29.962 20.388-34.687 39.471-1.594 74.954-1.594 149.91 0 224.864 5.19 19.133 16.752 32.689 34.687 40.667zM392.391 601.025c79.743 0.399 159.481 0 239.217-1.196 15.549-5.98 26.314-16.745 32.294-32.294 1.596-79.738 1.596-159.479 0-239.217-6.205-16.573-17.767-27.338-34.687-32.294-78.145-1.596-156.288-1.596-234.433 0-17.941 5.184-29.503 16.745-34.687 34.687-1.596 78.942-1.596 157.883 0 236.825 6.428 15.595 17.193 26.759 32.294 33.49zM751.217 601.025c78.946 0.399 157.888 0 236.825-1.196 18.401-7.232 29.962-20.388 34.687-39.471 1.596-74.954 1.596-149.91 0-224.864-4.725-19.082-16.286-32.239-34.687-39.471-78.942-1.596-157.883-1.596-236.825 0-18.872 5.402-30.433 17.762-34.687 37.079-1.596 76.55-1.596 153.099 0 229.649 4.658 19.393 16.219 32.151 34.687 38.275zM38.35 244.591c77.351 0.399 154.697 0 232.041-1.196 18.738-5.98 31.098-18.341 37.079-37.079 1.596-77.346 1.596-154.695 0-232.041-6.428-20.778-20.384-33.139-41.863-37.079-74.157-1.596-148.315-1.596-222.472 0-23.523 4.385-37.477 18.341-41.863 41.863-1.594 74.157-1.594 148.315 0 222.472 4.399 21.522 16.76 35.875 37.079 43.059zM397.176 244.591c76.554 0.399 153.104 0 229.649-1.196 19.317-4.253 31.677-15.815 37.079-34.687 1.596-78.942 1.596-157.883 0-236.825-7.232-18.401-20.388-29.962-39.471-34.687-74.954-1.596-149.91-1.596-224.864 0-19.082 4.725-32.239 16.286-39.471 34.687-1.596 78.942-1.596 157.883 0 236.825 5.988 18.709 18.348 30.67 37.079 35.883zM753.609 244.591c77.351 0.399 154.697 0 232.041-1.196 20.778-6.428 33.139-20.384 37.079-41.863 1.596-74.157 1.596-148.315 0-222.472-4.385-23.522-18.341-37.478-41.863-41.863-74.157-1.596-148.315-1.596-222.472 0-21.479 3.94-35.435 16.3-41.863 37.079-1.596 77.346-1.596 154.695 0 232.041 6.423 18.779 18.783 31.538 37.079 38.275z" />
<glyph unicode="&#xe90f;" glyph-name="heart-fill" d="M1024 626c0-22.666 0-45.334 0-68-13.226-74.464-42.892-141.796-89-202-41.36-53.372-87.028-103.038-137-149-83.636-73.808-172.97-139.808-268-198-12-6.666-24-6.666-36 0-129.204 76.878-246.204 169.878-351 279-52.489 56.55-93.822 120.55-124 192-8.589 24.364-14.923 49.030-19 74 0 23.334 0 46.666 0 70 12.289 97.616 58.955 173.95 140 229 91.976 51.998 183.976 51.998 276 0 39.046-25.379 71.046-57.712 96-97 81.586 120.644 192.254 159.644 332 117 86.77-38.49 143.104-103.49 169-195 4.358-17.474 8.024-34.806 11-52z" />
<glyph unicode="&#xe910;" glyph-name="menu_auto" d="M52.907 960c-25.124-9.147-39.124-27.147-42-54 50.174-226.546 102.508-452.546 157-678 20.683-7.334 29.349 0 26 22-34.206 154.028-68.539 308.028-103 462 1.625 13.962 8.958 23.63 22 29 23.404 1.602 46.737 0.936 70-2 22.962-5.31 41.962-16.976 57-35 49.208-98.312 79.874-202.312 92-312 6.608-65.422 13.608-130.756 21-196-9.842-3.762-19.842-4.428-30-2-5.808 8.144-13.142 14.478-22 19-30.994 15.184-61.66 14.518-92-2-31.789-24.014-43.455-55.68-35-95 12-49.334 24-98.666 36-148 3.662-15.316 12.662-25.984 27-32 203.334 0 406.666 0 610 0 37.656 11.24 58.322 36.572 62 76 18.104-0.614 36.104 0.386 54 3 23.474 7.896 39.14 23.562 47 47 7.854 41.544 1.186 80.876-20 118-30.288 50.166-74.956 76.834-134 80-156.89-19.694-313.556-40.36-470-62-8.868 71.81-16.868 143.81-24 216-13.008 96.35-39.008 189.016-78 278-14.056 30.718-35.722 54.386-65 71 12.036 30.614 13.036 61.614 3 93-26.603 57.63-70.937 92.297-133 104-12 0-24 0-36 0zM58.907 928c56.153 0.097 98.487-23.903 127-72 13.624-27.512 14.624-55.512 3-84-26.641 1.945-53.308 2.279-80 1-11.5-1.582-21.166-6.582-29-15-11.646 45.916-22.979 91.916-34 138-3.876 14.222 0.457 24.888 13 32zM850.907 228c67.602-4.978 109.936-40.312 127-106 3.856-17.378 3.856-34.712 0-52-5.918-12.58-15.586-20.912-29-25-60.666-0.666-121.334-1.334-182-2-13.77-10.93-13.104-20.93 2-30 35.994-1 71.994-1.334 108-1-2.396-22.5-14.396-36.834-36-43-152.004-1.666-304.004-1.334-456 1-3.65 13.934-6.984 27.934-10 42 111.336-0.334 222.668 0 334 1 9.138 5.082 12.138 12.75 9 23-2.334 2.334-4.666 4.666-7 7-114.664 1-229.332 1.334-344 1-8.66 37.306-17.326 74.638-26 112 0.636 2.294 1.968 3.962 4 5 169.020 21.876 337.688 44.208 506 67zM242.907 192c28.958 4.356 49.958-6.31 63-32 16.264-63.722 31.264-127.722 45-192-35.34-0.334-70.672 0-106 1-15.862 56.114-29.862 112.782-42 170 2.538 26.174 15.87 43.84 40 53z" />
<glyph unicode="&#xe911;" glyph-name="user" d="M479.773 960c21.334 0 42.666 0 64 0 115.838-18.815 192.17-84.149 229-196 26.072-110.428-2.262-204.096-85-281-82.742-64.78-174.076-80.112-274-46-98.268 41.616-155.268 115.282-171 221-8.562 115.876 35.772 204.876 133 267 32.83 17.943 67.496 29.609 104 35zM943.773-64c-288 0-576 0-864 0-7.958 3.63-13.624 9.63-17 18-1.932 142.47 54.402 255.47 169 339 85.038 55.488 178.372 77.82 280 67 175.35 14.824 309.016-51.842 401-200 35.624-64.126 51.624-132.792 48-206-3.376-8.37-9.042-14.37-17-18z" />
<glyph unicode="&#xe912;" glyph-name="menu_avia_tickets" d="M909.915 960c-18.863-3.334-36.349-10.556-52.454-21.666-44.853-38.771-89.704-77.541-134.557-116.312-22.398-17.474-47.485-22.035-75.261-13.684-139.877 16.725-279.757 33.449-419.635 50.174-32.636 5.337-62.284-1.505-88.944-20.526-27.747-27.747-55.496-55.494-83.243-83.243-5.578-11.002-3.678-20.505 5.702-28.508 144.774-41.131 289.215-82.942 433.318-125.434-62.735-68.797-122.032-140.258-177.889-214.379-9.711-6.404-20.355-9.825-31.929-10.263-54.778 10.347-109.513 20.991-164.205 31.929-17.704-0.96-33.669-6.662-47.893-17.105-24.776-24.013-48.722-48.721-71.84-74.12-2.118-8.539-0.977-16.521 3.421-23.947 62.885-27.641 125.221-56.528 187.011-86.664 33.828-18.626 60.056-44.853 78.682-78.682 30.223-62.341 59.49-125.058 87.804-188.151 9.122-4.561 18.245-4.561 27.367 0 23.187 23.187 46.372 46.372 69.559 69.559 10.443 14.224 16.145 30.189 17.105 47.893-10.938 54.692-21.582 109.427-31.929 164.205 0.438 11.574 3.859 22.218 10.263 31.929 74.12 55.857 145.581 115.153 214.379 177.889 42.493-144.103 84.303-288.544 125.434-433.318 8.003-9.38 17.506-11.28 28.508-5.702 27.748 27.748 55.494 55.494 83.243 83.243 19.020 26.66 25.862 56.309 20.526 88.944-16.724 139.877-33.45 279.757-50.174 419.635-4.949 20.090-4.19 39.856 2.281 59.296 42.572 50.174 85.143 100.347 127.715 150.521 12.881 18.497 20.104 39.023 21.666 61.577-8.292 67.248-46.301 102.216-114.031 104.909zM905.354 918.949c45.895 2.739 71.742-18.546 77.541-63.857-0.306-14.216-4.486-27.141-12.543-38.771-39.53-45.612-79.062-91.225-118.592-136.837-18.393-23.52-25.235-50.128-20.526-79.822 17.486-145.96 34.969-291.92 52.454-437.88 3.48-20.117 0.438-39.122-9.122-57.016-18.174-20.457-37.181-40.223-57.016-59.296-41.505 143.522-82.556 287.201-123.154 431.038-5.795 10.42-14.539 13.841-26.227 10.263-53.3-47.982-107.274-95.116-161.924-141.399-25.965-20.644-52.571-40.41-79.822-59.296-21.253-23.803-29.235-51.551-23.947-83.243 10.272-48.682 20.535-97.337 30.788-145.96-1.897-6.069-3.8-12.151-5.702-18.245-15.996-16.377-32.342-32.342-49.033-47.893-25.429 53.905-50.897 107.88-76.401 161.924-11.289 16.612-23.452 32.576-36.49 47.893-15.695 13.417-32.038 25.96-49.033 37.63-54.044 25.504-108.019 50.972-161.924 76.401 15.55 16.692 31.515 33.037 47.893 49.033 5.843 2.602 11.924 4.502 18.245 5.702 48.684-10.117 97.339-20.38 145.96-30.788 37.74-6.174 68.528 5.608 92.365 35.35 57.948 79.265 121.046 154.526 189.292 225.782 6.331 12.849 3.67 23.112-7.982 30.788-143.782 40.698-287.461 81.749-431.038 123.154 17.484 17.486 34.97 34.969 52.454 52.454 13.707 10.745 29.29 15.687 46.753 14.824 151.732-17.208 303.394-35.074 454.984-53.595 29.694-4.709 56.302 2.132 79.822 20.526 45.612 39.531 91.225 79.061 136.837 118.592 8.021 5.305 16.382 9.486 25.087 12.543z" />
<glyph unicode="&#xe913;" glyph-name="menu_books" d="M170 960c-41.97-10.971-68.303-37.638-79-80-0.335-278.472-1.335-556.806-3-835 1.017-56.448 28.35-92.782 82-109 252 0 504 0 756 0 13.91 11.798 13.244 22.798-2 33-43.070 2.076-67.070 24.408-72 67 5.18 43.502 29.846 65.834 74 67 5.536 3.524 8.536 8.524 9 15 1.334 275.334 1.334 550.666 0 826-0.492 7.009-3.492 12.343-9 16-252 0-504 0-756 0zM208 926c230.666 0 461.334 0 692 0 0-263.334 0-526.666 0-790-230.666 0-461.334 0-692 0 0 263.334 0 526.666 0 790zM166 922c2 0 4 0 6 0 0-262.666 0-525.334 0-788-17.833-2.75-33.5-10.084-47-22-1.333 252.666-1.333 505.334 0 758 4.643 24.697 18.309 42.030 41 52zM182 102c219.334 0.334 438.668 0 658-1-31.978-43.41-31.978-86.744 0-130-220-1.334-440-1.334-660 0-34.756 7.758-53.422 29.426-56 65 3.198 36.506 22.531 58.506 58 66z" />
<glyph unicode="&#xe914;" glyph-name="menu_brand" d="M932 919.523c-78.2 24.6-141 3.6-188-63-45.4 10.8-91.2 20.8-137 30-9.8-0.8-18.8-3.8-27-9-189.6-187.6-378.6-376-567-565-5.4-6.8-9.8-14.2-13-22 0-9.4 0-18.6 0-28 2.2-4.4 4.6-9.2 7-14 11.6-11.6 23.4-23.4 35-35 17.2-3.4 24.8 3.6 23 21-10 12-20.6 23.2-32 34-1.4 5.4-1.4 10.6 0 16 189 189 378 378 567 567 2.6 0.6 4.8 1.6 7 3 70.8-16 141.8-31.6 213-47 6-0.4 11-2.8 15-7 11.8-45.6 22.8-91.2 33-137-22.8 1-43.6 8.2-62 22 6 7.2 9.6 15.6 11 25 1.6 50.4-22.8 73.4-73 69-37.4-12.6-51.8-38.2-43-77 15.8-34 42-47 79-39 28-20.6 59.2-32.2 94-35 5.8-19 9.6-38.4 11-58-21.2-23.2-43.2-46-66-68-9.2-20-2.8-29 19-27 23.6 23.6 47.4 47.4 71 71 3.8 5.4 6.4 11.4 8 18-0.2 23.6-4 46.6-11 69 64.4 17.4 103.6 58.4 118 123 0 16 0 32 0 48-10.4 54.4-41 92.6-92 115zM785 714.523c-0.8-3-2.6-4-5-3-4 8.6-10 15.2-18 20-16.4 1-22.8-6.8-19-23 2.8-3.8 5.2-7.8 7-12-15 5.4-21.4 16-19 32 9.8 21 24.8 26 45 15 8.2-8 11.2-17.6 9-29zM904 666.523c-1.8 0.2-3.6 0.8-5 2-9.4 42.6-18.6 85.4-28 128-3 18.8-13.2 31.8-31 39-20 5-40 9.6-60 14 20.6 27.6 48 44 82 49 68.8 0.8 111.8-31.8 129-98 6.2-67.6-22.8-112.4-87-134zM614 680.523c46.4 1.4 78.8-19.4 97-62 7.8-22.6 5-44-8-64-11.6-11.6-23.4-23.4-35-35-5.4-1.4-10.6-1.4-16 0-32.4 32.4-64.8 64.8-97 97-1.6 7-1 13.6 2 20 9.6 9.6 19.4 19.4 29 29 8.6 6.6 18 11.6 28 15zM620 648.523c-10.6-5.6-20-13.2-28-23 22.4-22.6 45-45 68-67 13.2 8.2 21.2 19.8 24 35-7.6 34.6-29 53-64 55zM520 602.523c5 0.4 9.6-0.6 14-3 33-31 65.2-62.6 97-95 5.8-15.2 0.8-24.6-15-28-36.2 6.8-72.2 13-108 19 19.6-19.6 39.4-39.4 59-59 4.8-9 3-16.6-5-23-7-1.6-13.6-1-20 2-33 32.4-65.4 65.4-97 99-2.8 14.2 2.8 21.4 17 22 36-6.8 72-12.4 108-17-19.6 17.6-38.6 36-57 55-7 11.6-4.6 21 7 28zM518 405.523c-40 18-80 36-120 54-5.8 2.2-11.8 3.2-18 3-11.2-6-15-15.4-11-28 19.6-43.4 39.4-86.6 59-130 3.4-3 7.4-5 12-6 10.2 0.8 15.4 6.2 16 16-2.4 10.4-5.4 20.4-9 30 12.4 12.4 24.6 24.6 37 37 2.6 1.4 5.4 1.4 8 0 7.2-4.4 14.8-7.4 23-9 3.2 0.2 6.2 1.2 9 3 9.4 12.2 7.4 22.2-6 30zM432 376.523c-7 12.8-13 26.2-18 40 13.6-5.8 27-12.2 40-19-7-7.4-14.4-14.4-22-21zM774 456.523c17.4 1 24.4-7 21-24-152.4-152.4-304.6-304.6-457-457-19.4-12-38.6-12-58 0-65 65-130 130-195 195-4.2 21 4.2 28 25 21 63.4-63.4 126.6-126.6 190-190 4.4-2.8 9-3.4 14-2 153.8 152 307 304.4 460 457zM404 293.523c-16.8 0.4-33.4 2-50 5 3.8 7.6 5.8 15.6 6 24-4.2 35.4-24.2 52.2-60 50-6.8-2.4-13.4-5.4-20-9-11.6-11.6-23.4-23.4-35-35-1.4-5.4-1.4-10.6 0-16 33-33 66-66 99-99 18.4-5 26 2 23 21-8.2 10.2-17.2 20-27 29 24-0.2 48-0.2 72 0 12.2 14 9.6 24-8 30zM325 312.523c-5.4-5.8-11-11-17-16-8.6 7.4-16.6 15.4-24 24 6.2 8.2 13.6 15 22 20 18.6-1 25-10.4 19-28zM206 278.523c-7-2-13.6-5-20-9-11.6-11.6-23.4-23.4-35-35-3.8-6-3.8-12 0-18 32.4-32.4 64.6-64.6 97-97 5.8-3 11.8-3.6 18-2 13.6 13.6 27.4 27.4 41 41 3.2 5.8 5.8 11.8 8 18 3.8 41.8-15.2 63.2-57 64 0 5.8-1.6 11.2-5 16-11.4 16-27 23.2-47 22zM210 246.523c16.2-3 20.4-11.6 13-26-4.6-5-9.6-9.8-15-14-7 6-13.6 12.4-20 19 7.2 7.4 14.4 14.4 22 21zM258 208.523c21.8 0.6 29.4-9.4 23-30-7.4-7.6-15-15-23-22-9.4 8-18 16.6-26 26 8 9.4 16.8 18 26 26z" />
<glyph unicode="&#xe915;" glyph-name="heart" d="M1024 633.975c-4.126 26.912-10.46 53.58-19 80-30.572 81.904-86.238 139.571-167 173-132.986 41.274-241.652 6.941-326-103-31.838 42.834-71.838 75.834-120 99-86.762 33.147-170.762 27.147-252-18-81.627-55.55-128.294-132.55-140-231 0-24.666 0-49.334 0-74 9.841-67.83 35.508-129.164 77-184 41.090-51.736 86.090-100.070 135-145 84.294-73.806 168.96-147.14 254-220 30.666-25.334 61.334-25.334 92 0 85.040 72.86 169.706 146.194 254 220 48.91 44.93 93.91 93.264 135 145 41.492 54.836 67.158 116.17 77 184 0 24.666 0 49.334 0 74zM258 841.975c68.21 6.49 126.544-14.177 175-62 19.862-22.524 38.196-46.19 55-71 16-9.334 32-9.334 48 0 16.804 24.81 35.138 48.476 55 71 68.56 64.378 146.894 79.378 235 45 79.856-41.264 124.856-106.93 135-197 5.584-53.168-3.084-103.834-26-152-21.072-40.826-47.072-78.158-78-112-27.558-27.558-55.226-55.226-83-83-86.588-75.946-173.922-150.946-262-225-107.436 88.938-212.436 180.938-315 276-38.162 39.042-71.496 81.71-100 128-41.393 79.864-46.059 161.864-14 246 34.273 76.639 92.606 121.972 175 136z" />
<glyph unicode="&#xe916;" glyph-name="bag" d="M482.158 959.145c-26.052-4.782-50.921-13.663-74.604-26.644-72.769-47.132-106.162-114.276-100.183-201.432-26.299 0.356-52.588 0-78.867-1.066-10.24-0.784-20.186-2.916-29.842-6.395-48.94-22.874-71.322-61.598-67.144-116.17-8.78-188.293-17.662-376.579-26.644-564.861 1.986-55.612 29.696-90.783 83.131-105.512 215.997-1.422 431.995-1.422 647.992 0 7.232 1.701 14.337 3.833 21.316 6.395 40.841 20.186 61.446 53.225 61.815 99.117-9.010 188.28-17.892 376.569-26.644 564.861-0.104 18.031-2.236 35.793-6.395 53.289-16.575 40.804-46.771 63.895-90.591 69.275-26.28 1.066-52.568 1.422-78.867 1.066 2.741 32.841-1.168 64.813-11.724 95.92-42.985 95.781-117.235 139.833-222.747 132.156zM509.868 890.935c93.925-11.526 140.109-64.815 138.551-159.866-90.947 0-181.892 0-272.839 0-1.901 93.258 42.861 146.546 134.288 159.866zM234.898 660.728c187.579 0.356 375.155 0 562.73-1.066 11.206-4.809 18.666-12.981 22.381-24.513 9.694-196.808 19.286-393.623 28.776-590.44 0.13-22.211-10.528-35.354-31.973-39.434-203.207-1.422-406.417-1.422-609.624 0-21.446 4.080-32.103 17.223-31.973 39.434 9.424 196.109 19.016 392.212 28.776 588.308 4.568 15.916 14.87 25.152 30.908 27.71zM337.213 590.387c15.268 1.901 27.704-3.072 37.302-14.921 10.413-49.463 37.769-86.053 82.065-109.775 70.65-25.943 127.846-8.537 171.59 52.223 9.628 17.519 16.733 35.991 21.316 55.42 13.35 17.447 30.046 21.356 50.091 11.724 10.905-7.23 16.588-17.532 17.052-30.908-25.984-106.614-93.837-163.456-203.563-170.524-90.141 3.828-154.088 46.459-191.84 127.893-5.653 14.113-9.56 28.678-11.724 43.697 1.089 18.464 10.325 30.187 27.71 35.171z" />
<glyph unicode="&#xe917;" glyph-name="notification" d="M489.508 960c-66.006-19.916-96.34-64.582-91-134-123.484-49.57-195.484-140.236-216-272-2.497-82.634-3.83-165.3-4-248-1.805-2.402-4.138-4.070-7-5-69.326-3.448-110.326-39.114-123-107-0.842-66.48 30.825-108.146 95-125 73.33-1 146.664-1.334 220-1 11.846-71.842 53.178-115.842 124-132 16 0 32 0 48 0 70.822 16.158 112.154 60.158 124 132 73.336-0.334 146.67 0 220 1 59.768 15.472 91.768 54.138 96 116-9.018 73.014-50.352 111.68-124 116-2.862 0.93-5.194 2.598-7 5-0.16 80.702-1.494 161.368-4 242-2.878 21.726-7.546 43.060-14 64-35.424 101.752-103.090 172.419-203 212 6.898 70.299-23.102 115.632-90 136-14.666 0-29.334 0-44 0zM499.508 892c36.024 2.639 55.358-14.027 58-50-30.65 5.070-61.316 5.070-92 0-0.020 24.688 11.314 41.355 34 50zM497.508 778c110.84-1.226 193.172-49.892 247-146 14.284-29.128 23.616-59.794 28-92 1.916-84.054 3.916-168.054 6-252 9.852-26.518 28.184-44.186 55-53 13.362-1.88 26.694-3.88 40-6 32.61-16.188 40.944-40.522 25-73-7.142-9.062-16.142-15.396-27-19-240-1.334-480-1.334-720 0-33.545 15.306-42.545 39.64-27 73 6.63 8.636 14.963 14.97 25 19 42.727-2.156 73.728 15.51 93 53 1.644 4.576 2.978 9.244 4 14 0.14 84.036 1.474 168.036 4 252 18.138 107.476 78.47 179.808 181 217 21.862 6.489 43.862 10.823 66 13zM431.508 66c52.994 2.328 106.328 2.66 160 1-17.058-49.878-51.726-69.878-104-60-28.032 11.026-46.698 30.692-56 59z" />
<glyph unicode="&#xe918;" glyph-name="cash" d="M1024 420.582c-9.574 19.238-24.242 33.572-44 43-60.964 23.998-124.298 35.666-190 35 0.334 75.336 0 150.67-1 226-7.276 18.614-19.61 32.948-37 43-23.526 11.842-48.192 20.509-74 26-83.69 16.21-167.69 18.21-252 6-41.552-5.405-80.22-18.738-116-40-16.31-12.286-24.31-28.62-24-49 1.76-30.64 2.426-61.306 2-92-14.686 1.028-29.354 2.36-44 4-135.111-10.466-216.445-81.8-244-214 0-21.334 0-42.666 0-64 15.625-89.296 64.291-153.63 146-193 91.004-35.38 175.338-23.714 253 35 42.32-10.112 85.32-14.778 129-14 0.374-4.128 1.374-8.128 3-12 14.278-20.336 33.278-34.67 57-43 60.728-19.712 123.060-29.38 187-29 67.702-0.712 133.368 10.288 197 33 23.516 9.198 40.848 24.864 52 47 0 84 0 168 0 252zM496 764.582c54.412 2.199 108.412-1.468 162-11 27.644-4.99 53.644-14.324 78-28 3.334-3.334 6.666-6.666 10-10-11.408-11.044-24.742-19.044-40-24-55.368-16.814-112.034-25.148-170-25-59.518-0.402-117.518 8.598-174 27-11.502 4.578-21.836 10.91-31 19 0.176 6.284 3.176 11.284 9 15 30.91 15.636 63.576 25.636 98 30 19.606 2.583 38.938 4.916 58 7zM332 658.582c65.384-24.176 133.050-35.508 203-34 57.306-0.596 113.64 6.404 169 21 15.002 4.108 29.334 9.776 43 17 1.334-17.334 1.334-34.666 0-52-0.72-4.216-2.054-8.216-4-12-25.042-17.244-52.71-28.244-83-33-88.29-15.796-176.29-14.462-264 4-19.348 15.34-40.682 27.006-64 35 0 18 0 36 0 54zM224 578.582c84.512 3.914 149.512-29.42 195-100 40.616-79.382 35.282-155.382-16-228-57.158-65.052-128.158-88.052-213-69-85.253 27.916-134.253 86.25-147 175-3.258 104.532 43.742 175.532 141 213 13.517 3.43 26.85 6.43 40 9zM744 548.582c3.936-15.866 5.27-32.532 4-50-60.72-0.452-119.386-11.452-176-33-12.998-5.668-24.33-13.668-34-24-19.45-1.386-38.784-0.386-58 3-7.858 25.382-19.192 49.048-34 71 84.064-9.408 167.398-4.742 250 14 16.892 4.618 32.892 10.952 48 19zM718 454.582c53.536 1.65 106.868-0.682 160-7 33.16-4.386 64.492-14.386 94-30 3.334-3.334 6.666-6.666 10-10-8.428-10.244-19.096-17.576-32-22-70.914-22.694-143.582-31.362-218-26-48.254 1.65-94.92 10.984-140 28-9.2 4.43-17.532 10.096-25 17-1.334 2-1.334 4 0 6 16.272 12.968 34.604 21.968 55 27 31.864 8.086 63.864 13.752 96 17zM488 400.582c11.818-1.91 23.818-2.578 36-2 0-23.334 0-46.666 0-70-12.122-0.58-24.122 0.086-36 2 1.602 23.216 1.602 46.55 0 70zM978 352.582c2.654-8.902 3.988-18.568 4-29-0.334-9.666-0.666-19.334-1-29-9.45-10.736-21.116-18.404-35-23-39.504-13.806-80.172-21.806-122-24-72.602-6.188-143.936 0.478-214 20-15.642 4.316-29.31 11.984-41 23-1.664 20.034-1.332 40.034 1 60 41.67-17.070 85.004-27.402 130-31 81.8-8.46 162.466-2.46 242 18 12.868 3.45 24.868 8.45 36 15zM472 288.582c17.864-1.75 35.864-3.082 54-4 0-23.334 0-46.666 0-70-30.372 0.030-60.372 3.030-90 9 15.922 19.51 27.922 41.178 36 65zM980 240.582c2.318-20.316 2.65-40.984 1-62-10.134-9.45-21.802-16.45-35-21-55.486-18.388-112.486-26.722-171-25-58.514-1.722-115.514 6.612-171 25-13.1 3.78-24.1 10.78-33 21-0.936 20.058-1.602 40.058-2 60 44.244-19.31 90.578-30.31 139-33 80.554-7.302 159.888-0.636 238 20 11.984 4.002 23.316 9.002 34 15zM238 544.582c21.026 1.396 31.026-8.604 30-30 37.774-14.19 55.44-41.522 53-82-8.936-15.196-20.936-17.862-36-8-3.578 12.114-7.578 24.114-12 36-15.050 15.676-32.050 18.008-51 7-18.87-19.22-18.204-37.886 2-56 4.434-2.55 9.102-4.55 14-6 39.52-0.228 66.52-18.562 81-55 8.774-33.526 0.44-61.858-25-85-8.616-5.976-17.95-10.31-28-13 0.776-10.256-0.224-20.256-3-30-12.108-13.274-24.108-13.274-36 0-2.776 9.744-3.776 19.744-3 30-35.411 10.77-54.744 34.77-58 72 0.391 14.39 7.724 22.39 22 24 6.563-0.782 12.229-3.448 17-8 3.304-9.812 5.97-19.812 8-30 11.612-17.29 27.278-22.29 47-15 22.52 16.37 25.186 35.37 8 57-3.056 2.722-6.39 5.056-10 7-23.396 0.508-44.73 7.174-64 20-29.539 29.568-35.206 63.234-17 101 10.998 18.028 26.664 29.36 47 34-3.272 14.11 1.396 24.11 14 30z" />
<glyph unicode="&#xe919;" glyph-name="shipping" d="M507.477 959.841c3.138 0.358 6.186-0.023 9.141-1.143 54.847-27.424 109.694-54.847 164.541-82.271-155.4-83.795-310.8-167.587-466.2-251.382-6.394-4.374-13.25-6.659-20.568-6.856-60.535 29.887-120.715 60.357-180.538 91.412 164.324 84.067 328.865 167.479 493.623 250.24zM820.563 802.155c64.306-28.342 127.533-59.194 189.679-92.554-165.793-84.039-331.857-167.453-498.194-250.24-57.356 26.772-113.725 55.338-169.112 85.699 159.349 85.765 318.559 171.463 477.626 257.096zM0.142 687.891c60.677-30.148 121.237-60.62 181.681-91.412 1.143-62.459 1.524-124.926 1.143-187.394 25.15 0.382 50.288 0 75.415-1.143 23.235-23.235 46.467-46.467 69.701-69.701 0.382 60.956 1.524 121.898 3.428 182.823 54.847-27.424 109.694-54.847 164.541-82.271 3.046-167.587 3.046-335.177 0-502.765-165.455 82.156-330.376 165.188-494.766 249.097-1.143 167.587-1.523 335.175-1.143 502.765zM1021.668 687.891c2.665-167.206 3.044-334.793 1.143-502.765-164.39-83.909-329.311-166.941-494.766-249.097-3.046 167.587-3.046 335.177 0 502.765 164.681 83.1 329.222 166.134 493.623 249.097z" />
<glyph unicode="&#xe91a;" glyph-name="home" d="M485 959.95c-11.812-5.246-23.167-11.591-34.063-19.035-145.993-145.325-291.263-291.263-435.809-437.813-10.901-16.346-15.911-34.38-15.028-54.1 6.24-64.993 42.307-97.052 108.201-96.179-0.334-104.863 0-209.725 1.002-314.584 6.99-53.744 36.712-87.474 89.166-101.188 65.456-1.336 130.909-1.336 196.365 0 9.017 3.673 15.363 10.019 19.035 19.035 0.667 86.16 1.336 172.32 2.004 258.48 4.13 22.163 17.154 35.855 39.073 41.076 38.738 1.336 77.478 1.336 116.216 0 22.776-5.416 35.8-19.775 39.073-43.080 0.667-85.493 1.336-170.983 2.004-256.476 3.725-9.069 10.071-15.413 19.035-19.035 64.786-1.336 129.575-1.336 194.361 0 55.407 13.333 85.797 48.398 91.169 105.195 1.002 103.524 1.336 207.048 1.002 310.577 51.682-1.916 87.082 20.793 106.197 68.126 0 18.701 0 37.403 0 56.104-5.246 11.812-11.59 23.167-19.035 34.063-143.266 143.266-286.532 286.532-429.798 429.798-10.896 7.445-22.251 13.79-34.063 19.035-18.701 0-37.403 0-56.104 0zM503.033 899.839c11.644 1.454 22.331-0.884 32.060-7.013 140.595-140.595 281.188-281.188 421.783-421.783 7.54-11.936 8.874-24.626 4.007-38.071-6.101-8.901-14.449-14.579-25.046-17.032-20.037-0.667-40.074-1.336-60.112-2.004-9.017-3.673-15.363-10.019-19.035-19.035-0.667-117.552-1.336-235.102-2.004-352.655-2.801-21.51-14.489-35.871-35.065-43.080-48.688-2.863-97.445-3.865-146.272-3.006 0.335 73.472 0 146.943-1.002 220.409-7.692 56.447-39.417 90.175-95.177 101.188-43.415 1.336-86.827 1.336-130.242 0-52.854-11.445-83.912-43.837-93.173-97.18-1.002-74.803-1.336-149.608-1.002-224.417-48.827-0.86-97.583 0.142-146.272 3.006-20.576 7.209-32.265 21.57-35.065 43.080-0.668 117.552-1.335 235.102-2.004 352.655-3.674 9.017-10.019 15.363-19.035 19.035-20.037 0.667-40.074 1.336-60.112 2.004-22.011 6.015-31.028 20.376-27.050 43.080 1.124 4.458 3.128 8.466 6.011 12.022 140.595 140.595 281.188 281.188 421.783 421.783 3.871 2.922 7.879 5.26 12.022 7.013z" />
<glyph unicode="&#xe91b;" glyph-name="menu_children" d="M384.219 408.122c-0.119-0.002-0.262-0.002-0.403-0.002-7.447 0-14.325 2.428-19.889 6.535l0.092-0.065c-6.489 5.12-11.659 11.621-15.112 19.078l-0.133 0.322c-43.362 110.864-87.772 223.238-132 334-2.361 5.274-4.034 11.392-4.707 17.807l-0.022 0.264c-0.105 1.033-0.165 2.232-0.165 3.446 0 4.33 0.765 8.483 2.169 12.328l-0.080-0.249c1.962 5.091 4.881 9.423 8.565 12.965l0.012 0.011c4.355 4.138 9.379 7.631 14.882 10.287l0.351 0.152c113.93 44.268 229 89.69 342 135h26c8.602-4.97 15.661-11.709 20.857-19.763l0.143-0.238c47.504-118.96 94.27-240.082 139-360-0.194-7.935-2.638-15.262-6.716-21.412l0.093 0.15c-4.372-6.063-10.259-10.78-17.114-13.641l-0.264-0.097-336-132c-6.33-2.888-13.709-4.662-21.478-4.877l-0.078-0.002zM589.242 921.058l-333.788-134.858 135.6-335.64 333.794 134.858-135.6 335.64zM446.049 560.093v0c-4.477 0.106-8.681 1.168-12.451 2.987l0.181-0.079c-3.010 2.357-5.391 5.378-6.942 8.853l-0.059 0.147c-2.22 34.45-3.23 69.44-3 104-0.242 33.932 0.768 68.25 3 102 4.324 7.873 10.851 14.078 18.749 17.891l0.251 0.109c1.824 0.082 3.67 0.122 5.486 0.122 5.826-0.002 11.556-0.411 17.163-1.198l-0.647 0.074 13.998-10c42.886-44.872 85.614-90.966 127-137 1.189-3.804 1.875-8.18 1.875-12.714 0-0.34-0.004-0.678-0.011-1.016l0.001 0.050c-0.057-3.546-1.208-6.812-3.13-9.488l0.034 0.050c-3.188-4.184-8.9-6.304-16.976-6.304-2.409 0.012-4.769 0.164-7.089 0.451l0.289-0.029-12 8c-7.738 10.359-16.641 19.263-26.66 26.756l-0.341 0.243c-25.012-9.354-50.246-19.11-75-29-1.268-18.2-2.952-36.702-5-55-2.384-3.012-5.283-5.498-8.585-7.355l-0.145-0.075c-2.878-1.559-6.299-2.476-9.935-2.476-0.020 0-0.040 0-0.059 0h0.003zM463.779 746.002c-0.157-4.875-0.247-10.606-0.247-16.358 0-23.845 1.543-47.329 4.536-70.359l-0.289 2.717 54 21c-19.75 20.738-39.264 41.934-58 63zM599.775 476c-15.494-5.172-25.161-15.839-29-32-31.333-118-62.667-236-94-354-2.471-15.929 2.529-28.929 15-39 119.6-33.901 239.6-66.568 360-98 21.416-7.086 38.416-1.419 51 17 32.312 120.579 64.312 241.245 96 362 4.612 19.073-1.055 34.073-17 45-111.223 30.307-222.073 60.172-334 90l1.45-0.404c-15.544 5.013-31.899 8.219-49.449 9.404zM611.775 432q173.11-46.028 346-93-46.65-169.090-91-339c-0.754-1.825-2.175-3.245-3.952-3.983l-0.048-0.018q-171.778 45.318-343 92 46.622 171.868 92 344zM441.775-64h-394c-5.010 3.018-10.058 6.384-15 10-3.554 4.523-6.304 9.866-7.924 15.682l-0.076 0.319c-1.97 131.512-1.296 264.746 2 396 2.605 4.904 6.075 9.012 10.246 12.263l0.084 0.063c4.14 3.116 9.066 5.436 14.417 6.627l0.252 0.047c64.038 0.664 128.974 1 193 1s128.962-0.336 193-1c5.872-1.231 11.017-3.77 15.313-7.303l-0.061 0.049c4.239-3.668 7.564-8.277 9.664-13.51l0.084-0.236c3.296-130.6 3.968-263.154 2-394-2.287-5.832-5.38-10.853-9.208-15.214l0.050 0.058c-3.886-4.338-8.463-7.96-13.576-10.714l-0.266-0.13zM65.667 336v-358h358v358h-358zM727.776 330q67.122 9.174 107-44c6.178-8.849 9.871-19.832 9.871-31.677 0-5.093-0.682-10.027-1.962-14.715l0.091 0.391q-14.52-21.582-34-4c-4.151 15.243-9.614 28.533-16.476 40.939l0.477-0.939q-32.25 32.266-71 9-42.632-45.894-29-107 20.412-32.446 59-27c6.031 0.926 11.43 3.038 16.161 6.098l-0.16-0.097 28 28q30.148 2.852 25-27-26.4-51.96-85-47-106.43 19.508-89 127 12.738 71.2 81 92zM175.776 272q53 0.5 106-1 56.148-14.2 43-71c-4.687-11.969-13.525-21.457-24.704-26.871l-0.296-0.129q56.586-27.766 29-85-20.6-26.586-55-27-50-2-100 0c-3.623 1.605-6.647 3.987-8.961 6.95l-0.038 0.051q-4.956 95.742-2 192c2.585 5.575 7.185 9.85 12.842 11.948l0.158 0.051zM205.775 238v-52q25.020-0.498 50 1c10.686 0.296 19.929 6.196 24.924 14.857l0.076 0.143q8.67 19.66-9 31c-15.593 3.431-33.504 5.397-51.875 5.397-4.969 0-9.904-0.144-14.802-0.428l0.677 0.031zM205.775 152v-58c4.725-0.193 10.27-0.304 15.841-0.304 18.388 0 36.495 1.2 54.248 3.528l-2.089-0.223c5.251 1.779 9.658 4.896 12.959 8.948l0.040 0.051q17.266 33.958-19 45-30.984 1.5-62 1z" />
<glyph unicode="&#xe91c;" glyph-name="review" d="M774 960c-35.968-10.303-58.968-33.637-69-70-0.488-20.064-1.82-40.064-4-60-2.392-9.447-6.392-18.114-12-26-17.502-18.917-39.168-29.584-65-32-0.748 12.493-6.748 21.493-18 27-48 1.333-96 1.333-144 0-8.334-3-14-8.667-17-17-1-48.662-1.334-97.328-1-146-124.668 0.334-249.335 0-374-1-36.363-10.032-59.697-33.032-70-69 0-204 0-408 0-612 2.94-3.302 5.607-6.97 8-11 3.693-2.060 7.026-4.392 10-7 8 0 16 0 24 0 38.98 26.608 78.313 52.94 118 79 196.666 0.666 393.334 1.334 590 2 36.334 9.666 59.334 32.666 69 69 1 111.332 1.334 222.664 1 334 38.672-0.334 77.34 0 116 1 46.362 12.030 75.696 41.030 88 87 0 68 0 136 0 204-22.048 67.223-68.714 96.556-140 88 0.334 30.007 0 60.007-1 90-10.032 36.363-33.032 59.697-69 70-13.334 0-26.666 0-40 0zM784 898c17.102 3.281 29.436-2.719 37-18 2.546-40.581 3.88-81.248 4-122 3-8.334 8.666-14 17-17 28.738-0.26 57.404-1.594 86-4 16.334-5.666 27.334-16.666 33-33 2.216-31.266 3.216-62.6 3-94 0.216-31.4-0.784-62.734-3-94-5.666-16.334-16.666-27.334-33-33-37.936-2.24-75.936-3.24-114-3-40.048-0.2-80.048 0.8-120 3-29.422 6.522-52.422 22.188-69 47-1.334 58.666-1.334 117.334 0 176 26.564 6.392 52.23 15.392 77 27 30.082 18.476 49.75 44.809 59 79 2 22.667 4 45.333 6 68 3.376 8.37 9.042 14.37 17 18zM504 740c20 0 40 0 60 0 0-86.666 0-173.334 0-260-20 0-40 0-60 0 0 86.666 0 173.334 0 260zM90 576c118 0 236 0 354 0-0.334-46.004 0-92.004 1-138 3-8.334 8.666-14 17-17 48-1.334 96-1.334 144 0 9.658 4.93 16.324 12.596 20 23 18.948-12.134 39.614-19.8 62-23 23.99-1 47.99-1.334 72-1 0.334-104.668 0-209.336-1-314-1.666-17.666-11.334-27.334-29-29-197.334-0.666-394.666-1.334-592-2-25.838-16.752-51.505-33.752-77-51-1.333 174-1.333 348 0 522 2.023 17.686 11.69 27.686 29 30zM138 456c74.67 0.334 149.336 0 224-1 16.83-8.696 22.496-22.362 17-41-3-8.334-8.666-14-17-17-74.666-1.334-149.334-1.334-224 0-17.949 10.304-22.949 25.304-15 45 4.029 5.824 9.029 10.49 15 14zM138 336c181.334 0.334 362.668 0 544-1 17.95-10.304 22.95-25.304 15-45-3.53-5.946-8.53-10.28-15-13-181.334-1.334-362.666-1.334-544 0-17.949 10.304-22.949 25.304-15 45 4.029 5.824 9.029 10.49 15 14zM138 216c181.334 0.334 362.668 0 544-1 17.95-10.304 22.95-25.304 15-45-3.53-5.946-8.53-10.28-15-13-181.334-1.334-362.666-1.334-544 0-17.949 10.304-22.949 25.304-15 45 4.029 5.824 9.029 10.49 15 14z" />
<glyph unicode="&#xe91d;" glyph-name="star" d="M503.148 936.756c15.26 1.532 28.372-2.964 39.337-13.487 46.393-95.784 93.973-190.942 142.737-285.474 103.312-15.67 206.712-31.029 310.2-46.080 21.521-6.683 30.887-21.294 28.098-43.833-1.63-5.505-3.877-10.751-6.743-15.735-74.927-73.43-149.856-146.857-224.783-220.287 15.989-104.553 32.847-209.077 50.576-313.572-0.557-23.416-12.545-36.527-35.965-39.337-6.766 1.729-13.509 3.603-20.23 5.62-91.055 48.901-182.467 97.23-274.235 144.985-91.131-48.78-182.541-97.108-274.235-144.985-39.91-10.219-58.268 5.143-55.072 46.080 16.483 95.908 32.969 191.814 49.452 287.722 1.83 5.399 1.454 10.643-1.124 15.735-74.895 72.272-149.448 144.951-223.659 218.039-11.617 19.080-9.743 36.687 5.62 52.824 4.985 2.866 10.229 5.114 15.735 6.743 103.488 15.051 206.888 30.411 310.2 46.080 48.764 94.532 96.344 189.69 142.737 285.474 6.391 5.985 13.507 10.48 21.354 13.487z" />
<glyph unicode="&#xe91e;" glyph-name="notification-fill" d="M497.078 960c9.334 0 18.666 0 28 0 12.54-4.809 21.54-13.475 27-26 2.852-20.509 3.852-41.176 3-62 118.2-21.213 198.534-87.879 241-200 5.26-17.042 9.26-34.374 12-52 2.538-60.612 3.872-121.278 4-182 4.452-56.032 23.118-106.698 56-152 18.646-22.644 38.646-43.978 60-64 21.19-43.578 12.19-79.244-27-107-7.464-4.266-15.464-6.932-24-8-244-1.334-488-1.334-732 0-46.135 13.892-65.801 44.892-59 93 3.394 12.792 9.394 24.124 18 34 70.241 57.824 106.24 132.49 108 224 0.14 56.056 1.474 112.056 4 168 17.482 89.354 64.482 158.353 141 207 34.74 20.366 72.074 33.366 112 39-0.332 20.011 0 40.011 1 60 5.374 13.038 14.374 22.371 27 28zM537.078-64c-16.666 0-33.334 0-50 0-70.138 15.13-114.804 57.464-134 127 105.332 1 210.664 1.334 316 1-17.138-70.472-61.138-113.14-132-128z" />
<glyph unicode="&#xe921;" glyph-name="menu_cosmetics" d="M527.962 960c27.334 0 54.666 0 82 0 158.16-20.563 274.494-101.23 349-242 67.13-152.228 55.796-298.228-34-438-23.51-32.846-51.176-61.846-83-87-20.894-3.106-29.894 5.894-27 27 129.102 115.686 171.768 257.686 128 426-28.5 83.388-78.168 151.055-149 203-115.158 76.052-237.824 90.719-368 44-46.774-19.496-88.774-46.163-126-80-17.106-5.447-27.772 0.553-32 18 1.576 6.925 4.908 12.925 10 18 71.57 63.111 154.904 100.111 250 111zM305.962-64c6.084 3.448 9.75 8.782 11 16 1.334 173.334 1.334 346.666 0 520-0.9 4.038-2.566 7.704-5 11-8.092 4.348-16.758 6.014-26 5 0.334 33.34 0 66.674-1 100-4.29 7.304-10.622 10.636-19 10 0.334 64.004 0 128.004-1 192-1.334 2.667-2.666 5.333-4 8-54.51 29.755-110.176 57.088-167 82-10.073 0.245-16.406-4.422-19-14-1-89.331-1.333-178.664-1-268-11.236 0.216-18.236-5.116-21-16-1-31.326-1.333-62.66-1-94-13.89 3.45-23.557-1.216-29-14-1.333-175.334-1.333-350.666 0-526 2.719-5.046 6.386-9.046 11-12 90.667 0 181.334 0 272 0zM113.962 826c35.947-17.973 71.947-35.973 108-54 2-57.984 2.666-115.984 2-174-36.667 0-73.333 0-110 0 0 76 0 152 0 228zM93.962 558c50.667 0 101.333 0 152 0 0-23.334 0-46.666 0-70-50.667 0-101.333 0-152 0 0 23.334 0 46.666 0 70zM61.962 448c71.333 0 142.666 0 214 0 0-157.334 0-314.666 0-472-71.334 0-142.667 0-214 0 0 157.334 0 314.666 0 472zM545.962 880c132.346 3.323 237.346-48.010 315-154 81.232-132.964 80.566-265.63-2-398-86.282-114.942-201.282-163.942-345-147-65.502 11.096-123.502 37.762-174 80-11.946 8.572-14.946 19.572-9 33 6.792 7.406 15.126 9.738 25 7 98.794-84.218 209.46-104.218 332-60 121.1 57.136 185.1 152.802 192 287-5.116 124.664-61.782 216.998-170 277-123.386 55.576-238.052 41.576-344-42-18.802-17.464-36.136-36.13-52-56-17.186-6.41-27.852-0.742-32 17 1.366 7.398 4.366 14.064 9 20 66.224 80.282 151.224 125.615 255 136zM789.962 688c23.768 1.242 32.102-9.424 25-32-120.334-120.334-240.666-240.666-361-361-13.17-6.084-23.504-3.084-31 9-1.634 6.928-0.966 13.596 2 20 121.456 121.79 243.124 243.124 365 364zM813.962 598c24.158-4.32 29.826-16.988 17-38-88.334-88.334-176.666-176.666-265-265-11.788-7.356-22.788-6.356-33 3-4.242 8.994-3.576 17.66 2 26 89.666 89.666 179.334 179.334 269 269 3.63 1.514 6.962 3.18 10 5zM345.962 170c212.002 0.334 424.002 0 636-1 18.58-4.158 24.248-15.158 17-33-14.298-36.304-35.298-67.97-63-95-30.804-25.168-66.136-39.834-106-44-162.666-1.334-325.334-1.334-488 0-13.114 5.37-17.446 15.038-13 29 3 3 6 6 9 9 158.666 0.666 317.334 1.334 476 2 62.124 3.708 106.79 33.374 134 89-201.996 1.666-403.996 2.666-606 3-10.1 2.868-14.766 9.534-14 20 0.7 11.69 6.7 18.69 18 21z" />
<glyph unicode="&#xe922;" glyph-name="support" d="M116.015 959.875c-53.667-7.071-88.848-36.556-105.541-88.454-3.303-98.43-3.973-196.936-2.010-295.516 14.446-65.024 54.987-97.858 121.624-98.505-0.865-28.932 0.14-57.748 3.015-86.443 2.681-5.362 5.36-10.721 8.041-16.082 24.684-25.408 51.823-28.424 81.418-9.046 26.47 26.47 52.938 52.938 79.407 79.407 0.669-82.423 1.341-164.846 2.010-247.268 13.103-63.689 51.635-101.549 115.593-113.583 71.702-0.669 143.402-1.341 215.103-2.010 47.023-48.368 95.271-95.275 144.742-140.722 45.24-15.073 75.061 0.004 89.459 45.232 1.005 32.159 1.341 64.324 1.005 96.495 79.031-0.362 127.615 37.834 145.748 114.588 1.341 112.577 1.341 225.155 0 337.732-12.458 58.695-47.638 95.886-105.541 111.572-99.108 2.959-198.285 3.964-297.526 3.015 0.336 69.693 0 139.385-1.005 209.072-12.91 59.147-49.432 92.318-109.562 99.51-128.658 1.005-257.318 1.34-385.98 1.005zM118.025 909.617c127.993 0.335 255.981 0 383.969-1.005 31.439-5.977 51.207-24.404 59.304-55.284 1.005-67.677 1.341-135.358 1.005-203.041-46.913 0.336-93.819 0-140.722-1.005-56.815-9.235-94.678-41.065-113.583-95.49-3.307-11.845-5.317-23.907-6.031-36.186-37.86-37.86-75.722-75.722-113.583-113.583-3.007-1.019-5.352-0.014-7.036 3.015-0.67 34.175-1.34 68.351-2.010 102.526-3.451 10.154-10.487 15.851-21.108 17.088-16.082 0.669-32.165 1.341-48.247 2.010-26.469 7.706-43.556 24.793-51.263 51.263-1.34 91.805-1.34 183.609 0 275.413 9.31 29.757 29.078 47.849 59.304 54.278zM425.603 600.029c156.135 0.336 312.27 0 468.403-1.005 38.357-8.204 62.147-31.323 71.366-69.356 1.341-108.557 1.341-217.114 0-325.67-8.377-37.86-31.496-60.979-69.356-69.356-19.434-0.669-38.865-1.341-58.299-2.010-6.156-2.133-11.181-5.818-15.077-11.057-2.613-42.088-3.952-84.304-4.021-126.65-3.606-8.359-9.302-10.703-17.088-7.036-47.634 48.304-95.882 95.882-144.742 142.732-77.612 2.646-155.345 3.984-233.196 4.021-37.86 8.377-60.979 31.496-69.356 69.356-1.341 108.557-1.341 217.114 0 325.67 9.579 38.061 33.369 61.514 71.366 70.361zM501.995 403.018c36.182-1.005 49.918-19.098 41.211-54.278-13.946-18.756-31.703-23.113-53.273-13.067-17.622 15.156-20.638 32.913-9.046 53.273 6.027 6.509 13.063 11.199 21.108 14.072zM650.758 403.018c30.464 2.026 45.542-12.046 45.232-42.217-9.579-29.407-28.677-37.782-57.294-25.129-19.474 18.296-20.815 37.73-4.021 58.299 5.225 3.609 10.586 6.624 16.082 9.046zM801.531 403.018c37.412-1.777 50.479-20.539 39.201-56.289-13.033-16.117-29.451-20.471-49.253-13.067-18.756 13.946-23.113 31.703-13.067 53.273 5.953 8.363 13.66 13.724 23.119 16.082z" />
<glyph unicode="&#xe926;" glyph-name="user_outline" d="M474.691 960c-30.014-3.889-58.68-12.889-86-27-73.038-42.385-116.038-105.385-129-189-8.412-119.446 40.588-205.78 147-259 74.148-28.118 146.816-24.784 218 10 109.518 69.812 148.518 168.144 117 295-36.074 95.754-104.406 152.42-205 170-20.666 0-41.334 0-62 0zM478.691 898c92.272 6.712 158.606-31.288 199-114 31.442-98.356 4.442-176.022-81-233-52.51-26.628-106.51-29.962-162-10-101.224 53.484-134.89 135.152-101 245 29.574 61.937 77.906 99.271 145 112zM788.691-64c83.294 13.156 132.962 61.156 149 144 2.878 31.966 2.878 63.966 0 96-3.998 68.672-21.998 133.338-54 194-42.658 70.162-104.992 101.162-187 93-25.002-14.832-49.67-30.166-74-46-78.394-40.26-155.728-38.26-232 6-20.66 14.334-41.994 27.668-64 40-50.976 7.006-96.976-4.994-138-36-36.425-32.47-62.092-72.136-77-119-22.705-73.676-31.371-149.008-26-226 1.953-15.862 5.953-31.194 12-46 27.439-58.456 73.106-91.79 137-100 184.666 0 369.334 0 554 0zM290.691 404c5.374 0.328 10.708-0.006 16-1 31.102-21.224 63.77-39.89 98-56 88.4-33.286 173.734-26.618 256 20 18.666 12 37.334 24 56 36 50.352 0.302 88.018-21.364 113-65 24.716-45.494 39.382-94.16 44-146 3.814-36.004 4.482-72.004 2-108-10.11-44.11-37.11-71.778-81-83-11.898-2.146-23.898-3.48-36-4-164.666-1.334-329.334-1.334-494 0-47.062-1.644-82.728 17.356-107 57-4.537 10.28-7.871 20.946-10 32-5.87 75.57 4.13 148.904 30 220 13.596 34.908 35.93 62.576 67 83 14.982 6.884 30.316 11.884 46 15z" />
<glyph unicode="&#xe927;" glyph-name="menu_diamond" d="M879.26 368c-30 148.8-117 247.4-261 296-1.4 12.4-2.8 24.8-4 37 9.6 11 19.4 22 29 33 7.4 20.4 0.4 28.6-21 25-11.4-12.6-22.6-25.4-34-38-8-1-16-1.4-24-1 8.8 36.2 18 72.2 28 108 29.4 2.4 58.6 2.6 88 1-5.6-7-11.4-14-17-21-5.6-21 2-28.6 23-23 9 10.4 18 20.6 27 31 11 17.6 11.8 35.6 2 54-25 26.4-50 52.6-75 79-6.6 4.2-13.2 8-20 11-72 0-144 0-216 0-6.8-3-13.4-6.8-20-11-25-26.4-50-52.6-75-79-9.8-18.4-9-36.4 2-54 33-38.4 66-76.6 99-115-1.2-12.2-2.6-24.6-4-37-67.8-20.8-125.6-57.6-173-110-96.2-118-117.4-248.6-64-392 61-130 162.8-205.4 305-226 25.4 0 50.6 0 76 0 72.8 8.8 138.2 35.8 196 81 107.4 92.6 151.6 209.6 133 351zM584.26 687c2.2-6.8 2.6-13.8 1-21-48.2-2.4-96.6-2.6-145-1-2.6 7.6-2.6 15.4 0 23 48 0.4 96 0 144-1zM466.26 830c30.6 0 61.4 0 92 0-8.6-35.4-17.6-70.8-27-106-5.8-2.6-12.2-3.8-19-4-6.8 0.2-13.2 1.4-19 4-9.4 35.2-18.4 70.6-27 106zM634.26 906c15-13.4 29-27.6 42-43-22.6-1.4-45.4-1.4-68 0 9 14.2 17.6 28.6 26 43zM606.26 929c1-0.8 1.6-1.8 2-3-9.6-16.6-19.4-33.4-29-50-12 17.6-24.4 35-37 52 21 2.4 42.4 2.6 64 1zM515.26 912c10.8-16.6 21.8-32.8 33-49-24-1.4-48-1.4-72 0 11.8 16.8 23.2 33.8 34 51 2 0.2 3.6-0.4 5-2zM418.26 930c21.4 0.4 42.6 0 64-1-12.4-17.6-24.6-35.4-37-53-9.6 16.6-19.4 33.4-29 50 0.8 1.4 1.4 2.8 2 4zM388.26 906c10-13.6 19.4-28 28-43-22.6-1.4-45.4-1.4-68 0 13 14.6 26.4 29 40 43zM344.26 828c29 2.6 58.4 2.6 88 0 10-35.8 19.4-71.8 28-108-8-0.4-16 0-24 1-30.4 36-61 71.8-92 107zM831.26 190c-43.6-110.4-122.6-181.4-237-213-147.2-29.2-267 15.2-359 133-77.8 120-83.2 243.4-16 370 48.6 78.2 116.8 130.2 205 156 3.2-1.2 6.6-2.2 10-3 138.8 31 253.8-7.2 345-115 74-100.2 91.2-209.4 52-328zM240.26 952c5 0.4 9.6-0.6 14-3 10.4-10.4 20.6-20.6 31-31 5.2-9.8 3.6-18.2-5-25-6.2-1.6-12.2-1-18 2-10.4 10.4-20.6 20.6-31 31-5 11.4-2 20.2 9 26zM772.26 952c19 0.4 25.4-8.2 19-26-10.4-10.4-20.6-20.6-31-31-10.8-5.8-19.2-3.4-25 7-1.6 5.6-0.8 11 2 16 11.4 11.8 23.2 23.2 35 34zM200.26 860c17.4 0.4 34.6 0 52-1 8.8-4.4 11.8-11.4 9-21-1.6-4.4-4.6-7.4-9-9-17.4-1.4-34.6-1.4-52 0-10.2 6-12.4 14.2-7 25 2.2 2.2 4.6 4.2 7 6zM770.26 860c17.4 0.4 34.6 0 52-1 8.8-4.4 11.8-11.4 9-21-1.6-4.4-4.6-7.4-9-9-17.4-1.4-34.6-1.4-52 0-10 6-12.4 14.4-7 25 2.2 2.2 4.6 4.2 7 6zM266.26 796c17.4 1 24.4-7 21-24-11-11-22-22-33-33-21-5.8-28.6 2-23 23 11.4 11.8 23.2 23.2 35 34zM744.26 796c5.6 0.6 11-0.4 16-3 10.4-10.4 20.6-20.6 31-31 5.6-21-2-28.6-23-23-10.4 10.4-20.6 20.6-31 31-5.4 11-3 19.6 7 26zM478.26 602c125 8 221.2-40 289-144 18.8-32.2 31.2-67 37-104-0.6-14.2-8-20-22-17-2.8 1-5.2 2.6-7 5-25.8 129.2-103.4 204.8-233 227-126.4 7-217.4-46-273-159-42.4-119-17.4-221.2 75-307 87.2-66 181.2-77.4 282-34 89.6 47.4 140.2 121.8 152 223 9.6 8.4 18.6 7.8 27-2-3-73.4-29.6-136.8-80-190-96.8-89.6-207-111.2-331-65-122.2 60-181.2 158.2-177 295 10.6 103.4 60.2 181.8 149 235 35.4 19 72.8 31.4 112 37z" />
<glyph unicode="&#xe92f;" glyph-name="menu_digital" d="M956 566c-2.8 61.8-19 119.8-49 174-81 130-198 203.2-351 220-29.4 0-58.6 0-88 0-78.8-8.4-151.4-34-218-77-111-76.4-171.8-182-182-317-35.8-8.6-58.6-30.6-68-66 0-80.6 0-161.4 0-242 10.4-33.2 32.4-55 66-65 40-1.4 80-1.4 120 0 17 6.4 28.6 18 35 35 1.4 100.6 1.4 201.4 0 302-7.6 24-24 37.2-49 40 10 85 48 154.8 114 209 115 83.4 239 99.4 372 48 111.8-50.2 176.6-135.8 194-257-25-2.8-41.4-16-49-40-1.4-100.6-1.4-201.4 0-302 6.4-17 18-28.6 35-35 40-1.4 80-1.4 120 0 33.6 10 55.6 31.8 66 65 0 80.6 0 161.4 0 242-9.4 35.4-32.2 57.4-68 66zM118 228c-17.4-0.8-34.8 0.2-52 3-14 7.2-23.6 18.2-29 33-1.4 76.6-1.4 153.4 0 230 6 19 18.4 31.6 37 38 14.6 0 29.4 0 44 0 0-101.4 0-202.6 0-304zM176 531c4.4-1.6 7.4-4.6 9-9 1.4-95.4 1.4-190.6 0-286-2.4-2.4-4.6-4.6-7-7-8-1-16-1.4-24-1 0 101.4 0 202.6 0 304 7.4 0.4 14.6 0 22-1zM870 228c-8-0.4-16 0-24 1-2.4 2.4-4.6 4.6-7 7-1.4 95.4-1.4 190.6 0 286 2 4.4 5 7.8 9 10 7.4 0 14.6 0 22 0 0-101.4 0-202.6 0-304zM888 568c-12.6 121-71.2 212-176 273-110.8 58.2-225.6 67-344 26-116.2-45-191.2-127.2-225-247-3.4-17.2-5.6-34.6-7-52-10.6 0-21.4 0-32 0 12.4 127.2 72.4 224.8 180 293 58 35.2 120.8 56.2 188 63 143.4 9.6 263.6-37.6 361-142 52.2-61.6 81.2-133 87-214-10.6 0-21.4 0-32 0zM987 264c-6.4-17-18-28.6-35-35-15.4-1-30.6-1.4-46-1 0 101.4 0 202.6 0 304 16.8 0.8 33.6-0.2 50-3 16-6.8 26.4-18.4 31-35 1.4-76.6 1.4-153.4 0-230zM767 630c-3.8 12.4-12.2 20.2-25 23-142.6 1.4-285.4 1.4-428 0-29.8-5-48.8-22-57-51-1.4-204.6-1.4-409.4 0-614 8-26.4 25-43.6 51-52 140 0 280 0 420 0 12 4.4 19.8 13.2 23 26 0.6 26.6 1.4 53.4 2 80 6.2 4.8 10.8 10.8 14 18 1.4 190 1.4 380 0 570zM716-28c-134-0.4-268 0-402 1-23.2 12.4-28.2 30.2-15 53 6.2 5.8 13.2 9.8 21 12 132 0 264 0 396 0 0-22 0-44 0-66zM732 74c-138.6 0.4-277.4 0-416-1-8-1.2-15.8-3.4-23-7-1.4 176-1.4 352 0 528 4.2 12.6 12.6 20.6 25 24 138 0 276 0 414 0 0-181.4 0-362.6 0-544zM506 466c22.6 1.6 36.2-8.4 41-30 1.4-71.4 1.4-142.6 0-214-4.8-25-19.8-34.6-45-29-28.4 20.6-55.8 42.6-82 66-79-11-110.6 22.6-95 101 6 20.8 19.8 33 41 37 18.6 0.6 37.4 1.4 56 2 26.6 24.4 54.6 46.8 84 67zM510 426c-21.2-18-42.6-36-64-54-2.4-28.6-2.6-57.4-1-86 22-17.6 43.6-35.6 65-54 2.6 65 2.6 129.6 0 194zM372 362c-4.6-2.2-8.2-5.6-11-10-1.8-16.8-1.2-33.6 2-50 1.8-2.4 4.2-4 7-5 12.6-1 25.4-1.4 38-1 0 22 0 44 0 66-12 0-24 0-36 0zM642 448c6.2 0.6 12.2-0.4 18-3 35.2-43.4 48.2-93.2 39-149-5-30.6-17-57.8-36-82-16.6-10.8-27.6-6.8-33 12 11.6 18 21.4 37.4 29 58 7 31 6.6 62-1 93-8.4 18.6-17.6 36.6-28 54 1.4 7.6 5.4 13.4 12 17zM592 398c5.6 0.2 10.8-0.8 16-3 17-18.6 25-40.6 24-66 2-26.8-6.8-49.4-26-68-20.4-3.6-28.6 4.6-25 25 20 28.6 20 57.4 0 86-3.8 12.2-0.2 20.8 11 26z" />
<glyph unicode="&#xe934;" glyph-name="menu_discount" d="M967 436c-1.4 8-1.4 16 0 24 11.4 31.4 22.6 62.6 34 94 7.2 31 1.2 59-18 84-29.8 23.2-60.8 44.8-93 65-9 7-15.4 16-19 27-8.2 30.8-17 61.4-26 92-13.6 31.4-37.2 50.4-71 57-34 0.6-68-0.4-102-3-8.2 0.4-16.2 2-24 5-29.2 19.8-57.2 41.2-84 64-10.8 6.8-22 11.8-34 15-12 0-24 0-36 0-12-3.2-23.2-8.2-34-15-23.6-18.2-47-36.8-70-56-11.4-8.2-24-12.4-38-13-27 1.6-54 3-81 4-43.6 1-74.4-18.4-92-58-9-30.6-17.8-61.2-26-92-3.6-11-10-20-19-27-28-18.6-56-37.4-84-56-26.2-25.8-35.2-56.8-27-93 11.4-31.4 22.6-62.6 34-94 1.4-8 1.4-16 0-24-11.4-31.4-22.6-62.6-34-94-7.2-31-1.2-59 18-84 29.8-23.2 60.8-44.8 93-65 9-7 15.4-16 19-27 8.2-30.8 17-61.4 26-92 13.6-31.4 37.2-50.4 71-57 34.4-0.6 68.8 0.4 103 3 8-0.6 15.6-2.2 23-5 29.2-19.8 57.2-41.2 84-64 10.8-6.8 22-11.8 34-15 12 0 24 0 36 0 12 3.2 23.2 8.2 34 15 23.6 18.2 47 36.8 70 56 11 8 23.4 12.2 37 13 27.4-1.6 54.6-3 82-4 43.8-1 74.4 18.4 92 58 9 30.6 17.8 61.2 26 92 3.6 11 10 20 19 27 28 18.6 56 37.4 84 56 26.2 25.8 35.2 56.8 27 93-11.4 31.4-22.6 62.6-34 94zM946 271c-25.4-16.6-50.6-33.4-76-50-12.6-10-22.4-22.4-29-37-9.6-32.6-19-65.2-28-98-8.2-18.2-21.8-29.8-41-35-33.6-0.6-67.4 0.4-101 3-21.2 0-40.2-6.4-57-19-23.6-18.2-47-36.8-70-56-10-5.8-20.6-9.6-32-11-11.4 1.4-22 5.2-32 11-23 19.2-46.4 37.8-70 56-16.4 12.4-35.2 18.8-56 19-34-2.6-68-3.6-102-3-19.2 5.2-32.8 16.8-41 35-8.4 28.6-16.4 57.2-24 86-5.8 19.8-16.8 36.2-33 49-25.4 16.6-50.6 33.4-76 50-21.6 17-28.6 38.6-21 65 11 28.6 21.8 57.2 32 86 4 17.4 4 34.6 0 52-12 31.2-23.2 62.4-34 94-3.8 23.6 4 42.6 23 57 25.4 16.6 50.6 33.4 76 50 12.6 10 22.4 22.4 29 37 9.6 32.6 19 65.2 28 98 8.2 18.2 21.8 29.8 41 35 33.8 0.6 67.4-0.4 101-3 21.2 0 40.2 6.4 57 19 23.6 18.2 47 36.8 70 56 9.6 5.6 19.6 9.2 30 11 12.2-1 23.4-4.8 34-11 23-19.2 46.4-37.8 70-56 16.8-12.6 35.8-19 57-19 33.6 2.6 67.4 3.6 101 3 19.2-5.2 32.8-16.8 41-35 8.4-28.6 16.4-57.2 24-86 5.8-19.8 16.8-36.2 33-49 25.4-16.6 50.6-33.4 76-50 21.6-17 28.6-38.6 21-65-11-28.6-21.8-57.2-32-86-4-17.4-4-34.6 0-52 12-31.2 23.2-62.4 34-94 3.8-23.6-4-42.6-23-57zM356 648c55.6 0.8 88.6-26 99-80 2-33.6-10.4-60.6-37-81-48.8-26-90.4-17.6-125 25-18.4 34.8-17 68.8 4 102 15.6 18.8 35.4 30 59 34zM358 614c-22.4-5.4-36.8-19.4-43-42-2.8-44.6 18.2-66.2 63-65 29.8 8.4 44 28.2 43 59-7.4 33.6-28.4 49.6-63 48zM690 648c18.8-0.8 25.2-10.2 19-28-123-123-246-246-369-369-22.4-5.6-30.8 2.8-25 25 124.2 125.2 249.2 249.2 375 372zM644 424c47.8 3.2 80.2-17.6 97-62 10.6-54.4-9.6-91.4-61-111-55.2-9.2-91.6 12.4-109 65-7 57.6 17.4 93.6 73 108zM646 390c-19.6-6-33.4-18.6-41-38-6.2-35.8 8-58.8 43-69 31.2-2.2 51.4 11.4 61 41 2.6 44.4-18.4 66.4-63 66z" />
<glyph unicode="&#xe938;" glyph-name="menu_drill" d="M244 960c-8.050-3.041-16.050-6.707-24-11-9.52-11.544-21.519-18.877-36-22-44-0.667-88-1.333-132-2-26.365-8.034-43.698-25.034-52-51 0-68 0-136 0-204 4.533-16.668 13.866-30.334 28-41 32-14.666 64-29.334 96-44 13.997-9.298 18.997-22.298 15-39-29.73-100.51-42.397-203.176-38-308-11.136-15.148-23.802-29.148-38-42-5.62-7.906-9.62-16.574-12-26-1.898-56.736-1.231-113.404 2-170 9.757-33.662 31.423-54.996 65-64 138.666 0 277.334 0 416 0 12.474 7.588 25.142 15.256 38 23 12.992 8.306 21.324 19.974 25 35 1.334 26.666 1.334 53.334 0 80-1.334 4-2.666 8-4 12-18.176 26.352-36.842 52.352-56 78-23.546 25.274-52.546 40.274-87 45-46 0.666-92 1.334-138 2-19.64 8.336-25.308 22.67-17 43 16 56 32 112 48 168 10.198 30.974 31.866 45.974 65 45 14.316 8.962 20.982 21.962 20 39-3.766 18.986-7.766 37.986-12 57 0.45 14.23 5.784 26.23 16 36 20.764 0.26 41.432 1.592 62 4 14.764 5.094 25.43 14.76 32 29 23.382 1.276 46.716 2.944 70 5 8.362 3.026 15.696 7.692 22 14 39.436 0.098 78.77 1.432 118 4 16.18 6.504 26.18 18.17 30 35 22.918 3.728 45.586 8.728 68 15 5.622 3.288 10.288 7.62 14 13 18.108 1.168 36.108 2.834 54 5 12.684 6.368 19.352 16.702 20 31 30.008-0.334 60.008 0 90 1 5.292 1.608 9.292 4.608 12 9 0 5.333 0 10.667 0 16-2.292 3.95-5.626 6.95-10 9-30.66 1-61.326 1.333-92 1-0.4 16.446-8.4 27.446-24 33-16 0.667-32 1.333-48 2-5.512 6.853-12.18 12.187-20 16-20 4.667-40 9.333-60 14-7.226 15.227-18.56 26.56-34 34-39.204 2.594-78.538 3.928-118 4-7.986 8.995-17.986 14.328-30 16-22.402 1.601-44.734 1.268-67-1-26.466 15.401-52.8 31.068-79 47-5.008 1.395-9.674 3.062-14 5-61.334 0-122.666 0-184 0zM250 924c57.338 0.333 114.67 0 172-1 23.926-12.631 47.26-26.297 70-41 2.334-77.991 2.666-155.992 1-234-1.57-3.572-3.902-6.572-7-9-35.228-2.556-70.562-3.89-106-4-43.434-8.84-74.434-33.174-93-73-10.212-39.68-6.88-78.346 10-116 3.554-6.44 6.554-13.106 9-20-16.536-57.942-32.87-115.942-49-174-1.784-14.254-0.784-28.254 3-42-44.006-0.334-88.005 0-132 1 5.339 6.672 8.339 14.338 9 23-3.904 104.102 8.763 206.102 38 306 5.621 39.104-9.379 66.772-45 83-27.002 11.224-53.668 23.224-80 36-5.867 4.528-10.2 10.196-13 17-1.333 64-1.333 128 0 192 4.333 9.667 11.333 16.667 21 21 47.397 0.146 94.73 1.48 142 4 8.438 2.217 16.438 5.551 24 10 7.344 8.958 16.010 15.958 26 21zM530 874c17.346 0.333 34.68 0 52-1 5.91-0.783 10.244-3.783 13-9 0.334-30.333 0.666-60.667 1-91 0.304-31.844-0.696-63.512-3-95-3.116-4.536-7.448-6.868-13-7-16.654-1-33.32-1.332-50-1 0 11.334 0 22.666 0 34 8.028-0.332 16.028 0.002 24 1 6.868 3.058 10.2 8.392 10 16-0.346 10.35-5.68 16.35-16 18-5.964 0.996-11.964 1.33-18 1 0 22 0 44 0 66 8.028-0.331 16.028 0.002 24 1 12.538 9.806 13.204 20.473 2 32-8.46 2.58-17.128 3.58-26 3 0 10.667 0 21.333 0 32zM632 856c30.674 0.333 61.34 0 92-1 2.334-2.333 4.666-4.667 7-7 1.334-50 1.334-100 0-150-0.93-2.862-2.598-5.194-5-7-31.142-2.938-62.474-3.938-94-3 0 33.334 0 66.666 0 100 18.012-0.333 36.012 0 54 1 14.096 5.299 17.762 14.966 11 29-1.806 2.403-4.138 4.070-7 5-19.322 1-38.656 1.333-58 1 0 10.667 0 21.333 0 32zM104 822c16 0 32 0 48 0 0.333-36.006 0-72.006-1-108-15.313 6.992-30.98 12.992-47 18 0 30 0 60 0 90zM768 818c16.478-3.536 32.812-7.536 49-12 1.664-22.696 1.332-45.363-1-68-15.754-3.854-31.42-7.854-47-12-1 30.66-1.334 61.326-1 92zM854 788c10.666 0 21.334 0 32 0 0-10.667 0-21.333 0-32-10.666 0-21.334 0-32 0 0 10.667 0 21.333 0 32zM386 598c-3.182-11.424-5.182-23.090-6-35 2.284-21.44 6.284-42.44 12-63-26.088-0.546-47.756-10.546-65-30-5.84 16.864-9.506 34.198-11 52 3.838 43.174 27.17 68.508 70 76zM92 174c122.064 0.954 244.064-0.046 366-3 20.772-6.124 38.44-17.124 53-33 15.334-21.334 30.666-42.666 46-64 3.816-5.412 5.482-11.412 5-18-158.666 0-317.334 0-476 0-0.333 36.006 0 72.006 1 108 1.693 3.386 3.36 6.72 5 10zM86 20c158.666 0 317.334 0 476 0 0.708-8.274-0.292-16.274-3-24-10.826-7.914-21.826-15.58-33-23-134-1.334-268-1.334-402 0-22.366 7.688-35.032 23.356-38 47zM92 858c24.009 0.333 48.009 0 72-1 9.37-2.7 16.37-8.366 21-17 3.271-45.873 3.937-91.874 2-138-8.147-20.576-23.147-28.242-45-23-20.992 7.886-41.659 16.554-62 26-4.912 4.816-8.579 10.482-11 17-1.333 37.333-1.333 74.667 0 112 4.038 11.7 11.704 19.7 23 24zM104 822c0-30 0-60 0-90 16.020-5.008 31.687-11.008 47-18 1 35.994 1.333 71.994 1 108-16 0-32 0-48 0zM248 858c62.004 0.333 124.004 0 186-1 9.31-5.793 12.31-14.127 9-25-3.274-4.62-7.608-7.62-13-9-59.334-1.333-118.666-1.333-178 0-14.144 5.76-17.478 15.426-10 29 2.54 1.575 4.54 3.575 6 6zM248 790c62.004 0.333 124.004 0 186-1 9.31-5.793 12.31-14.127 9-25-2.454-4.452-6.122-7.452-11-9-60-1.334-120-1.334-180 0-14.144 5.76-17.478 15.426-10 29 2.54 1.575 4.54 3.575 6 6zM250 722c60.67 0.334 121.336 0 182-1 11.184-4.804 14.85-13.138 11-25-2.454-4.452-6.122-7.452-11-9-60.666-1.334-121.334-1.334-182 0-15.89 11.66-15.89 23.328 0 35z" />
<glyph unicode="&#xe93d;" glyph-name="menu_electronic" d="M928 759.018c-60 1-120 1.4-180 1-3 51.2-29.6 81.6-80 91-104 1.4-208 1.4-312 0-9-0.6-17.6-2.6-26-6-35.4-17.2-54-45.4-56-85-59.4 0.4-118.6 0-178-1-50.8-11.8-82.8-42.8-96-93 0-176 0-352 0-528 13.6-51.8 47-82.8 100-93 137.4-0.4 274.6-0.6 412-1 141.4-0.4 282.8 0.6 424 3 47.6 14 77 45 88 93 0 175.4 0 350.6 0 526-13.2 50.2-45.2 81.2-96 93zM971 156.018c-3.4-30.2-19.8-49.2-49-57-273.4-1.4-546.6-1.4-820 0-29.2 7.8-45.6 26.8-49 57-1.4 164-1.4 328 0 492 3.2 29.2 18.8 48.2 47 57 71.4 0 142.8 1.4 214 4 7.2 3.8 12.2 9.4 15 17 0.2 17.4 1.6 34.8 4 52 6.8 12.6 17.2 19.8 31 22 99.4 0.4 198.6 0 298-1 20.8-3.6 31.8-15.8 33-37 0.6-12.6 1.4-25.4 2-38 3-7 8-12 15-15 70.6-2.6 141.2-4 212-4 25-6.4 40.6-22 47-47 1.4-167.4 1.4-334.6 0-502zM852 644.018c33.4 0.4 52-16 56-49-6.4-37.6-28.4-52.8-66-46-32.2 17.4-40 42.4-23 75 8.8 10.6 19.8 17.2 33 20zM484 642.018c103 6.2 182-33.8 237-120 41.4-80 41.4-160 0-240-53.8-85.4-131.4-125-233-119-101.6 14-170 69-205 165-28 104.4-1.8 192 79 263 36.4 27.4 77.2 44.4 122 51zM508 588.018c-92.4-8-151.4-56.8-177-146-15-86.4 14-153.4 87-201 75.2-38.4 146.6-32.4 214 18 63 58.8 80.6 129.2 53 211-34.8 75-93.8 114.2-177 118z" />
<glyph unicode="&#xe940;" glyph-name="menu_furniture" d="M227.189 804.268c-81.534-19.274-126.206-70.713-134.015-154.321-42.476-1.543-71.918-21.849-88.328-60.916-14.174-52.857 2.747-92.113 50.763-117.771 0.122-49.482 1.475-98.891 4.061-148.229 0.839-5.547 2.192-10.963 4.061-16.244 8.507-18.937 19.675-35.859 33.504-50.763-7.463-33.236-15.246-66.403-23.351-99.496-6.473-21.828-1.397-40.442 15.229-55.84 26.523-15.144 49.874-11.42 70.053 11.168 8.698 22.372 15.127 45.384 19.29 69.038 222.008 0.676 444.015 0 666.015-2.031 5.434-21.061 11.188-42.042 17.26-62.947 6.839-11.58 16.652-19.365 29.443-23.351 37.088-5.86 57.393 9.706 60.916 46.702-6.975 39.612-15.775 78.868-26.397 117.771 9.879 10.555 19.016 21.723 27.412 33.504 6.378 11.403 10.439 23.587 12.183 36.55 0.676 48.057 1.354 96.111 2.031 144.168 47.685 24.527 65.282 63.107 52.794 115.74-17.607 41.614-49.080 62.595-94.42 62.947 0.335 7.476-0.002 14.92-1.015 22.336-13.775 67.832-54.047 110.811-120.817 128.939-192.151 3.021-384.374 4.037-576.671 3.046zM237.342 775.841c181.396 0.338 362.789 0 544.183-1.015 68.864-12.348 107.444-53.297 115.74-122.847-0.104-3.249-0.78-6.295-2.031-9.137-27.798-10.197-45.734-29.487-53.809-57.87-2.491-49.36-3.846-98.771-4.061-148.229-17.325 16.614-37.969 26.427-61.931 29.443-62.27 1.354-124.539 1.354-186.809 0-32.791-5.889-58.51-22.47-77.16-49.748-18.65 27.278-44.369 43.86-77.16 49.748-31.134 0.339-62.27 0.676-93.405 1.015-34.604 0.264-69.123-0.751-103.557-3.046-20.179-4.839-37.439-14.654-51.779-29.443-0.677 45.348-1.353 90.698-2.031 136.046-7.074 36.2-27.719 60.906-61.931 74.114 6.699 72.005 45.279 115.661 115.74 130.969zM91.144 621.52c30.803-2.039 51.448-17.607 61.931-46.702 0.677-76.484 1.353-152.966 2.031-229.45 1.015-6.431 4.738-10.153 11.168-11.168 230.126-1.354 460.255-1.354 690.381 0 6.431 1.015 10.153 4.737 11.168 11.168 0.676 75.13 1.354 150.259 2.031 225.389 14.845 40.081 42.934 54.632 84.267 43.656 37.344-19.719 47.835-49.161 31.473-88.328-5.001-7.036-10.754-13.464-17.26-19.29-10.971-4.999-21.461-10.754-31.473-17.26-0.676-50.763-1.354-101.527-2.031-152.29-5.436-34.535-24.726-57.21-57.87-68.023-240.87-3.369-481.825-4.045-722.87-2.031-37.308 8.882-59.305 32.233-65.992 70.053-0.677 50.763-1.353 101.527-2.031 152.29-0.759 1.86-1.775 3.553-3.046 5.076-38.21 11.135-55.469 36.517-51.779 76.145 8.657 30.521 28.623 47.441 59.901 50.763zM263.739 438.772c51.446 0.339 102.885 0 154.321-1.015 45.24-3.953 71.637-28.32 79.191-73.099-104.241-1.691-208.475-1.354-312.702 1.015 8.407 44.294 34.805 68.66 79.191 73.099zM592.685 436.742c63.724 0.954 127.347-0.061 190.87-3.046 33.226-12.636 51.5-36.663 54.824-72.084-103.557 0-207.114 0-310.672 0 4.349 40.211 26.009 65.253 64.977 75.13zM125.663 243.841c8.394-3.62 17.193-5.651 26.397-6.092 0.338-14.23-0.001-28.444-1.015-42.641-4.738-20.305-9.475-40.611-14.214-60.916-8.195-13.676-18.687-15.706-31.473-6.092-1.922 3.166-3.275 6.551-4.061 10.153 8.771 35.082 16.893 70.277 24.366 105.588zM893.204 241.811c2.022 0.175 3.714-0.504 5.076-2.031 7.125-30.533 14.571-60.991 22.336-91.374 4.061-19.623-3.722-28.084-23.351-25.382-4.203 1.925-7.249 4.971-9.137 9.137-10.662 33.825-17.091 68.344-19.29 103.557 8.731 0.518 16.853 2.548 24.366 6.092zM182.518 235.719c218.621 0 437.241 0 655.862 0 0-8.122 0-16.244 0-24.366-218.621 0-437.241 0-655.862 0 0 8.122 0 16.244 0 24.366zM349.021 690.558c18.232 4.445 29.061-2.323 32.489-20.305-2.835-17.674-12.987-24.102-30.458-19.29-11.219 5.927-14.941 15.065-11.168 27.412 2.705 4.386 5.75 8.447 9.137 12.183zM507.403 690.558c17.513 3.789 27.666-2.979 30.458-20.305-2.792-17.655-12.945-24.086-30.458-19.29-11.219 5.927-14.941 15.065-11.168 27.412 2.762 5.123 6.483 9.184 11.168 12.183zM661.723 690.558c18.232 4.445 29.061-2.323 32.489-20.305-2.835-17.674-12.987-24.102-30.458-19.29-11.219 5.927-14.941 15.065-11.168 27.412 2.705 4.386 5.75 8.447 9.137 12.183zM273.892 601.215c21.272-1.281 29.055-12.11 23.351-32.489-6.892-9.304-16.029-12.35-27.412-9.137-11.389 6.654-15.111 16.468-11.168 29.443 4.282 5.324 9.359 9.385 15.229 12.183zM430.243 601.215c21.144-0.954 28.927-11.783 23.351-32.489-6.981-9.302-16.118-12.348-27.412-9.137-11.389 6.654-15.111 16.468-11.168 29.443 3.466 6.274 8.542 10.335 15.229 12.183zM586.594 601.215c19.534-1.172 27.319-11.324 23.351-30.458-8.469-12.796-19.637-15.505-33.504-8.122-12.703 17.207-9.32 30.066 10.153 38.58zM740.914 601.215c22.697-1.381 30.482-12.888 23.351-34.519-7.6-7.633-16.738-10.002-27.412-7.107-11.966 7.759-15.012 18.25-9.137 31.473 3.99 4.163 8.39 7.547 13.198 10.153z" />
<glyph unicode="&#xe948;" glyph-name="menu_garden" d="M168 960c-34.128-10.467-55.794-33.133-65-68-1.333-90.667-1.333-181.334 0-272 4.19-21.482 14.857-38.814 32-52 1-23.99 1.333-47.99 1-72-79.391-8.064-124.725-51.398-136-130 0-24 0-48 0-72 10.818-83.91 33.818-164.576 69-242 17.463-37.46 41.129-70.46 71-99 9.966-7.312 20.632-12.978 32-17 10.667 0 21.333 0 32 0 11.94 4.87 23.274 11.204 34 19 21.962 20.956 40.294 44.622 55 71 55.302 104.54 82.636 215.874 82 334-9.258 80.924-54.258 126.258-135 136-0.334 24.010 0 48.010 1 72 17.31 13.938 27.978 31.938 32 54 1.334 88.666 1.334 177.333 0 266-7.592 37.92-29.926 61.92-67 72-12.667 0-25.333 0-38 0zM174 924c32.346 4.017 53.346-9.316 63-40 1.334-86 1.334-172 0-258-10.8-32.906-33.134-45.238-67-37-15.985 6.652-26.319 18.318-31 35-1.333 87.334-1.333 174.667 0 262 5.91 18.234 17.577 30.9 35 38zM172 550c10.667 0 21.333 0 32 0 0-16.666 0-33.334 0-50-10.667 0-21.333 0-32 0 0 16.666 0 33.334 0 50zM160 464c19.545 0.896 38.879-0.104 58-3-4.012-29.074-9.012-58.074-15-87-3.245-14.076-8.245-27.41-15-40-9.655 17.294-15.988 35.96-19 56-5.575 24.646-8.575 49.312-9 74zM114 456c2.667 0 5.333 0 8 0 4.248-42.156 12.582-83.49 25-124 4.753-12.524 11.753-23.524 21-33 23.272-11.174 40.938-5.508 53 17 18.11 44.882 28.444 91.548 31 140 54.078-11.102 83.078-44.436 87-100-0.592-114.448-28.592-221.782-84-322-12.35-22.33-28.684-41.33-49-57-13.73-7.14-27.064-6.474-40 2-17.221 14.556-31.554 31.556-43 51-58.126 102.37-86.793 212.37-86 330 4.783 49.084 30.45 81.084 77 96zM1024 868c-2.292 3.95-5.626 6.95-10 9-32.156 10.499-65.156 16.165-99 17-55.504 1.295-102.172-18.039-140-58-33.93-45.749-54.598-97.082-62-154-5.204-8.412-9.872-17.078-14-26-4.152 10.302-8.82 20.302-14 30-28.706 178.532-129.706 241.532-303 189-1.666-1.667-3.334-3.333-5-5 0.516-57.558 17.182-110.225 50-158 28.694-38.526 67.028-60.858 115-67 40.532-4.29 80.532-1.29 120 9 14.012-38.738 20.678-78.738 20-120-82.67 0.334-165.336 0-248-1-16.138-5.486-24.804-16.82-26-34 5.748-42.318 11.414-84.652 17-127 4.306-15.972 14.64-25.306 31-28 18.302-126.402 35.302-253.068 51-380 1.518-6.57 4.184-12.57 8-18 4.958-3.628 9.958-6.962 15-10 113.334 0 226.666 0 340 0 9.286 4.958 16.286 12.29 21 22 17.158 127.262 33.824 254.594 50 382 0.748 1.832 1.748 3.5 3 5 13.424 1.872 23.090 8.872 29 21 5.986 38.56 11.32 77.228 16 116 7.084 24.14-0.584 41.14-23 51-82.664 1-165.33 1.334-248 1-1.588 40.732 5.080 80.064 20 118 1 0.666 2 1.334 3 2 27.18-7.264 54.848-11.264 83-12 56.292-1.146 103.292 18.854 141 60 30.796 42.726 50.462 90.058 59 142 0 8 0 16 0 24zM472 858c81.864 2.921 135.532-34.412 161-112 3.65-9.944 6.316-19.944 8-30-68.212 44.884-135.88 90.55-203 137 11.662 1.419 22.996 3.086 34 5zM898 858c20.962 0.733 41.63-1.267 62-6-66.754-45.555-133.754-90.888-201-136 7.412 46.5 29.078 84.833 65 115 22.452 15.59 47.118 24.59 74 27zM418 818c0.794 2.050 2.126 2.383 4 1 66.394-45.392 133.060-90.392 200-135-44.612-11.090-87.28-6.090-128 15-28.21 19.42-48.544 45.086-61 77-5.264 14.143-10.264 28.143-15 42zM978 820c-21.354-110.544-88.020-155.878-200-136 66.798 45.38 133.466 90.712 200 136zM446 498c169.334 0 338.666 0 508 0-4.83-39.314-9.498-78.648-14-118-160 0-320 0-480 0-5.16 39.276-9.826 78.61-14 118zM494 344c136.666 0 273.334 0 410 0-15.334-124-30.666-248-46-372-105.334 0-210.666 0-316 0-15.348 124.114-31.348 248.114-48 372zM180 892c21.378 1.908 29.044-7.425 23-28-10-10.667-20-10.667-30 0-5.466 11.556-3.132 20.889 7 28zM488 466c16.014 0.332 32.014 0 48-1 16-11.334 16-22.666 0-34-16-1.334-32-1.334-48 0-15.702 11.62-15.702 23.288 0 35zM590 466c44.672 0.334 89.338 0 134-1 9.31-5.794 12.31-14.126 9-25-1.666-4.334-4.666-7.334-9-9-44.666-1.334-89.334-1.334-134 0-7.168 3.328-10.502 8.994-10 17-0.246 8.19 3.088 14.19 10 18z" />
<glyph unicode="&#xe94d;" glyph-name="menu_health" d="M1024 456c-3.020 2.672-6.354 5.006-10 7-30.688 0.334-61.356 1.334-92 3 7.054 15.492 12.72 31.492 17 48 16.526 63.368 11.194 124.702-16 184-44.068 80.065-112.068 122.065-204 126-74.008-6.173-141.676-30.173-203-72-61.584 42.122-129.584 66.122-204 72-112.423-7.694-186.090-65.028-221-172-15.427-70.586-6.427-137.92 27-202-34.647-1.666-69.314-2.666-104-3-6.17-1.060-10.837-4.060-14-9 0-5.334 0-10.666 0-16 3.021-2.672 6.354-5.006 10-7 42.667-0.666 85.333-1.334 128-2 18.449-27.226 38.116-53.56 59-79 66.81-73.492 139.81-139.826 219-199 31.99-24.008 65.99-45.008 102-63 13.31 5.986 25.976 12.986 38 21 65.414 42.732 127.414 90.066 186 142 64.7 56.994 119.366 121.994 164 195 35.314 1.666 70.648 2.666 106 3 4.774 1.128 8.774 3.46 12 7 0 5.334 0 10.666 0 16zM300 790c54.74-0.801 106.074-14.468 154-41 19.332-10.328 38-21.662 56-34 7.24-1.682 13.908-0.348 20 4 57.004 40.497 120.336 64.164 190 71 95.314-6.995 158.314-55.662 189-146 10.168-43 8.834-85.666-4-128-6.158-17.48-12.492-34.814-19-52-32.028-0.666-64.028 0.002-96 2-12.6 22.924-25.6 45.592-39 68-10.714 8.574-20.714 7.906-30-2-10-14.666-20-29.334-30-44-18.396 57.19-36.396 114.522-54 172-3.058 6.868-8.392 10.2-16 10-5.628 0.184-10.294-1.816-14-6-31.064-104.526-61.73-209.194-92-314-33.334 84-66.666 168-100 252-8.596 7.758-17.262 7.758-26 0-26.178-50.356-51.844-101.022-77-152-51.32-2.332-102.654-2.666-154-1-41.959 69.326-50.292 142.326-25 219 33.547 71.246 89.214 111.912 167 122zM620 594c17.218-50.812 33.552-102.146 49-154 8.012-9.332 17.012-10.332 27-3 13.248 18.826 26.248 37.826 39 57 10-17.334 20-34.666 30-52 2.454-4.452 6.122-7.452 11-9 30-0.666 60-1.334 90-2-19.294-29.58-40.294-57.914-63-85-85.572-91.686-180.906-171.018-286-238-100.718 63.988-192.718 139.322-276 226-22.52 25.18-43.521 51.514-63 79 50.842 0.036 101.508 1.37 152 4 24.276 43.548 47.276 87.882 69 133 32.942-86.158 66.274-172.158 100-258 9.216-14.080 19.882-15.414 32-4 30.288 101.86 59.954 203.86 89 306z" />
<glyph unicode="&#xe94e;" glyph-name="menu_home" d="M1024 534.224c0-7.334 0-14.666 0-22-10.124-16.37-24.124-20.704-42-13-155.836 115.078-312.168 229.41-469 343-157.852-113.1-314.852-227.432-471-343-17.877-7.704-31.877-3.37-42 13 0 7.334 0 14.666 0 22 3.532 4.542 7.532 8.874 12 13 161.895 117.228 323.228 235.227 484 354 13.51 7.195 26.178 5.862 38-4 158.978-117.155 318.312-233.822 478-350 4.468-4.126 8.468-8.458 12-13zM132 496.224c20.024 2.186 31.691-6.48 35-26 1-141.332 1.333-282.666 1-424 70 0 140 0 210 0-0.334 82.67 0 165.336 1 248 9.096 53.1 38.764 89.434 89 109 59.946 16.77 110.278 1.77 151-45 14.154-19.784 22.82-41.784 26-66 1-81.998 1.334-163.998 1-246 70 0 140 0 210 0-0.334 141.334 0 282.668 1 424 2.218 16.214 11.55 24.88 28 26 13.222-0.926 21.888-7.592 26-20 1.334-155.334 1.334-310.666 0-466-4.080-10.752-11.746-17.086-23-19-91.334-1.334-182.666-1.334-274 0-13.834 2.506-21.502 10.84-23 25-0.038 94.758-1.372 189.424-4 284-20.574 46.658-55.574 62.992-105 49-21.968-9.966-36.968-26.3-45-49-2.628-95.242-3.962-190.576-4-286-2.406-13.072-10.072-20.74-23-23-91.334-1.334-182.666-1.334-274 0-11.253 1.914-18.92 8.248-23 19-1.333 155.334-1.333 310.666 0 466 2.7 10.362 9.033 17.028 19 20z" />
<glyph unicode="&#xe950;" glyph-name="menu_man" d="M457.966 960c-103.996-18.331-174.33-76.998-211-176-13.716-57.21-10.716-113.544 9-169-5.546-4.766-9.878-10.434-13-17-6.42-19.52-8.42-39.52-6-60-0.204-52.304 21.796-91.638 66-118 3.212-42.426 21.212-77.094 54-104 1.666-33.354 1.332-66.686-1-100-25.218-23.56-51.884-45.228-80-65-9.334-4-18.666-8-28-12-19.764-3.774-39.098-9.108-58-16-45.17-23.196-89.837-47.196-134-72-4.885-8.104-5.218-16.438-1-25 37.578-23.202 77.911-40.202 121-51 86.328-21.712 173.662-34.712 262-39 46.666 0 93.334 0 140 0 64.762 3.278 129.428 10.278 194 21 68.576 10.858 133.244 32.858 194 66 8 10 8 20 0 30-34.32 18.158-68.32 36.826-102 56-27.804 14.38-57.138 24.38-88 30-9.662 3.22-18.994 7.22-28 12-28.5 19.272-55.166 40.938-80 65-2.332 33.314-2.666 66.646-1 100 32.788 26.906 50.788 61.574 54 104 24.894 12.894 42.894 32.228 54 58 14.582 40.952 16.248 82.286 5 124 21.73 48.776 28.064 99.444 19 152-13.756 67.090-54.090 107.423-121 121-40.344 48.173-91.678 76.507-154 85-22 0-44 0-66 0zM463.966 924c80.59 8.178 145.256-19.489 194-83 57.518-5.515 92.518-36.515 105-93 7.76-43.566 2.76-85.566-15-126-9.238-2.514-18.57-4.514-28-6-3.338 38.688-12.338 76.020-27 112-9.086 21.88-22.754 40.213-41 55-8 4-16 4-24 0-26.384-39.014-62.384-65.014-108-78-14.376-4.594-29.044-7.928-44-10-38-0.666-76-1.334-114-2-43.044-6.37-65.712-31.37-68-75-43.718 110.84-17.718 201.173 78 271 28.55 17.84 59.216 29.507 92 35zM641.966 740c13.822-16.978 23.49-36.312 29-58 17.886-66.886 21.552-134.552 11-203 2.080-22.974 2.412-45.974 1-69-2.856-17.042-9.524-32.374-20-46-11.892-11.892-23.892-23.892-36-36-18.090-24.512-36.424-48.846-55-73-6.578-4.956-13.912-8.288-22-10-28.112-1.856-56.112-1.19-84 2-6.882 3.552-13.216 7.886-19 13-24.224 36.91-52.224 70.91-84 102-12.38 15.12-19.712 32.454-22 52-1.14 17.684-0.806 35.352 1 53-3.146 38.322-6.146 76.654-9 115-1.834 18.818-1.168 37.484 2 56 7.228 11.126 17.562 17.46 31 19 37.334 0.666 74.666 1.334 112 2 51.89 6.172 98.556 24.84 140 56 8.408 8.072 16.408 16.404 24 25zM275.966 584c9.186 0.666 16.186-2.668 21-10 2.064-31.756 5.064-63.424 9-95-0.13-5.182-1.13-10.182-3-15-11.31 11.318-19.31 24.652-24 40-7.18 26.614-8.18 53.28-3 80zM739.966 584c8.328-0.544 11.994-5.212 11-14 1.532-26.61-1.802-52.61-10-78-5.114-10.446-11.782-19.78-20-28-2.044 4.404-3.044 9.070-3 14 1.22 19.534 3.886 38.868 8 58-2.064 11.952-2.396 23.952-1 36 3.414 6.18 8.414 10.18 15 12zM393.966 270c8.504-12.198 17.504-24.198 27-36 10.216-10.948 22.55-18.614 37-23 31.254-3.136 62.586-3.802 94-2 23.818 2.416 42.818 13.416 57 33 6.666 9.334 13.334 18.666 20 28 0.666-44.666 1.334-89.334 2-134 9.556-16.294 20.89-17.628 34-4 0.666 12 1.334 24 2 36 19.61-18.63 40.61-35.298 63-50-6.12-38.216-20.452-72.884-43-104-17.218-22.1-39.552-35.1-67-39-77.396-4.522-154.73-3.854-232 2-38.832 17.506-65.166 46.506-79 87-6.564 17.594-11.564 35.594-15 54 22.39 14.702 43.39 31.37 63 50 0.666-12 1.334-24 2-36 13.11-13.628 24.444-12.294 34 4 1 44.662 1.334 89.328 1 134zM253.966 104c3.248 0.28 5.58-1.054 7-4 8.254-42.832 25.922-81.166 53-115-70.804 7.368-138.803 25.368-204 54 31.079 17.206 62.413 33.872 94 50 16.812 5.358 33.478 10.358 50 15zM763.966 104c18.976-3.744 37.644-8.744 56-15 31.908-15.954 63.242-32.954 94-51-65.452-27.696-133.452-45.362-204-53 27.996 35.002 45.996 74.668 54 119z" />
<glyph unicode="&#xe951;" glyph-name="menu_office" d="M1020.5 163.815c-90.426 92.681-181.752 184.909-273.982 276.237-11.275-6.314-20.972-14.883-29.315-25.933 4.059-5.187 8.569-10.148 13.53-14.658-34.953-35.855-70.807-70.807-107.113-104.858-1.579-2.255-1.579-4.51 0-6.765 8.344-8.344 16.462-16.462 24.805-24.805 37.433 35.178 74.415 71.258 110.495 108.24 10.599-10.148 20.746-20.746 30.443-31.57-17.364-18.491-34.953-36.531-52.993-54.12 6.314-11.275 14.883-20.972 25.933-29.315 18.717 18.040 37.659 36.080 56.375 54.12 11.275-9.697 21.874-20.295 31.57-31.57-18.040-18.717-36.080-37.659-54.12-56.375 8.344-11.050 18.040-19.619 29.315-25.933 17.589 18.040 35.629 35.629 54.12 52.993 10.824-9.697 21.423-19.844 31.57-30.443-35.629-35.629-71.484-71.484-107.113-107.113-1.579-1.579-1.579-2.932 0-4.51 7.893-7.893 15.785-15.785 23.678-23.678 1.579-1.579 2.932-1.579 4.51 0 34.953 35.404 70.356 70.356 105.985 104.858 12.854-11.275 24.805-23.227 36.080-36.080-55.699-57.503-112.299-113.878-170.252-169.124-98.093 98.093-196.184 196.184-294.277 294.277 151.536 149.958 302.846 299.914 454.382 449.872 18.717 23.227 30.668 49.385 36.080 78.925 2.706 91.102-41.267 131.467-131.918 120.643-31.119-8.118-58.179-23.001-81.18-45.1-79.376-80.504-159.88-159.88-241.284-237.902-105.534 104.407-210.842 209.263-315.699 314.572-6.765 1.128-13.53 1.579-20.295 1.128-69.003-67.876-137.781-136.202-206.332-205.204-4.285-7.667-4.285-15.109 0-22.55 92.681-94.936 186.262-189.419 280.747-283.002 2.255-1.579 4.51-1.579 6.765 0 7.216 7.216 14.207 14.207 21.423 21.423 1.579 2.255 1.579 4.51 0 6.765-88.847 87.72-176.34 176.34-262.707 266.089 55.699 57.503 112.299 113.878 170.252 169.124 9.697-9.471 19.168-19.168 28.188-29.315-17.589-18.717-35.629-37.208-54.12-55.248 8.344-8.344 16.462-16.462 24.805-24.805 2.255-1.579 4.51-1.579 6.765 0 16.913 17.364 34.276 34.276 51.865 50.738 10.824-9.697 21.423-19.844 31.57-30.443-18.491-18.040-36.531-36.531-54.12-55.248 8.344-11.050 18.040-19.619 29.315-25.933 17.589 17.589 35.404 35.404 52.993 52.993 10.824-10.824 21.874-21.874 32.698-32.698-34.953-35.855-70.807-70.807-107.113-104.858-1.579-2.255-1.579-4.51 0-6.765 8.344-8.344 16.462-16.462 24.805-24.805 37.433 35.178 74.415 71.258 110.495 108.24 10.599-10.148 20.746-20.746 30.443-31.57-17.364-18.491-34.953-36.531-52.993-54.12 6.314-11.275 14.883-20.972 25.933-29.315 18.717 18.040 37.659 36.080 56.375 54.12 20.746-18.717 40.139-38.786 58.63-59.758-135.751-134.173-271.276-268.344-407.027-402.517-26.835-71.935-52.993-144.095-78.925-216.479-4.961-20.746 2.932-29.992 23.678-28.188 72.16 25.482 144.32 51.189 216.479 76.67 70.356 68.778 140.487 137.555 210.842 206.332 104.181-104.181 208.136-208.136 312.317-312.317 6.765-1.579 13.53-1.579 20.295 0 69.454 67.199 138.232 135.3 206.332 204.077 4.285 7.667 4.285 15.109 0 22.55zM893.093 892.179c58.405-7.216 79.827-39.463 64.268-96.965-10.599-25.933-26.609-47.806-48.483-65.395-36.531 35.404-72.611 71.033-108.24 107.113 23.903 30.443 54.797 48.934 92.455 55.248zM82.422 17.24c15.334 47.355 31.57 94.71 48.483 142.065 32.247-28.413 62.915-58.405 92.455-90.2-46.904-17.589-93.808-34.727-140.938-51.865zM263.95 90.528c-1.579-1.579-2.932-1.579-4.51 0-34.953 34.953-69.905 69.905-104.858 104.858-1.579 1.579-1.579 2.932 0 4.51 205.881 201.822 410.86 404.772 614.486 608.848 37.433-34.051 73.739-69.229 109.368-105.985 1.579-1.579 1.579-2.932 0-4.51-205.43-201.822-410.409-404.321-614.486-607.721zM751.028 714.034c2.481 0.226 4.736 0 6.765-1.128 7.216-7.216 14.207-14.207 21.423-21.423 1.579-2.255 1.579-4.51 0-6.765-162.135-162.811-324.719-324.719-488.207-485.952-1.579-1.579-2.932-1.579-4.51 0-7.893 7.893-15.785 15.785-23.678 23.678-1.579 1.579-1.579 2.932 0 4.51 163.939 161.233 326.523 323.592 488.207 487.079z" />
<glyph unicode="&#xe953;" glyph-name="menu_premium" d="M494.886 811.174c-21.841-6.325-37.323-20.087-46.447-41.287-7.522-26.469-3.051-50.553 13.418-72.252-38.013-67.085-76.547-133.831-115.603-200.24-71.294 43.417-142.856 86.425-214.691 129.021 0.15 11.624-0.194 23.666-1.032 36.126-6.537 25.804-22.708 41.974-48.512 48.512-58.854 4.451-86.035-22.728-81.541-81.541 8.916-30.443 29.215-46.957 60.898-49.544 26.699-130.396 53.535-260.793 80.509-391.191-5.225-5.336-9.009-11.872-11.354-19.611-4.817-19.266-9.633-38.535-14.45-57.801-1.728-7.834-1.040-15.402 2.064-22.708 1.549-1.292 3.27-2.324 5.161-3.096 258.729-1.377 517.46-1.377 776.189 0 1.891 0.772 3.613 1.804 5.161 3.096 3.105 7.306 3.792 14.874 2.064 22.708-5.184 21.42-10.687 42.75-16.515 63.994-1.377 4.129-4.129 6.88-8.257 8.257 25.28 132.251 51.773 264.369 79.477 396.352 10.194 0.070 19.826 2.479 28.901 7.225 27.46 17.629 38.126 42.744 31.997 75.348-6.538 25.804-22.708 41.974-48.512 48.512-60.448 3.551-87.972-24.663-82.573-84.638-71.835-42.595-143.397-85.604-214.691-129.021-39.055 66.41-77.59 133.156-115.603 200.24 7.337 9.17 12.497 19.491 15.482 30.965 4.405 58.557-22.774 86.082-81.541 82.573zM501.079 776.080c35.641 0.503 47.682-16.013 36.126-49.544-12.904-13.441-27.699-15.848-44.383-7.225-13.441 12.904-15.848 27.699-7.225 44.383 4.364 5.411 9.525 9.539 15.482 12.386zM55.183 681.121c30.579 0.043 43.997-15.096 40.254-45.415-13.707-23.125-31.942-27.596-54.705-13.418-17.278 25.329-12.461 44.941 14.45 58.833zM492.821 681.121c12.981-1.969 25.711-2.657 38.19-2.064 40.764-72.588 82.051-144.84 123.86-216.755 10.039-10.266 20.703-10.611 31.997-1.032 73.629 44.728 147.255 89.454 220.884 134.182 6.645-1.036 12.493-4.133 17.547-9.289-26.498-134.204-53.677-268.386-81.541-402.545-221.571 0-443.144 0-664.715 0-27.863 134.159-55.044 268.34-81.541 402.545 5.053 5.157 10.903 8.253 17.547 9.289 78.725-48.477 158.202-95.614 238.43-141.407 8.586 1.701 14.779 6.519 18.579 14.45 40.279 70.933 80.534 141.807 120.763 212.626zM946.974 676.992c35.641 0.502 47.682-16.013 36.126-49.544-12.904-13.441-27.699-15.848-44.383-7.225-13.441 12.904-15.848 27.699-7.225 44.383 4.364 5.411 9.525 9.539 15.482 12.386zM162.528 150.588c232.582 0.345 465.164 0 697.744-1.032 3.553-10.425 6.304-21.091 8.257-31.997-238.086 0-476.173 0-714.259 0 2.116 11.216 4.869 22.227 8.257 33.029z" />
<glyph unicode="&#xe954;" glyph-name="menu_product" d="M386 960c-4.94-3.163-7.94-7.83-9-14-1.334-23.333-1.334-46.667 0-70 2.046-10.217 8.38-15.55 19-16 2.33-15.29 2.662-30.623 1-46-33.844-65.688-67.178-131.688-100-198-10.066-23.666-16.066-48.332-18-74-1.334-184.666-1.334-369.334 0-554 4.77-26.422 19.77-43.756 45-52 125.334 0 250.666 0 376 0 25.23 8.244 40.23 25.578 45 52 1.334 184.666 1.334 369.334 0 554-1.934 25.668-7.934 50.334-18 74-32.822 66.312-66.156 132.312-100 198-1.662 15.377-1.33 30.71 1 46 10.62 0.45 16.954 5.783 19 16 1.334 23.333 1.334 46.667 0 70-1.060 6.17-4.060 10.837-9 14-84 0-168 0-252 0zM412 926c66.666 0 133.334 0 200 0 0-10 0-20 0-30-66.666 0-133.334 0-200 0 0 10 0 20 0 30zM434 860c52 0 104 0 156 0-0.772-18.801 0.228-37.468 3-56 19.822-40.312 40.156-80.312 61-120-14.090-7.084-27.424-15.416-40-25-11.97-3.884-23.97-3.884-36 0-13.84 11.254-29.172 19.922-46 26-17.684 2.252-35.016 0.918-52-4-11.674-6.836-23.008-14.168-34-22-9.856-2.836-19.856-3.502-30-2-15.594 8.602-30.926 17.602-46 27 20.844 39.688 41.178 79.688 61 120 2.772 18.532 3.772 37.199 3 56zM502 652c9.496 0.45 18.83-0.55 28-3 10.992-7.832 22.326-15.164 34-22 21.334-9.334 42.666-9.334 64 0 13.082 8.204 26.416 15.872 40 23 25.49-35.034 39.824-74.368 43-118 1.334-178.666 1.334-357.334 0-536-0.992-12.332-7.324-20.666-19-25-120-1.334-240-1.334-360 0-7.55 2.884-13.216 7.884-17 15-3.308 181.93-3.974 363.93-2 546 3.176 43.632 17.51 82.966 43 118 13.584-7.128 26.918-14.796 40-23 21.334-9.334 42.666-9.334 64 0 13.912 9.006 27.912 17.338 42 25zM474 830c25.342 0.333 50.676 0 76-1 9.136-5.175 12.136-12.842 9-23-1.666-4.333-4.666-7.333-9-9-25.334-1.333-50.666-1.333-76 0-9.138 5.083-12.138 12.749-9 23 2.732 3.723 5.732 7.057 9 10zM372 602c11.946-0.27 17.946-6.27 18-18-4.596-15.056-8.264-30.39-11-46-0.666-132-1.334-264-2-396-2.798-7.476-8.132-10.808-16-10-7.868-0.808-13.202 2.524-16 10-1.334 134.666-1.334 269.334 0 404 1.616 19.526 7.95 37.194 19 53 3.116 0.42 5.782 1.42 8 3zM354 100c10.27 2.148 17.936-1.186 23-10 1.334-26.666 1.334-53.334 0-80-10.666-13.334-21.334-13.334-32 0-1.334 26.666-1.334 53.334 0 80 2.050 4.374 5.050 7.708 9 10z" />
<glyph unicode="&#xe958;" glyph-name="menu_review" d="M972 810.745c-224 1.4-448 1.4-672 0-4.6-0.6-8.4-3-11-7-7.6-13.2-5.2-24.2 7-33 222-0.6 444-1.4 666-2 9-0.6 15.2-5 19-13 1.4-164 1.4-328 0-492-2.4-6.4-6.6-10.6-13-13-122.6-0.6-245.4-1.4-368-2-3.2-1.4-6.2-3-9-5-26.6-35.2-54-70-82-104-28.4 33.6-56.4 67.6-84 102-3.2 3-6.8 5.4-11 7-119.4 0.6-238.6 1.4-358 2-6.4 2.4-10.6 6.6-13 13-1.4 164-1.4 328 0 492 3.8 8 10 12.4 19 13 28.6 0.6 57.4 1.4 86 2 7.2 4.2 10.6 10.6 10 19 1 11-3.6 18-14 21-30.6 1.4-61.4 1.4-92 0-26.4-4.8-43.8-19.8-52-45 0-170.6 0-341.4 0-512 7.8-23.4 23.8-38.4 48-45 116.6-0.4 233.4-1.4 350-3 30.8-36.4 61-73 91-110 9.8-12.6 21.4-14.8 35-7 31.4 39.4 62.6 78.6 94 118 119.4 0.6 238.6 1.4 358 2 24.2 6.6 40.2 21.6 48 45 0 170.6 0 341.4 0 512-8.2 25.2-25.6 40.2-52 45zM216 811.745c22.4 0 30.6-10.6 25-32-7.4-9.6-17-12.6-29-9-10 7.6-13 17.4-9 29 3 5.6 7.4 9.6 13 12zM228 639.745c7.6 0.6 15-0.4 22-3 13.4-18.4 26-37.4 38-57 20.6-6 41.2-11.6 62-17 14.4-8.6 17.4-20.4 9-35-12.6-14.6-25.4-29.4-38-44-0.2-21.4 0.8-42.6 3-64 1-12.6-4.6-20-17-22-5 1.4-10 2.4-15 3-18.4 7-36.6 14-55 21-12.6-4.2-25-9.2-37-15-10.4-4-21-7-32-9-12.2 1-18.2 7.6-18 20 2.6 22 3.6 44 3 66-13.4 16-26.6 32-40 48-5.4 13.6-1.8 24 11 31 20.6 5.6 41.2 11 62 16 12.2 21.8 26.2 42.2 42 61zM236 577.745c-5.8-13.2-13.8-24.8-24-35-13.4-4.4-26.6-8.6-40-13 8.4-11.4 16.6-22.6 25-34-0.6-14.8-0.2-29.4 1-44 12.6 6 25.6 10.8 39 14 14-3 27.2-7.6 40-14 0.6 14 0.6 28 0 42 6.4 11.8 14.4 22.4 24 32 1 1.8 1.2 3.8 1 6-13.6 2.4-27 6-40 11-10 11-18.6 22.6-26 35zM502 639.745c9 1.2 17-0.8 24-6 11.8-18.6 23.8-36.8 36-55 20.6-5.6 41.2-11 62-16 5-2.4 8.6-6 11-11 1.6-7.6 1-15-2-22-13.4-16-26.6-32-40-48 0.8-19 1.8-38 3-57 2-24.2-8.8-32.2-32-24-18 7-36 14-54 21-14.4-4.6-28.4-10.2-42-17-12.4-5.6-25-6.8-38-4-2.4 1.8-4 4.2-5 7-0.6 24.8 0 49.4 2 74-13.4 16-26.6 32-40 48-3 7-3.6 14.4-2 22 2.4 5 6 8.6 11 11 20.8 5 41.4 10.4 62 16 11.8 16.4 22.8 33.4 33 51 2.8 4.4 6.4 7.8 11 10zM508 577.745c-5-13-12.4-24.8-22-35-14-4.6-28-9-42-13 8.8-10.4 17-21 25-32 1.4-13.8 1.2-27.4-1-41 0.6-1.6 1.4-3.4 2-5 12.2 7.8 25.6 12.6 40 14 14.4-1.4 27.8-6.2 40-14 0 15.2 0.4 30.6 1 46 8 11 16.2 21.6 25 32-14 4-28 8.4-42 13-9 9.8-16.4 20.8-22 33-1 1.6-2.2 2.2-4 2zM774 639.745c10.6 1.8 19.6-0.8 27-8 10.8-17.8 21.8-35.6 33-53 20.8-5 41.4-10.4 62-16 12.8-7 16.4-17.4 11-31-13.4-16-26.6-32-40-48-0.8-21.8 0.2-43.4 3-65 0.2-11.8-5.4-18.8-17-21-7.6 1.6-15.4 3.2-23 5-15.6 6.8-31.2 13-47 19-14.6-4.8-29-10.6-43-17-8.8-3.4-17.8-5.6-27-7-8 0.6-13.2 4.6-16 12 0.8 24.6 1.4 49.4 2 74-12.6 14.6-25.4 29.4-38 44-8.4 14.8-5.4 26.4 9 35 20.8 5.4 41.4 11 62 17 11.4 17 22.4 34.4 33 52 2.8 3.2 5.8 5.8 9 8zM782 577.745c-5.8-13.2-13.8-24.8-24-35-13.8-5-27.8-9-42-12 8-10.6 16.4-20.8 25-31 1.6-3.8 2.6-7.8 3-12-2-12-2.4-24-1-36 12.8 6.4 26 11 40 14 13.8-3.4 27-8.2 40-14 0 14.6 0 29.4 0 44 8.4 11.4 16.6 22.6 25 34-13.4 4.2-26.8 8.4-40 13-3.6 3.6-7.4 7.4-11 11-4.6 8.4-9.6 16.4-15 24z" />
<glyph unicode="&#xe95d;" glyph-name="menu_shoes" d="M1024 189.356c-6.274 23.494-18.942 43.16-38 59-20.038 14.026-41.372 26.026-64 36-55.002 34.974-104.002 77.308-147 127-1.334 2-1.334 4 0 6 13.22 9.202 14.22 19.534 3 31-10.302 1.866-19.636-0.468-28-7-6.042 6.372-11.708 13.040-17 20-1.498 2.27-1.166 4.27 1 6 14.168 6.84 17.5 17.172 10 31-12.636 5.378-23.636 3.046-33-7-7.39 9.724-14.39 19.724-21 30 6.12 3.544 11.12 8.21 15 14 1.51 5.606 0.844 10.94-2 16-10.91 7.984-21.578 7.316-32-2-19.232 28.452-35.898 58.452-50 90-7.48 28.076-1.48 52.742 18 74 0.816 18.108-7.516 24.442-25 19-25.442-26.794-34.11-58.462-26-95-20.572-4.642-41.238-8.976-62-13-40.030-6.49-80.030-6.49-120 0-28.688 6.17-53.020 19.838-73 41-41.404 44.81-67.404 97.477-78 158-9.182 5.735-17.848 5.068-26-2-75.405-100.192-151.738-199.526-229-298 0-5.334 0-10.666 0-16 181.919-119.64 365.252-237.308 550-353 129.29-71.592 267.29-98.258 414-80 3.61 1.944 6.944 4.278 10 7 17.232 24.52 33.898 49.186 50 74 0 11.334 0 22.666 0 34zM232 771.356c19.454-55.876 50.788-104.21 94-145 39.996-29.546 84.996-42.546 135-39 46.642 0.044 92.308 6.71 137 20 13.156-25.658 27.822-50.324 44-74-18.432-12.394-36.766-25.062-55-38-5.278-14.454-0.278-23.12 15-26 17.6 9.804 34.932 20.136 52 31 2.518 1.964 5.184 2.63 8 2 7.056-9.392 13.724-19.058 20-29-14.61-9.61-28.942-19.61-43-30-6.45-18.11-0.116-26.444 19-25 15.17 9.418 30.17 19.084 45 29 6.334-7.666 12.666-15.334 19-23-13.838-8.752-27.504-17.752-41-27-6.396-19.53 0.604-27.864 21-25 13.686 8.364 27.354 16.698 41 25 46.178-52.198 97.846-97.864 155-137 24.31-11.816 47.644-25.15 70-40 15.648-12.602 22.982-28.602 22-48-128.398-11.92-249.732 12.080-364 72-82.666 52-165.334 104-248 156-16.334 2.334-23.334-4.666-21-21 1.57-3.572 3.902-6.572 7-9 77.662-49.834 155.662-99.166 234-148 116.584-63.32 241.252-91.986 374-86-7.056-9.392-13.724-19.058-20-29-133.458-17.378-259.458 6.288-378 71-178.804 112.482-356.804 226.15-534 341 10 13.334 20 26.666 30 40 79.333-51 158.666-102 238-153 9.338-6.79 18.338-6.456 27 1 4.316 8.388 3.316 16.056-3 23-29.334 18.666-58.666 37.334-88 56 33.312 67.786 31.644 134.786-5 201-6.236 9.572-13.236 18.572-21 27-21.32 3.692-28.32-4.64-21-25 43.782-57.476 50.116-118.808 19-184-42.269 26.606-84.269 53.606-126 81 48.078 61.186 95.411 122.852 142 185z" />
<glyph unicode="&#xe95e;" glyph-name="menu_sport" d="M771 714c-65.8 142-176 224-331 246-26.6 0-53.4 0-80 0-40.4-5.2-79.8-15.4-118-31-141-66.2-221.8-176.4-242-331 0-26 0-52 0-78 4-28.8 10.4-57.6 19-86 58.4-157 170.4-247.6 336-272 5.8-0.4 11.2 1 16 4 4.6 9.8 3.6 18.8-3 27-75.8 8.4-142.8 36.8-201 85-16.8 54.8-23.6 110.8-20 168 16 164.4 94.2 288.8 235 373 3.6 1 7 0.4 10-2 14-9.2 27.2-19.2 40-30-52.4-38.6-86.8-89.6-103-153-26.6-105-21.4-208.2 16-310 7.4-22.6 17.8-43.6 31-63 14.4-4.2 23 0.8 26 15-9 22-18 44-27 66-32.8 91.4-37.4 184-14 278 14.8 60.4 47.6 108.4 98 144 64.4-63.4 107-139.4 128-228 3.2-7.4 8.8-11.4 17-12 11 1 16.4 7 16 18-20 91.6-62.8 170.6-128 237 70.2 19.2 133.6 5.8 190-40 42-38.8 71.4-85.4 88-140 15.2-6 24.6-1 28 15-5.2 34.4-14.2 67.6-27 100zM316 918c2.4 0.4 4.4-0.2 6-2-3.2-7.6-8.2-13.6-15-18-8.2 3.4-16.6 6.4-25 9 11.4 4 22.8 7.6 34 11zM226 884c16.4-1.8 32.4-5.4 48-11-34.8-17.6-71.4-28.2-110-32 20 15.6 40.6 30 62 43zM115 472c-4.8-49.6-3.2-98.8 5-148-74.4 91.2-100.8 195.2-79 312 13.6 61.4 40.6 115.6 81 163 56.2 4.8 110.2 18.2 162 40 11 5.8 21.6 12.2 32 19 11.8-4.6 23.2-10.2 34-17-135-86.2-213.4-209.2-235-369zM387 860c-14.2 8.2-28.6 16.2-43 24 8.2 12.4 14.2 25.6 18 40 12.4 1.4 24.4 2.6 36 4 42.6-1 83.8-8.6 124-23-47.4-8-92.4-23-135-45zM608 815c-48.6 11.6-96.4 8.6-143-9-14.4 10.8-28.8 21.8-43 33 48.8 21.2 99.4 34.2 152 39 7.6 0.2 14.2-2.2 20-7 41-27 76.4-60.4 106-100-28.2 18.8-58.8 33.4-92 44zM1024 450c-3.4 30.2-9.2 60.2-17 90-1 7.8-4.8 14.2-11 19-145.4 41-280.8 19.8-406-64-178.8-135.2-241.8-312.2-189-531 2.4-2.4 4.6-4.6 7-7 32.8-10.6 66.2-17.6 100-21 24.6 0 49.4 0 74 0 138.2 15 251.2 76.2 339 184 59.2 75.2 93.6 160.6 103 256 0 24.6 0 49.4 0 74zM820 546c48.8 3.2 96.8-1.2 144-13 4-0.8 7.8-2.6 11-5 15.2-56 19-112.6 11-170-46.6 62.8-100.6 118.6-162 167-20.8 3.4-28.4-4.8-23-25 70.4-54.4 129.4-118.6 177-193-45.8-148.4-140.4-252.4-284-312-86.2-31.6-173.6-35-262-10-18 56.6-22.2 114.2-13 173 44-60 95-113.8 153-161 11.4-9.8 21.6-8.8 31 3 1.6 6.2 1 12.2-2 18-50.6 40-96 85.4-136 136-13.6 17.6-26 35.8-37 55 37.4 124.2 112.2 218.8 224 284 52.8 28.4 108.8 46 168 53zM836 414c19.8-0.2 26.2-9.6 19-28-10-9.6-19.6-19.6-29-30 7.4-7.8 14.4-15.8 21-24 4.8-18-2.2-26.2-21-25-8.6 6.6-16.6 14-24 22-1.4 1.4-2.6 1.4-4 0-13.4-13.4-26.6-26.6-40-40 7.6-7.6 15.4-15.4 23-23 5.4-20.2-2.2-28.4-23-25-7.4 7.4-14.6 14.6-22 22-1.4 1.4-2.6 1.4-4 0-13.4-13.4-26.6-26.6-40-40 7-7 14-14 21-21 7.2-20.2 0.2-29.2-21-27-9 7-17.2 14.6-25 23-13.4-13.4-26.6-26.6-40-40-1.4-1.4-1.4-2.6 0-4 7.4-7.4 14.6-14.6 22-22 3-20.4-5.4-28-25-23-7.6 7.6-15.4 15.4-23 23-10.4-10.4-20.6-20.6-31-31-14.8-6-24-1.4-28 14 1.4 2.8 2.4 5.8 3 9 10.6 10.4 21 21 31 32-7.4 8.4-15 16.4-23 24-6 14.8-1.4 24 14 28 13-7 24.4-16.2 34-28 14 13.6 27.6 27.6 41 42-6.6 7.6-13.6 15-21 22-8.8 18.4-3.2 28.2 17 29 10.6-6.6 19.8-14.6 28-24 1.4-1.4 2.6-1.4 4 0 13.4 13.4 26.6 26.6 40 40-11.8 9.6-21 21-28 34 2.6 13.4 10.6 18.6 24 16 9.6-8 19-16.2 28-25 14.4 13.4 28.4 27 42 41-12 9.6-21.4 21.4-28 35 3.2 14.2 11.8 19.2 26 15 9.6-7.6 18.6-16 27-25 11.4 11.8 23.2 23.2 35 34z" />
</font>
</defs>
</svg>
