<?xml version="1.0" encoding="UTF-8"?>
<!DOCTYPE svg PUBLIC "-//W3C//DTD SVG 1.1//EN" "http://www.w3.org/Graphics/SVG/1.1/DTD/svg11.dtd">
<svg xmlns="http://www.w3.org/2000/svg" version="1.1" width="512px" height="512px" style="shape-rendering:geometricPrecision; text-rendering:geometricPrecision; image-rendering:optimizeQuality; fill-rule:evenodd; clip-rule:evenodd" xmlns:xlink="http://www.w3.org/1999/xlink">
<g><path style="opacity:0.983" fill="#000000" d="M 245.5,-0.5 C 250.833,-0.5 256.167,-0.5 261.5,-0.5C 265.317,0.840466 268.983,2.6738 272.5,5C 334.306,67.8059 396.472,130.306 459,192.5C 469,206.833 469,221.167 459,235.5C 445.895,246.654 431.728,248.154 416.5,240C 372.694,197.194 329.194,154.028 286,110.5C 285.667,235.833 285.333,361.167 285,486.5C 281.419,498.912 273.586,507.245 261.5,511.5C 256.167,511.5 250.833,511.5 245.5,511.5C 231.554,507.378 223.387,498.045 221,483.5C 220.667,359.167 220.333,234.833 220,110.5C 178.167,152.333 136.333,194.167 94.5,236C 77.493,244.637 62.6596,241.804 50,227.5C 43.1079,215.679 42.7746,203.679 49,191.5C 107.667,132.833 166.333,74.1667 225,15.5C 229.748,7.38928 236.581,2.05594 245.5,-0.5 Z"/></g>
</svg>
