<?xml version="1.0" encoding="UTF-8"?>
<!DOCTYPE svg PUBLIC "-//W3C//DTD SVG 1.1//EN" "http://www.w3.org/Graphics/SVG/1.1/DTD/svg11.dtd">
<svg xmlns="http://www.w3.org/2000/svg" version="1.1" width="512px" height="512px" style="shape-rendering:geometricPrecision; text-rendering:geometricPrecision; image-rendering:optimizeQuality; fill-rule:evenodd; clip-rule:evenodd" xmlns:xlink="http://www.w3.org/1999/xlink">
<g><path style="opacity:0.982" fill="#000000" d="M 511.5,248.5 C 511.5,253.833 511.5,259.167 511.5,264.5C 510.16,268.317 508.326,271.983 506,275.5C 443.833,337.667 381.667,399.833 319.5,462C 306.5,469.333 293.5,469.333 280.5,462C 266.793,449.666 263.96,435.166 272,418.5C 315.446,375.054 358.946,331.554 402.5,288C 278.167,287.667 153.833,287.333 29.5,287C 14.1409,285.181 4.14086,277.015 -0.5,262.5C -0.5,257.167 -0.5,251.833 -0.5,246.5C 2.36314,237.796 7.69647,230.963 15.5,226C 18.0891,224.803 20.7558,223.803 23.5,223C 149.167,222.667 274.833,222.333 400.5,222C 357.361,179.861 314.528,137.361 272,94.5C 261.868,75.5369 265.368,59.7036 282.5,47C 295.343,40.978 307.676,41.978 319.5,50C 381.027,111.861 442.861,173.361 505,234.5C 508.025,238.877 510.192,243.544 511.5,248.5 Z"/></g>
</svg>
