<?xml version="1.0" encoding="UTF-8"?>
<!DOCTYPE svg PUBLIC "-//W3C//DTD SVG 1.1//EN" "http://www.w3.org/Graphics/SVG/1.1/DTD/svg11.dtd">
<svg xmlns="http://www.w3.org/2000/svg" version="1.1" width="512px" height="512px" style="shape-rendering:geometricPrecision; text-rendering:geometricPrecision; image-rendering:optimizeQuality; fill-rule:evenodd; clip-rule:evenodd" xmlns:xlink="http://www.w3.org/1999/xlink">
<g><path style="opacity:0.987" fill="#000000" d="M 511.5,246.5 C 511.5,251.833 511.5,257.167 511.5,262.5C 508.015,274.818 500.015,282.651 487.5,286C 361.833,286.333 236.167,286.667 110.5,287C 155,330.167 198.833,374 242,418.5C 250.328,437.226 246.161,452.393 229.5,464C 217.157,469.177 205.157,468.51 193.5,462C 131.027,400.528 68.8608,338.694 7,276.5C 3.67822,272.185 1.17822,267.518 -0.5,262.5C -0.5,257.167 -0.5,251.833 -0.5,246.5C 1.26512,240.978 4.09846,235.978 8,231.5C 69.4726,171.028 130.639,110.194 191.5,49C 210.531,38.745 226.364,42.245 239,59.5C 243.906,70.9997 243.573,82.3331 238,93.5C 195.861,136.639 153.361,179.472 110.5,222C 236.167,222.333 361.833,222.667 487.5,223C 500.015,226.349 508.015,234.182 511.5,246.5 Z"/></g>
</svg>
