<?xml version="1.0" encoding="UTF-8"?>
<!DOCTYPE svg PUBLIC "-//W3C//DTD SVG 1.1//EN" "http://www.w3.org/Graphics/SVG/1.1/DTD/svg11.dtd">
<svg xmlns="http://www.w3.org/2000/svg" version="1.1" width="512px" height="512px" style="shape-rendering:geometricPrecision; text-rendering:geometricPrecision; image-rendering:optimizeQuality; fill-rule:evenodd; clip-rule:evenodd" xmlns:xlink="http://www.w3.org/1999/xlink">
<g><path style="opacity:0.982" fill="#000000" d="M 244.5,-0.5 C 250.167,-0.5 255.833,-0.5 261.5,-0.5C 274.471,3.97398 282.304,12.974 285,26.5C 285.333,152.167 285.667,277.833 286,403.5C 330.167,359.333 374.333,315.167 418.5,271C 436.718,261.51 452.218,264.676 465,280.5C 471.745,294.152 470.745,307.152 462,319.5C 399.833,381.667 337.667,443.833 275.5,506C 271.741,507.879 268.075,509.713 264.5,511.5C 258.167,511.5 251.833,511.5 245.5,511.5C 241.481,509.995 237.481,508.162 233.5,506C 171.027,444.528 108.861,382.694 47,320.5C 36.8575,301.576 40.3575,285.742 57.5,273C 69.0148,268.051 80.3482,268.384 91.5,274C 134.333,316.167 177.167,358.333 220,400.5C 220.333,275.5 220.667,150.5 221,25.5C 224.147,12.523 231.98,3.85631 244.5,-0.5 Z"/></g>
</svg>
