<?xml version="1.0" encoding="UTF-8"?>
<!DOCTYPE svg PUBLIC "-//W3C//DTD SVG 1.1//EN" "http://www.w3.org/Graphics/SVG/1.1/DTD/svg11.dtd">
<svg xmlns="http://www.w3.org/2000/svg" version="1.1" width="512px" height="512px" style="shape-rendering:geometricPrecision; text-rendering:geometricPrecision; image-rendering:optimizeQuality; fill-rule:evenodd; clip-rule:evenodd" xmlns:xlink="http://www.w3.org/1999/xlink">
<g><path style="opacity:0.974" fill="#000000" d="M 241.5,15.5 C 291,11.8983 325.834,32.5649 346,77.5C 350.952,92.0933 352.786,107.093 351.5,122.5C 363.838,122.333 376.171,122.5 388.5,123C 409.058,125.524 423.224,136.357 431,155.5C 432.951,163.708 433.951,172.041 434,180.5C 438.106,268.836 442.273,357.17 446.5,445.5C 446.327,467.03 436.66,482.53 417.5,492C 414.226,493.202 410.893,494.202 407.5,495C 306.167,495.667 204.833,495.667 103.5,495C 78.4313,488.09 65.4313,471.59 64.5,445.5C 68.7142,357.169 72.8808,268.836 77,180.5C 75.0399,154.898 85.5399,136.731 108.5,126C 113.03,124.368 117.696,123.368 122.5,123C 134.829,122.5 147.162,122.333 159.5,122.5C 156.695,81.6114 172.361,50.1114 206.5,28C 217.611,21.91 229.278,17.7433 241.5,15.5 Z M 254.5,47.5 C 298.564,52.9073 320.231,77.9073 319.5,122.5C 276.833,122.5 234.167,122.5 191.5,122.5C 190.608,78.749 211.608,53.749 254.5,47.5 Z M 125.5,155.5 C 213.501,155.333 301.501,155.5 389.5,156C 394.757,158.256 398.257,162.09 400,167.5C 404.548,259.831 409.048,352.165 413.5,444.5C 413.561,454.92 408.561,461.086 398.5,463C 303.167,463.667 207.833,463.667 112.5,463C 102.439,461.086 97.4388,454.92 97.5,444.5C 101.921,352.497 106.421,260.497 111,168.5C 113.143,161.033 117.976,156.7 125.5,155.5 Z"/></g>
<g><path style="opacity:0.96" fill="#000000" d="M 173.5,188.5 C 180.663,187.608 186.497,189.941 191,195.5C 195.885,218.705 208.719,235.871 229.5,247C 262.645,259.171 289.478,251.005 310,222.5C 314.517,214.281 317.85,205.615 320,196.5C 326.263,188.315 334.096,186.481 343.5,191C 348.616,194.392 351.282,199.225 351.5,205.5C 339.31,255.517 307.477,282.184 256,285.5C 213.711,283.704 183.711,263.704 166,225.5C 163.348,218.879 161.515,212.046 160.5,205C 161.011,196.338 165.344,190.838 173.5,188.5 Z"/></g>
</svg>
