<?xml version="1.0" encoding="UTF-8"?>
<!DOCTYPE svg PUBLIC "-//W3C//DTD SVG 1.1//EN" "http://www.w3.org/Graphics/SVG/1.1/DTD/svg11.dtd">
<svg xmlns="http://www.w3.org/2000/svg" version="1.1" width="512px" height="512px" style="shape-rendering:geometricPrecision; text-rendering:geometricPrecision; image-rendering:optimizeQuality; fill-rule:evenodd; clip-rule:evenodd" xmlns:xlink="http://www.w3.org/1999/xlink">
<g><path style="opacity:0.994" fill="#000000" d="M 511.5,167.5 C 511.5,249.167 511.5,330.833 511.5,412.5C 504.908,440.257 487.575,457.09 459.5,463C 323.5,463.667 187.5,463.667 51.5,463C 23.4248,457.09 6.0915,440.257 -0.5,412.5C -0.5,330.833 -0.5,249.167 -0.5,167.5C 6.22208,139.28 23.8887,122.446 52.5,117C 79.8313,116.5 107.165,116.333 134.5,116.5C 133.64,79.6734 150.974,56.84 186.5,48C 232.5,47.3333 278.5,47.3333 324.5,48C 360.026,56.84 377.36,79.6734 376.5,116.5C 403.835,116.333 431.169,116.5 458.5,117C 487.111,122.446 504.778,139.28 511.5,167.5 Z M 244.5,167.5 C 293.927,165.624 331.427,185.624 357,227.5C 378.895,272.987 374.895,315.987 345,356.5C 311.864,393.542 271.03,406.042 222.5,394C 170.56,375.365 142.893,338.365 139.5,283C 141.576,238.49 161.576,204.824 199.5,182C 213.747,174.416 228.747,169.583 244.5,167.5 Z"/></g>
<g><path style="opacity:0.981" fill="#000000" d="M 245.5,221.5 C 281.687,219.228 305.187,235.228 316,269.5C 321.064,302.692 308.564,326.526 278.5,341C 243.586,351.452 217.086,340.952 199,309.5C 187.745,279.353 194.245,253.853 218.5,233C 226.9,227.459 235.9,223.625 245.5,221.5 Z"/></g>
</svg>
