<?xml version="1.0" encoding="UTF-8"?>
<!DOCTYPE svg PUBLIC "-//W3C//DTD SVG 1.1//EN" "http://www.w3.org/Graphics/SVG/1.1/DTD/svg11.dtd">
<svg xmlns="http://www.w3.org/2000/svg" version="1.1" width="512px" height="512px" style="shape-rendering:geometricPrecision; text-rendering:geometricPrecision; image-rendering:optimizeQuality; fill-rule:evenodd; clip-rule:evenodd" xmlns:xlink="http://www.w3.org/1999/xlink">
<g><path style="opacity:0.953" fill="#000000" d="M 511.5,269.5 C 511.5,311.5 511.5,353.5 511.5,395.5C 505.924,406.568 497.258,414.401 485.5,419C 453.684,430.356 420.851,435.856 387,435.5C 355.03,435.69 323.864,430.856 293.5,421C 281.639,416.835 272.139,409.668 265,399.5C 264.187,397.564 263.687,395.564 263.5,393.5C 241.66,393.889 220.16,391.556 199,386.5C 160.169,415.857 118.002,421.69 72.5,404C 31.6456,384.315 7.31231,352.148 -0.5,307.5C -0.5,296.833 -0.5,286.167 -0.5,275.5C 13.2776,209.4 53.9443,173.733 121.5,168.5C 128.823,169.32 136.157,169.986 143.5,170.5C 143.713,155.153 143.38,139.82 142.5,124.5C 142.345,114.31 146.345,106.143 154.5,100C 172.39,89.3691 191.724,82.7024 212.5,80C 254.655,73.8951 296.655,74.8951 338.5,83C 351.404,85.7455 363.737,90.0788 375.5,96C 384.195,101.026 390.362,108.193 394,117.5C 394.5,155.165 394.667,192.832 394.5,230.5C 427.351,230.167 459.018,236.001 489.5,248C 499.379,252.714 506.713,259.881 511.5,269.5 Z M 247.5,97.5 C 274.706,96.4006 301.706,98.2339 328.5,103C 342.322,105.495 355.322,110.162 367.5,117C 369.167,118.667 370.833,120.333 372.5,122C 366.796,127.522 360.129,131.522 352.5,134C 324.816,142.407 296.483,146.574 267.5,146.5C 237.741,146.701 208.741,142.201 180.5,133C 174.749,130.711 169.582,127.545 165,123.5C 165.088,120.358 166.588,117.858 169.5,116C 184.955,108.182 201.288,103.182 218.5,101C 228.303,99.7085 237.969,98.5418 247.5,97.5 Z M 165.5,150.5 C 198.192,162.588 232.025,168.254 267,167.5C 295.653,167.798 323.82,164.298 351.5,157C 359.001,154.946 366.167,152.112 373,148.5C 373.667,157.167 373.667,165.833 373,174.5C 372.64,176.608 371.973,178.608 371,180.5C 358.479,189.122 344.645,194.622 329.5,197C 285.355,204.898 241.355,204.231 197.5,195C 187.826,187.33 177.159,181.497 165.5,177.5C 165.5,168.5 165.5,159.5 165.5,150.5 Z M 111.5,190.5 C 153.756,188.543 186.256,205.21 209,240.5C 229.308,280.191 226.641,318.191 201,354.5C 172.421,387.026 136.921,398.526 94.5,389C 51.8737,375.042 27.3737,345.875 21,301.5C 19.3712,249.234 42.8712,213.734 91.5,195C 98.2585,193.285 104.925,191.785 111.5,190.5 Z M 371.5,205.5 C 373.468,213.433 374.135,221.766 373.5,230.5C 343.14,230.726 313.807,236.226 285.5,247C 279.001,249.834 273.335,253.834 268.5,259C 258.775,259.693 249.108,259.193 239.5,257.5C 235.571,244.809 229.904,232.976 222.5,222C 264.532,226.704 306.199,224.371 347.5,215C 355.946,212.691 363.946,209.524 371.5,205.5 Z M 358.5,252.5 C 385.268,251.675 411.934,252.841 438.5,256C 455.08,258.193 470.746,263.193 485.5,271C 487.167,272.667 488.833,274.333 490.5,276C 486.286,281.122 480.952,284.788 474.5,287C 439.043,298.347 402.709,302.681 365.5,300C 341.373,299.175 318.04,294.508 295.5,286C 290.9,283.785 286.734,280.952 283,277.5C 282.333,276.5 282.333,275.5 283,274.5C 291.136,268.016 300.302,263.516 310.5,261C 326.432,256.957 342.432,254.124 358.5,252.5 Z M 243.5,279.5 C 249.409,280.455 255.409,280.789 261.5,280.5C 261.5,292.167 261.5,303.833 261.5,315.5C 255.439,315.79 249.439,315.457 243.5,314.5C 244.301,302.892 244.301,291.225 243.5,279.5 Z M 488.5,303.5 C 489.827,307.951 490.494,312.784 490.5,318C 490.333,322.833 490.167,327.667 490,332.5C 485.275,337.868 479.442,341.702 472.5,344C 452.748,350.903 432.414,354.903 411.5,356C 375.199,359.094 339.532,355.761 304.5,346C 296.679,343.842 289.845,340.008 284,334.5C 283.168,324.483 283.334,314.483 284.5,304.5C 305.335,313.035 327.002,318.201 349.5,320C 390.4,324.23 430.733,321.23 470.5,311C 476.934,309.275 482.934,306.775 488.5,303.5 Z M 235.5,335.5 C 244.432,336.375 253.432,337.041 262.5,337.5C 262.5,349.167 262.5,360.833 262.5,372.5C 247.314,372.485 232.314,370.985 217.5,368C 225.461,358.245 231.461,347.411 235.5,335.5 Z M 489.5,359.5 C 490.659,369.658 490.825,379.992 490,390.5C 484.933,395.225 479.099,398.725 472.5,401C 444.757,410.194 416.257,414.361 387,413.5C 357.743,414.361 329.243,410.194 301.5,401C 294.95,399.11 289.45,395.61 285,390.5C 284.532,380.471 284.199,370.471 284,360.5C 306.122,370.155 329.289,375.655 353.5,377C 393.777,380.651 433.444,377.318 472.5,367C 478.492,364.999 484.158,362.499 489.5,359.5 Z"/></g>
<g><path style="opacity:0.942" fill="#000000" d="M 118.5,207.5 C 129.013,206.802 134.013,211.802 133.5,222.5C 152.387,229.595 161.22,243.261 160,263.5C 155.532,271.098 149.532,272.431 142,267.5C 140.211,261.443 138.211,255.443 136,249.5C 128.475,241.662 119.975,240.496 110.5,246C 101.065,255.61 101.398,264.943 111.5,274C 113.717,275.275 116.051,276.275 118.5,277C 138.26,277.114 151.76,286.281 159,304.5C 163.387,321.263 159.22,335.429 146.5,347C 142.192,349.988 137.525,352.155 132.5,353.5C 132.888,358.628 132.388,363.628 131,368.5C 124.946,375.137 118.946,375.137 113,368.5C 111.612,363.628 111.112,358.628 111.5,353.5C 93.7946,348.115 84.1279,336.115 82.5,317.5C 82.6954,310.305 86.3621,306.305 93.5,305.5C 96.7813,305.891 99.6146,307.224 102,309.5C 103.652,314.406 104.985,319.406 106,324.5C 111.806,333.145 119.639,335.645 129.5,332C 140.76,323.815 142.093,314.315 133.5,303.5C 131.972,302.139 130.305,300.972 128.5,300C 116.802,299.746 106.135,296.413 96.5,290C 81.7305,275.216 78.8971,258.383 88,239.5C 93.499,230.486 101.332,224.82 111.5,222.5C 109.864,215.445 112.198,210.445 118.5,207.5 Z"/></g>
</svg>
