<?xml version="1.0" encoding="UTF-8"?>
<!DOCTYPE svg PUBLIC "-//W3C//DTD SVG 1.1//EN" "http://www.w3.org/Graphics/SVG/1.1/DTD/svg11.dtd">
<svg xmlns="http://www.w3.org/2000/svg" version="1.1" width="512px" height="512px" style="shape-rendering:geometricPrecision; text-rendering:geometricPrecision; image-rendering:optimizeQuality; fill-rule:evenodd; clip-rule:evenodd" xmlns:xlink="http://www.w3.org/1999/xlink">
<g><path style="opacity:0.993" fill="#000000" d="M 511.5,222.5 C 511.5,235.833 511.5,249.167 511.5,262.5C 501.6,333.547 466.934,389.047 407.5,429C 338.622,471.701 264.622,483.701 185.5,465C 173.71,461.959 162.21,458.126 151,453.5C 124.262,468.114 96.0953,479.28 66.5,487C 47.3703,492.116 28.037,496.282 8.5,499.5C 4.76032,499.079 1.76032,497.412 -0.5,494.5C -0.5,491.5 -0.5,488.5 -0.5,485.5C 5.85559,479.806 11.0223,473.14 15,465.5C 29.4836,434.084 37.4836,401.084 39,366.5C 17.1379,335.114 3.97119,300.447 -0.5,262.5C -0.5,249.167 -0.5,235.833 -0.5,222.5C 7.54755,160.902 35.5475,110.402 83.5,71C 149.078,21.1889 222.745,2.85556 304.5,16C 381.553,30.1244 441.053,69.9578 483,135.5C 498.453,162.689 507.953,191.689 511.5,222.5 Z M 128.5,209.5 C 149.409,207.6 162.909,216.6 169,236.5C 171.062,255.882 162.895,268.715 144.5,275C 123.041,278.184 109.208,269.351 103,248.5C 101.728,228.966 110.228,215.966 128.5,209.5 Z M 248.5,209.5 C 272.001,208.338 285.667,219.338 289.5,242.5C 287.164,262.836 275.831,274.169 255.5,276.5C 235.169,274.169 223.836,262.836 221.5,242.5C 223.642,225.708 232.642,214.708 248.5,209.5 Z M 367.5,209.5 C 394.62,208.454 408.12,221.454 408,248.5C 402.965,267.209 390.798,276.375 371.5,276C 350.208,271.377 340.375,258.21 342,236.5C 345.577,222.759 354.077,213.759 367.5,209.5 Z"/></g>
</svg>
