<?xml version="1.0" encoding="UTF-8"?>
<!DOCTYPE svg PUBLIC "-//W3C//DTD SVG 1.1//EN" "http://www.w3.org/Graphics/SVG/1.1/DTD/svg11.dtd">
<svg xmlns="http://www.w3.org/2000/svg" version="1.1" width="512px" height="512px" style="shape-rendering:geometricPrecision; text-rendering:geometricPrecision; image-rendering:optimizeQuality; fill-rule:evenodd; clip-rule:evenodd" xmlns:xlink="http://www.w3.org/1999/xlink">
<g><path style="opacity:0.974" fill="#000000" d="M 23.5,-0.5 C 28.8333,-0.5 34.1667,-0.5 39.5,-0.5C 44.5184,1.17822 49.185,3.67822 53.5,7C 120.68,74.347 188.014,141.514 255.5,208.5C 322.986,141.514 390.32,74.347 457.5,7C 461.815,3.67822 466.482,1.17822 471.5,-0.5C 476.833,-0.5 482.167,-0.5 487.5,-0.5C 499.833,3.16667 507.833,11.1667 511.5,23.5C 511.5,28.8333 511.5,34.1667 511.5,39.5C 509.822,44.5184 507.322,49.185 504,53.5C 436.653,120.68 369.486,188.014 302.5,255.5C 369.486,322.986 436.653,390.32 504,457.5C 507.322,461.815 509.822,466.482 511.5,471.5C 511.5,476.833 511.5,482.167 511.5,487.5C 507.833,499.833 499.833,507.833 487.5,511.5C 482.167,511.5 476.833,511.5 471.5,511.5C 466.482,509.822 461.815,507.322 457.5,504C 390.32,436.653 322.986,369.486 255.5,302.5C 188.014,369.486 120.68,436.653 53.5,504C 49.185,507.322 44.5184,509.822 39.5,511.5C 34.1667,511.5 28.8333,511.5 23.5,511.5C 11.1667,507.833 3.16667,499.833 -0.5,487.5C -0.5,482.167 -0.5,476.833 -0.5,471.5C 1.17822,466.482 3.67822,461.815 7,457.5C 74.347,390.32 141.514,322.986 208.5,255.5C 141.514,188.014 74.347,120.68 7,53.5C 3.67822,49.185 1.17822,44.5184 -0.5,39.5C -0.5,34.1667 -0.5,28.8333 -0.5,23.5C 3.16667,11.1667 11.1667,3.16667 23.5,-0.5 Z"/></g>
</svg>
