<?xml version="1.0" encoding="UTF-8"?>
<!DOCTYPE svg PUBLIC "-//W3C//DTD SVG 1.1//EN" "http://www.w3.org/Graphics/SVG/1.1/DTD/svg11.dtd">
<svg xmlns="http://www.w3.org/2000/svg" version="1.1" width="512px" height="512px" style="shape-rendering:geometricPrecision; text-rendering:geometricPrecision; image-rendering:optimizeQuality; fill-rule:evenodd; clip-rule:evenodd" xmlns:xlink="http://www.w3.org/1999/xlink">
<g><path style="opacity:0.984" fill="#000000" d="M 59.5,41.5 C 90.5018,41.3334 121.502,41.5 152.5,42C 161.479,43.6475 167.313,48.8142 170,57.5C 170.667,89.8333 170.667,122.167 170,154.5C 167.5,162.333 162.333,167.5 154.5,170C 122.167,170.667 89.8333,170.667 57.5,170C 48.8142,167.313 43.6475,161.479 42,152.5C 41.3333,121.5 41.3333,90.5 42,59.5C 44.0141,49.654 49.8474,43.654 59.5,41.5 Z"/></g>
<g><path style="opacity:0.99" fill="#000000" d="M 208.5,41.5 C 239.835,41.3334 271.168,41.5 302.5,42C 310.477,43.9752 315.977,48.8085 319,56.5C 319.667,89.5 319.667,122.5 319,155.5C 316.742,163.389 311.575,168.222 303.5,170C 271.5,170.667 239.5,170.667 207.5,170C 199.425,168.222 194.258,163.389 192,155.5C 191.333,122.5 191.333,89.5 192,56.5C 195.198,48.7946 200.698,43.7946 208.5,41.5 Z"/></g>
<g><path style="opacity:0.984" fill="#000000" d="M 358.5,41.5 C 389.502,41.3334 420.502,41.5 451.5,42C 461.333,43.8333 467.167,49.6667 469,59.5C 469.667,90.5 469.667,121.5 469,152.5C 467.353,161.479 462.186,167.313 453.5,170C 421.167,170.667 388.833,170.667 356.5,170C 348.667,167.5 343.5,162.333 341,154.5C 340.333,122.167 340.333,89.8333 341,57.5C 343.861,48.8017 349.694,43.4684 358.5,41.5 Z"/></g>
<g><path style="opacity:0.99" fill="#000000" d="M 56.5,191.5 C 89.5017,191.333 122.502,191.5 155.5,192C 163.389,194.258 168.222,199.425 170,207.5C 170.667,239.5 170.667,271.5 170,303.5C 168.222,311.575 163.389,316.742 155.5,319C 122.5,319.667 89.5,319.667 56.5,319C 48.8085,315.977 43.9752,310.477 42,302.5C 41.3333,271.167 41.3333,239.833 42,208.5C 44.1694,200.502 49.0028,194.835 56.5,191.5 Z"/></g>
<g><path style="opacity:0.995" fill="#000000" d="M 205.5,191.5 C 238.835,191.333 272.168,191.5 305.5,192C 312,194.5 316.5,199 319,205.5C 319.667,238.833 319.667,272.167 319,305.5C 316.406,312.428 311.573,316.928 304.5,319C 271.833,319.667 239.167,319.667 206.5,319C 199,316.833 194.167,312 192,304.5C 191.333,271.5 191.333,238.5 192,205.5C 194.687,198.981 199.187,194.314 205.5,191.5 Z"/></g>
<g><path style="opacity:0.99" fill="#000000" d="M 355.5,191.5 C 388.502,191.333 421.502,191.5 454.5,192C 462.192,195.023 467.025,200.523 469,208.5C 469.667,239.833 469.667,271.167 469,302.5C 467.025,310.477 462.192,315.977 454.5,319C 421.5,319.667 388.5,319.667 355.5,319C 347.611,316.742 342.778,311.575 341,303.5C 340.333,271.5 340.333,239.5 341,207.5C 342.947,199.393 347.78,194.06 355.5,191.5 Z"/></g>
<g><path style="opacity:0.984" fill="#000000" d="M 57.5,340.5 C 89.8351,340.333 122.168,340.5 154.5,341C 162.333,343.5 167.5,348.667 170,356.5C 170.667,388.833 170.667,421.167 170,453.5C 167.313,462.186 161.479,467.353 152.5,469C 121.5,469.667 90.5,469.667 59.5,469C 49.6667,467.167 43.8333,461.333 42,451.5C 41.3333,420.5 41.3333,389.5 42,358.5C 43.8391,349.503 49.0058,343.503 57.5,340.5 Z"/></g>
<g><path style="opacity:0.99" fill="#000000" d="M 207.5,340.5 C 239.502,340.333 271.502,340.5 303.5,341C 311.575,342.778 316.742,347.611 319,355.5C 319.667,388.5 319.667,421.5 319,454.5C 315.977,462.192 310.477,467.025 302.5,469C 271.167,469.667 239.833,469.667 208.5,469C 200.523,467.025 195.023,462.192 192,454.5C 191.333,421.5 191.333,388.5 192,355.5C 194.503,347.679 199.67,342.679 207.5,340.5 Z"/></g>
<g><path style="opacity:0.984" fill="#000000" d="M 356.5,340.5 C 388.835,340.333 421.168,340.5 453.5,341C 462.186,343.687 467.353,349.521 469,358.5C 469.667,389.5 469.667,420.5 469,451.5C 467.167,461.333 461.333,467.167 451.5,469C 420.5,469.667 389.5,469.667 358.5,469C 349.521,467.353 343.687,462.186 341,453.5C 340.333,421.167 340.333,388.833 341,356.5C 343.685,348.65 348.852,343.316 356.5,340.5 Z"/></g>
</svg>
