<?xml version="1.0" encoding="UTF-8"?>
<!DOCTYPE svg PUBLIC "-//W3C//DTD SVG 1.1//EN" "http://www.w3.org/Graphics/SVG/1.1/DTD/svg11.dtd">
<svg xmlns="http://www.w3.org/2000/svg" version="1.1" width="512px" height="512px" style="shape-rendering:geometricPrecision; text-rendering:geometricPrecision; image-rendering:optimizeQuality; fill-rule:evenodd; clip-rule:evenodd" xmlns:xlink="http://www.w3.org/1999/xlink">
<g><path style="opacity:0.997" fill="#000000" d="M 105.5,95.5 C 146.835,95.3333 188.168,95.5 229.5,96C 234,97.8333 237.167,101 239,105.5C 239.667,146.833 239.667,188.167 239,229.5C 237.167,234 234,237.167 229.5,239C 188.167,239.667 146.833,239.667 105.5,239C 101,237.167 97.8333,234 96,229.5C 95.3333,188.167 95.3333,146.833 96,105.5C 98.0223,100.98 101.189,97.6467 105.5,95.5 Z"/></g>
<g><path style="opacity:0.997" fill="#000000" d="M 281.5,95.5 C 322.835,95.3333 364.168,95.5 405.5,96C 410,97.8333 413.167,101 415,105.5C 415.667,146.833 415.667,188.167 415,229.5C 413.167,234 410,237.167 405.5,239C 364.167,239.667 322.833,239.667 281.5,239C 277,237.167 273.833,234 272,229.5C 271.333,188.167 271.333,146.833 272,105.5C 274.022,100.98 277.189,97.6467 281.5,95.5 Z"/></g>
<g><path style="opacity:0.997" fill="#000000" d="M 105.5,271.5 C 146.835,271.333 188.168,271.5 229.5,272C 234,273.833 237.167,277 239,281.5C 239.667,322.833 239.667,364.167 239,405.5C 237.167,410 234,413.167 229.5,415C 188.167,415.667 146.833,415.667 105.5,415C 101,413.167 97.8333,410 96,405.5C 95.3333,364.167 95.3333,322.833 96,281.5C 98.0223,276.98 101.189,273.647 105.5,271.5 Z"/></g>
<g><path style="opacity:0.997" fill="#000000" d="M 281.5,271.5 C 322.835,271.333 364.168,271.5 405.5,272C 410,273.833 413.167,277 415,281.5C 415.667,322.833 415.667,364.167 415,405.5C 413.167,410 410,413.167 405.5,415C 364.167,415.667 322.833,415.667 281.5,415C 277,413.167 273.833,410 272,405.5C 271.333,364.167 271.333,322.833 272,281.5C 274.022,276.98 277.189,273.647 281.5,271.5 Z"/></g>
</svg>
