<?xml version="1.0" encoding="UTF-8"?>
<!DOCTYPE svg PUBLIC "-//W3C//DTD SVG 1.1//EN" "http://www.w3.org/Graphics/SVG/1.1/DTD/svg11.dtd">
<svg xmlns="http://www.w3.org/2000/svg" version="1.1" width="512px" height="512px" style="shape-rendering:geometricPrecision; text-rendering:geometricPrecision; image-rendering:optimizeQuality; fill-rule:evenodd; clip-rule:evenodd" xmlns:xlink="http://www.w3.org/1999/xlink">
<g><path style="opacity:0.989" fill="#000000" d="M 236.5,-0.5 C 249.167,-0.5 261.833,-0.5 274.5,-0.5C 345.628,9.79623 396.461,47.4629 427,112.5C 441.452,148.502 444.786,185.502 437,223.5C 426.952,263.307 411.619,300.974 391,336.5C 358.329,392.499 320.995,445.166 279,494.5C 273.933,501.069 268.1,506.735 261.5,511.5C 257.5,511.5 253.5,511.5 249.5,511.5C 242.9,506.735 237.067,501.069 232,494.5C 190.005,445.166 152.671,392.499 120,336.5C 99.3808,300.974 84.0475,263.307 74,223.5C 61.0576,150.598 82.2243,89.7649 137.5,41C 166.559,17.8048 199.559,3.97146 236.5,-0.5 Z M 243.5,92.5 C 284.455,89.8918 315.621,105.892 337,140.5C 356.527,182.861 350.027,220.694 317.5,254C 284.467,280.703 248.8,284.703 210.5,266C 173.237,242.291 158.07,208.458 165,164.5C 176.392,124.27 202.559,100.27 243.5,92.5 Z"/></g>
</svg>
