<?xml version="1.0" encoding="utf-8"?>
<!-- Generator: Adobe Illustrator 24.3.0, SVG Export Plug-In . SVG Version: 6.00 Build 0)  -->
<svg version="1.1" id="Слой_1" xmlns="http://www.w3.org/2000/svg" xmlns:xlink="http://www.w3.org/1999/xlink" x="0px" y="0px"
	 viewBox="0 0 512 512" style="enable-background:new 0 0 512 512;" xml:space="preserve">
<style type="text/css">
	.st0{opacity:0.927;fill-rule:evenodd;clip-rule:evenodd;enable-background:new    ;}
	.st1{opacity:0.92;fill-rule:evenodd;clip-rule:evenodd;enable-background:new    ;}
</style>
<path class="st0" d="M481,381.5c-40.1-41.1-80.6-82-121.5-122.5c-5,2.8-9.3,6.6-13,11.5c1.8,2.3,3.8,4.5,6,6.5
	c-15.5,15.9-31.4,31.4-47.5,46.5c-0.7,1-0.7,2,0,3c3.7,3.7,7.3,7.3,11,11c16.6-15.6,33-31.6,49-48c4.7,4.5,9.2,9.2,13.5,14
	c-7.7,8.2-15.5,16.2-23.5,24c2.8,5,6.6,9.3,11.5,13c8.3-8,16.7-16,25-24c5,4.3,9.7,9,14,14c-8,8.3-16,16.7-24,25
	c3.7,4.9,8,8.7,13,11.5c7.8-8,15.8-15.8,24-23.5c4.8,4.3,9.5,8.8,14,13.5c-15.8,15.8-31.7,31.7-47.5,47.5c-0.7,0.7-0.7,1.3,0,2
	c3.5,3.5,7,7,10.5,10.5c0.7,0.7,1.3,0.7,2,0c15.5-15.7,31.2-31.2,47-46.5c5.7,5,11,10.3,16,16c-24.7,25.5-49.8,50.5-75.5,75
	c-43.5-43.5-87-87-130.5-130.5c67.2-66.5,134.3-133,201.5-199.5c8.3-10.3,13.6-21.9,16-35c1.2-40.4-18.3-58.3-58.5-53.5
	c-13.8,3.6-25.8,10.2-36,20c-35.2,35.7-70.9,70.9-107,105.5C223.7,122.2,177,75.7,130.5,29c-3-0.5-6-0.7-9-0.5
	c-30.6,30.1-61.1,60.4-91.5,91c-1.9,3.4-1.9,6.7,0,10c41.1,42.1,82.6,84,124.5,125.5c1,0.7,2,0.7,3,0c3.2-3.2,6.3-6.3,9.5-9.5
	c0.7-1,0.7-2,0-3c-39.4-38.9-78.2-78.2-116.5-118C75.2,99,100.3,74,126,49.5c4.3,4.2,8.5,8.5,12.5,13c-7.8,8.3-15.8,16.5-24,24.5
	c3.7,3.7,7.3,7.3,11,11c1,0.7,2,0.7,3,0c7.5-7.7,15.2-15.2,23-22.5c4.8,4.3,9.5,8.8,14,13.5c-8.2,8-16.2,16.2-24,24.5
	c3.7,4.9,8,8.7,13,11.5c7.8-7.8,15.7-15.7,23.5-23.5c4.8,4.8,9.7,9.7,14.5,14.5c-15.5,15.9-31.4,31.4-47.5,46.5c-0.7,1-0.7,2,0,3
	c3.7,3.7,7.3,7.3,11,11c16.6-15.6,33-31.6,49-48c4.7,4.5,9.2,9.2,13.5,14c-7.7,8.2-15.5,16.2-23.5,24c2.8,5,6.6,9.3,11.5,13
	c8.3-8,16.7-16,25-24c9.2,8.3,17.8,17.2,26,26.5C197.3,241.5,137.2,301,77,360.5c-11.9,31.9-23.5,63.9-35,96
	c-2.2,9.2,1.3,13.3,10.5,12.5c32-11.3,64-22.7,96-34c31.2-30.5,62.3-61,93.5-91.5c46.2,46.2,92.3,92.3,138.5,138.5c3,0.7,6,0.7,9,0
	c30.8-29.8,61.3-60,91.5-90.5C482.9,388.1,482.9,384.8,481,381.5z M424.5,58.5c25.9,3.2,35.4,17.5,28.5,43
	c-4.7,11.5-11.8,21.2-21.5,29c-16.2-15.7-32.2-31.5-48-47.5C394.1,69.5,407.8,61.3,424.5,58.5z M65,446.5c6.8-21,14-42,21.5-63
	c14.3,12.6,27.9,25.9,41,40C106.7,431.3,85.9,438.9,65,446.5z M145.5,414c-0.7,0.7-1.3,0.7-2,0c-15.5-15.5-31-31-46.5-46.5
	c-0.7-0.7-0.7-1.3,0-2C188.3,276,279.2,186,369.5,95.5c16.6,15.1,32.7,30.7,48.5,47c0.7,0.7,0.7,1.3,0,2
	C326.9,234,236,323.8,145.5,414z"/>
<g>
	<path class="st1" d="M361.5,137.5c1.1-0.1,2.1,0,3,0.5c3.2,3.2,6.3,6.3,9.5,9.5c0.7,1,0.7,2,0,3c-71.9,72.2-144,144-216.5,215.5
		c-0.7,0.7-1.3,0.7-2,0c-3.5-3.5-7-7-10.5-10.5c-0.7-0.7-0.7-1.3,0-2C217.7,282,289.8,210,361.5,137.5z"/>
</g>
</svg>
