<?xml version="1.0" encoding="utf-8"?>
<!-- Generator: Adobe Illustrator 24.3.0, SVG Export Plug-In . SVG Version: 6.00 Build 0)  -->
<svg version="1.1" id="Слой_1" xmlns="http://www.w3.org/2000/svg" xmlns:xlink="http://www.w3.org/1999/xlink" x="0px" y="0px"
	 viewBox="0 0 512 512" style="enable-background:new 0 0 512 512;" xml:space="preserve">
<style type="text/css">
	.st0{opacity:0.914;fill-rule:evenodd;clip-rule:evenodd;enable-background:new    ;}
	.st1{opacity:0.922;fill-rule:evenodd;clip-rule:evenodd;enable-background:new    ;}
	.st2{opacity:0.924;fill-rule:evenodd;clip-rule:evenodd;enable-background:new    ;}
	.st3{opacity:0.93;fill-rule:evenodd;clip-rule:evenodd;enable-background:new    ;}
	.st4{opacity:0.921;fill-rule:evenodd;clip-rule:evenodd;enable-background:new    ;}
	.st5{opacity:0.934;fill-rule:evenodd;clip-rule:evenodd;enable-background:new    ;}
	.st6{opacity:0.932;fill-rule:evenodd;clip-rule:evenodd;enable-background:new    ;}
</style>
<path class="st0" d="M465.5,20c-39.1-12.3-70.5-1.8-94,31.5c-22.7-5.4-45.6-10.4-68.5-15c-4.9,0.4-9.4,1.9-13.5,4.5
	C194.7,134.8,100.2,229,6,323.5c-2.7,3.4-4.9,7.1-6.5,11c0,4.7,0,9.3,0,14c1.1,2.2,2.3,4.6,3.5,7c5.8,5.8,11.7,11.7,17.5,17.5
	c8.6,1.7,12.4-1.8,11.5-10.5c-5-6-10.3-11.6-16-17c-0.7-2.7-0.7-5.3,0-8C110.5,243,205,148.5,299.5,54c1.3-0.3,2.4-0.8,3.5-1.5
	c35.4,8,70.9,15.8,106.5,23.5c3,0.2,5.5,1.4,7.5,3.5c5.9,22.8,11.4,45.6,16.5,68.5c-11.4-0.5-21.8-4.1-31-11c3-3.6,4.8-7.8,5.5-12.5
	c0.8-25.2-11.4-36.7-36.5-34.5c-18.7,6.3-25.9,19.1-21.5,38.5c7.9,17,21,23.5,39.5,19.5c14,10.3,29.6,16.1,47,17.5
	c2.9,9.5,4.8,19.2,5.5,29c-10.6,11.6-21.6,23-33,34c-4.6,10-1.4,14.5,9.5,13.5c11.8-11.8,23.7-23.7,35.5-35.5c1.9-2.7,3.2-5.7,4-9
	c-0.1-11.8-2-23.3-5.5-34.5c32.2-8.7,51.8-29.2,59-61.5c0-8,0-16,0-24C506.3,50.3,491,31.2,465.5,20z M392,122.5
	c-0.4,1.5-1.3,2-2.5,1.5c-2-4.3-5-7.6-9-10c-8.2-0.5-11.4,3.4-9.5,11.5c1.4,1.9,2.6,3.9,3.5,6c-7.5-2.7-10.7-8-9.5-16
	c4.9-10.5,12.4-13,22.5-7.5C391.6,112,393.1,116.8,392,122.5z M451.5,146.5c-0.9-0.1-1.8-0.4-2.5-1c-4.7-21.3-9.3-42.7-14-64
	c-1.5-9.4-6.6-15.9-15.5-19.5c-10-2.5-20-4.8-30-7c10.3-13.8,24-22,41-24.5c34.4-0.4,55.9,15.9,64.5,49
	C498.1,113.3,483.6,135.7,451.5,146.5z"/>
<g>
	<path class="st1" d="M306.5,139.5c23.2-0.7,39.4,9.7,48.5,31c3.9,11.3,2.5,22-4,32c-5.8,5.8-11.7,11.7-17.5,17.5
		c-2.7,0.7-5.3,0.7-8,0c-16.2-16.2-32.4-32.4-48.5-48.5c-0.8-3.5-0.5-6.8,1-10c4.8-4.8,9.7-9.7,14.5-14.5
		C296.8,143.7,301.5,141.2,306.5,139.5z M309.5,155.5c-5.3,2.8-10,6.6-14,11.5c11.2,11.3,22.5,22.5,34,33.5
		c6.6-4.1,10.6-9.9,12-17.5C337.7,165.7,327,156.5,309.5,155.5z"/>
</g>
<g>
	<path class="st2" d="M259.5,178.5c2.5-0.2,4.8,0.3,7,1.5c16.5,15.5,32.6,31.3,48.5,47.5c2.9,7.6,0.4,12.3-7.5,14
		c-18.1-3.4-36.1-6.5-54-9.5c9.8,9.8,19.7,19.7,29.5,29.5c2.4,4.5,1.5,8.3-2.5,11.5c-3.5,0.8-6.8,0.5-10-1
		c-16.5-16.2-32.7-32.7-48.5-49.5c-1.4-7.1,1.4-10.7,8.5-11c18,3.4,36,6.2,54,8.5c-9.8-8.8-19.3-18-28.5-27.5
		C252.5,186.7,253.7,182,259.5,178.5z"/>
</g>
<path class="st3" d="M258.5,277c-20-9-40-18-60-27c-2.9-1.1-5.9-1.6-9-1.5c-5.6,3-7.5,7.7-5.5,14c9.8,21.7,19.7,43.3,29.5,65
	c1.7,1.5,3.7,2.5,6,3c5.1-0.4,7.7-3.1,8-8c-1.2-5.2-2.7-10.2-4.5-15c6.2-6.2,12.3-12.3,18.5-18.5c1.3-0.7,2.7-0.7,4,0
	c3.6,2.2,7.4,3.7,11.5,4.5c1.6-0.1,3.1-0.6,4.5-1.5C266.2,285.9,265.2,280.9,258.5,277z M215.5,291.5c-3.5-6.4-6.5-13.1-9-20
	c6.8,2.9,13.5,6.1,20,9.5C223,284.7,219.3,288.2,215.5,291.5z"/>
<g>
	<path class="st4" d="M386.5,251.5c8.7-0.5,12.2,3.5,10.5,12C320.8,339.7,244.7,415.8,168.5,492c-9.7,6-19.3,6-29,0
		c-32.5-32.5-65-65-97.5-97.5c-2.1-10.5,2.1-14,12.5-10.5c31.7,31.7,63.3,63.3,95,95c2.2,1.4,4.5,1.7,7,1
		C233.4,404,310,327.8,386.5,251.5z"/>
</g>
<path class="st5" d="M201.5,333c-8.4-0.2-16.7-1-25-2.5c1.9-3.8,2.9-7.8,3-12c-2.1-17.7-12.1-26.1-30-25c-3.4,1.2-6.7,2.7-10,4.5
	c-5.8,5.8-11.7,11.7-17.5,17.5c-0.7,2.7-0.7,5.3,0,8c16.5,16.5,33,33,49.5,49.5c9.2,2.5,13-1,11.5-10.5c-4.1-5.1-8.6-10-13.5-14.5
	c12,0.1,24,0.1,36,0C211.6,341,210.3,336,201.5,333z M162,323.5c-2.7,2.9-5.5,5.5-8.5,8c-4.3-3.7-8.3-7.7-12-12
	c3.1-4.1,6.8-7.5,11-10C161.8,310,165,314.7,162,323.5z"/>
<g>
	<path class="st6" d="M102.5,340.5c10-0.6,17.8,3,23.5,11c1.7,2.4,2.5,5.1,2.5,8c20.9,0.4,30.4,11.1,28.5,32c-1.1,3.1-2.4,6.1-4,9
		c-6.8,6.8-13.7,13.7-20.5,20.5c-3.1,0.8-6.1,0.5-9-1c-16.2-16.2-32.3-32.3-48.5-48.5c-1.9-3-1.9-6,0-9c5.8-5.8,11.7-11.7,17.5-17.5
		C95.7,343,99,341.5,102.5,340.5z M104.5,356.5c8.1,1.5,10.2,5.8,6.5,13c-2.3,2.5-4.8,4.9-7.5,7c-3.5-3-6.8-6.2-10-9.5
		C97.1,363.3,100.7,359.8,104.5,356.5z M128.5,375.5c10.9-0.3,14.7,4.7,11.5,15c-3.7,3.8-7.5,7.5-11.5,11c-4.7-4-9-8.3-13-13
		C119.5,383.8,123.9,379.5,128.5,375.5z"/>
</g>
</svg>
