<?xml version="1.0" encoding="utf-8"?>
<!-- Generator: Adobe Illustrator 24.3.0, SVG Export Plug-In . SVG Version: 6.00 Build 0)  -->
<svg version="1.1" id="Слой_1" xmlns="http://www.w3.org/2000/svg" xmlns:xlink="http://www.w3.org/1999/xlink" x="0px" y="0px"
	 viewBox="0 0 512 512" style="enable-background:new 0 0 512 512;" xml:space="preserve">
<style type="text/css">
	.st0{opacity:0.966;fill-rule:evenodd;clip-rule:evenodd;enable-background:new    ;}
	.st1{opacity:0.952;fill-rule:evenodd;clip-rule:evenodd;enable-background:new    ;}
	.st2{opacity:0.957;fill-rule:evenodd;clip-rule:evenodd;enable-background:new    ;}
</style>
<path class="st0" d="M463.5,100c-30-0.5-60-0.7-90-0.5c-1.5-25.6-14.8-40.8-40-45.5c-52-0.7-104-0.7-156,0c-4.5,0.3-8.8,1.3-13,3
	c-17.7,8.6-27,22.7-28,42.5c-29.7-0.2-59.3,0-89,0.5c-25.4,5.9-41.4,21.4-48,46.5c0,88,0,176,0,264c6.8,25.9,23.5,41.4,50,46.5
	c68.7,0.2,137.3,0.3,206,0.5c70.7,0.2,141.4-0.3,212-1.5c23.8-7,38.5-22.5,44-46.5c0-87.7,0-175.3,0-263
	C504.9,121.4,488.9,105.9,463.5,100z M485,401.5c-1.7,15.1-9.9,24.6-24.5,28.5c-136.7,0.7-273.3,0.7-410,0
	c-14.6-3.9-22.8-13.4-24.5-28.5c-0.7-82-0.7-164,0-246c1.6-14.6,9.4-24.1,23.5-28.5c35.7,0,71.4-0.7,107-2c3.6-1.9,6.1-4.7,7.5-8.5
	c0.1-8.7,0.8-17.4,2-26c3.4-6.3,8.6-9.9,15.5-11c49.7-0.2,99.3,0,149,0.5c10.4,1.8,15.9,7.9,16.5,18.5c0.3,6.3,0.7,12.7,1,19
	c1.5,3.5,4,6,7.5,7.5c35.3,1.3,70.6,2,106,2c12.5,3.2,20.3,11,23.5,23.5C485.7,234.2,485.7,317.8,485,401.5z"/>
<g>
	<path class="st1" d="M425.5,157.5c16.7-0.2,26,8,28,24.5c-3.2,18.8-14.2,26.4-33,23c-16.1-8.7-20-21.2-11.5-37.5
		C413.4,162.2,418.9,158.9,425.5,157.5z"/>
</g>
<g>
	<path class="st2" d="M241.5,158.5c51.5-3.1,91,16.9,118.5,60c20.7,40,20.7,80,0,120c-26.9,42.7-65.7,62.5-116.5,59.5
		c-50.8-7-85-34.5-102.5-82.5c-14-52.2-0.9-96,39.5-131.5C198.7,170.3,219.1,161.8,241.5,158.5z M253.5,185.5
		c-46.2,4-75.7,28.4-88.5,73c-7.5,43.2,7,76.7,43.5,100.5c37.6,19.2,73.3,16.2,107-9c31.5-29.4,40.3-64.6,26.5-105.5
		C324.6,207,295.1,187.4,253.5,185.5z"/>
</g>
</svg>
