<?xml version="1.0" encoding="UTF-8"?>
<!DOCTYPE svg PUBLIC "-//W3C//DTD SVG 1.1//EN" "http://www.w3.org/Graphics/SVG/1.1/DTD/svg11.dtd">
<svg xmlns="http://www.w3.org/2000/svg" version="1.1" width="512px" height="512px" style="shape-rendering:geometricPrecision; text-rendering:geometricPrecision; image-rendering:optimizeQuality; fill-rule:evenodd; clip-rule:evenodd" xmlns:xlink="http://www.w3.org/1999/xlink">
<g><path style="opacity:0.93" fill="#000000" d="M 242.5,35.5 C 296.434,32.3701 334.934,55.0368 358,103.5C 361.594,113.208 363.927,123.208 365,133.5C 365.5,149.83 365.667,166.163 365.5,182.5C 374.173,182.334 382.84,182.5 391.5,183C 404.756,184.921 413.923,192.088 419,204.5C 441,271.833 463,339.167 485,406.5C 492.542,433.893 484.375,455.06 460.5,470C 455.356,472.27 450.022,473.937 444.5,475C 318.833,475.667 193.167,475.667 67.5,475C 39.7869,469.458 25.1202,452.625 23.5,424.5C 23.2738,418.348 24.1072,412.348 26,406.5C 48.1319,338.438 70.4652,270.438 93,202.5C 98.1814,190.997 107.015,184.497 119.5,183C 128.16,182.5 136.827,182.334 145.5,182.5C 145.126,163.469 145.626,144.469 147,125.5C 159.04,74.2884 190.873,44.2884 242.5,35.5 Z M 250.5,50.5 C 301.19,51.4079 333.69,76.0746 348,124.5C 349.422,143.793 349.922,163.126 349.5,182.5C 343.5,182.5 337.5,182.5 331.5,182.5C 331.904,166.457 331.404,150.457 330,134.5C 321.54,101.174 300.373,81.3408 266.5,75C 222.206,72.2242 193.706,92.0576 181,134.5C 179.615,150.461 179.115,166.461 179.5,182.5C 173.5,182.5 167.5,182.5 161.5,182.5C 161.079,163.459 161.579,144.459 163,125.5C 171.178,90.3212 192.344,66.8212 226.5,55C 234.512,52.7624 242.512,51.2624 250.5,50.5 Z M 250.5,89.5 C 284.062,90.0243 305.562,106.358 315,138.5C 316.351,153.13 316.851,167.797 316.5,182.5C 275.833,182.5 235.167,182.5 194.5,182.5C 194.177,168.133 194.677,153.799 196,139.5C 203.222,110.773 221.389,94.1066 250.5,89.5 Z M 118.5,198.5 C 209.834,198.333 301.167,198.5 392.5,199C 396.24,200.29 399.407,202.457 402,205.5C 407.096,218.454 411.596,231.621 415.5,245C 400.347,313.987 358.681,357.82 290.5,376.5C 291.485,362.322 286.818,350.488 276.5,341C 263.058,332.723 249.391,332.39 235.5,340C 224.239,349.377 219.073,361.544 220,376.5C 152.112,358.446 110.612,315.112 95.5,246.5C 98.8674,234.033 102.701,221.7 107,209.5C 109.437,204.226 113.271,200.56 118.5,198.5 Z M 85.5,273.5 C 108.687,337.181 153.353,376.681 219.5,392C 219.664,402.825 222.831,412.658 229,421.5C 247.596,437.894 265.596,437.227 283,419.5C 287.956,411.243 290.456,402.243 290.5,392.5C 356.499,376.663 401.332,336.997 425,273.5C 440.132,320.562 455.465,367.562 471,414.5C 474.992,435.018 467.492,449.518 448.5,458C 444.886,458.945 441.219,459.612 437.5,460C 316.167,460.667 194.833,460.667 73.5,460C 50.1895,456.539 38.6895,443.039 39,419.5C 54.6057,370.85 70.1057,322.184 85.5,273.5 Z M 251.5,349.5 C 264.869,348.929 272.369,355.262 274,368.5C 274.667,378.833 274.667,389.167 274,399.5C 272.541,410.625 266.208,416.625 255,417.5C 245.674,416.509 239.674,411.509 237,402.5C 236.333,389.833 236.333,377.167 237,364.5C 239.351,356.984 244.184,351.984 251.5,349.5 Z"/></g>
</svg>
