<?xml version="1.0" encoding="utf-8"?>
<!-- Generator: Adobe Illustrator 24.3.0, SVG Export Plug-In . SVG Version: 6.00 Build 0)  -->
<svg version="1.1" id="Слой_1" xmlns="http://www.w3.org/2000/svg" xmlns:xlink="http://www.w3.org/1999/xlink" x="0px" y="0px"
	 viewBox="0 0 512 512" style="enable-background:new 0 0 512 512;" xml:space="preserve">
<style type="text/css">
	.st0{opacity:0.931;fill-rule:evenodd;clip-rule:evenodd;enable-background:new    ;}
	.st1{opacity:0.903;fill-rule:evenodd;clip-rule:evenodd;enable-background:new    ;}
</style>
<path class="st0" d="M483,261.5c-0.7-4-0.7-8,0-12c5.7-15.7,11.3-31.3,17-47c3.6-15.5,0.6-29.5-9-42c-14.9-11.6-30.4-22.4-46.5-32.5
	c-4.5-3.5-7.7-8-9.5-13.5c-4.1-15.4-8.5-30.7-13-46c-6.8-15.7-18.6-25.2-35.5-28.5c-17-0.3-34,0.2-51,1.5c-4.1-0.2-8.1-1-12-2.5
	c-14.6-9.9-28.6-20.6-42-32c-5.4-3.4-11-5.9-17-7.5c-6,0-12,0-18,0c-6,1.6-11.6,4.1-17,7.5c-11.8,9.1-23.5,18.4-35,28
	c-5.7,4.1-12,6.2-19,6.5c-13.5-0.8-27-1.5-40.5-2c-21.8-0.5-37.2,9.2-46,29c-4.5,15.3-8.9,30.6-13,46c-1.8,5.5-5,10-9.5,13.5
	c-14,9.3-28,18.7-42,28C11.4,168.9,6.9,184.4,11,202.5c5.7,15.7,11.3,31.3,17,47c0.7,4,0.7,8,0,12c-5.7,15.7-11.3,31.3-17,47
	c-3.6,15.5-0.6,29.5,9,42c14.9,11.6,30.4,22.4,46.5,32.5c4.5,3.5,7.7,8,9.5,13.5c4.1,15.4,8.5,30.7,13,46
	c6.8,15.7,18.6,25.2,35.5,28.5c17.2,0.3,34.4-0.2,51.5-1.5c4,0.3,7.8,1.1,11.5,2.5c14.6,9.9,28.6,20.6,42,32c5.4,3.4,11,5.9,17,7.5
	c6,0,12,0,18,0c6-1.6,11.6-4.1,17-7.5c11.8-9.1,23.5-18.4,35-28c5.5-4,11.7-6.1,18.5-6.5c13.7,0.8,27.3,1.5,41,2
	c21.9,0.5,37.2-9.2,46-29c4.5-15.3,8.9-30.6,13-46c1.8-5.5,5-10,9.5-13.5c14-9.3,28-18.7,42-28c13.1-12.9,17.6-28.4,13.5-46.5
	C494.3,292.8,488.7,277.2,483,261.5z M472.5,344c-12.7,8.3-25.3,16.7-38,25c-6.3,5-11.2,11.2-14.5,18.5c-4.8,16.3-9.5,32.6-14,49
	c-4.1,9.1-10.9,14.9-20.5,17.5c-16.8,0.3-33.7-0.2-50.5-1.5c-10.6,0-20.1,3.2-28.5,9.5c-11.8,9.1-23.5,18.4-35,28
	c-5,2.9-10.3,4.8-16,5.5c-5.7-0.7-11-2.6-16-5.5c-11.5-9.6-23.2-18.9-35-28c-8.2-6.2-17.6-9.4-28-9.5c-17,1.3-34,1.8-51,1.5
	c-9.6-2.6-16.4-8.4-20.5-17.5c-4.2-14.3-8.2-28.6-12-43c-2.9-9.9-8.4-18.1-16.5-24.5c-12.7-8.3-25.3-16.7-38-25
	c-10.8-8.5-14.3-19.3-10.5-32.5c5.5-14.3,10.9-28.6,16-43c2-8.7,2-17.3,0-26c-6-15.6-11.6-31.2-17-47c-1.9-11.8,2-21.3,11.5-28.5
	c12.7-8.3,25.3-16.7,38-25c6.3-5,11.2-11.2,14.5-18.5c4.8-16.3,9.5-32.6,14-49c4.1-9.1,10.9-14.9,20.5-17.5
	c16.9-0.3,33.7,0.2,50.5,1.5c10.6,0,20.1-3.2,28.5-9.5c11.8-9.1,23.5-18.4,35-28c4.8-2.8,9.8-4.6,15-5.5c6.1,0.5,11.7,2.4,17,5.5
	c11.5,9.6,23.2,18.9,35,28c8.4,6.3,17.9,9.5,28.5,9.5c16.8-1.3,33.7-1.8,50.5-1.5c9.6,2.6,16.4,8.4,20.5,17.5
	c4.2,14.3,8.2,28.6,12,43c2.9,9.9,8.4,18.1,16.5,24.5c12.7,8.3,25.3,16.7,38,25c10.8,8.5,14.3,19.3,10.5,32.5
	c-5.5,14.3-10.9,28.6-16,43c-2,8.7-2,17.3,0,26c6,15.6,11.6,31.2,17,47C485.9,327.3,482,336.8,472.5,344z"/>
<g>
	<path class="st0" d="M177.5,155.5c27.8-0.4,44.3,13,49.5,40c1,16.8-5.2,30.3-18.5,40.5c-24.4,13-45.2,8.8-62.5-12.5
		c-9.2-17.4-8.5-34.4,2-51C155.8,163.1,165.7,157.5,177.5,155.5z M178.5,172.5c-11.2,2.7-18.4,9.7-21.5,21
		c-1.4,22.3,9.1,33.1,31.5,32.5c14.9-4.2,22-14.1,21.5-29.5C206.3,179.7,195.8,171.7,178.5,172.5z"/>
</g>
<g>
	<path class="st1" d="M344.5,155.5c9.4,0.4,12.6,5.1,9.5,14C292.5,231,231,292.5,169.5,354c-11.2,2.8-15.4-1.4-12.5-12.5
		C219.1,278.9,281.6,216.9,344.5,155.5z"/>
</g>
<g>
	<path class="st0" d="M321.5,267.5c23.9-1.6,40.1,8.8,48.5,31c5.3,27.2-4.8,45.7-30.5,55.5c-27.6,4.6-45.8-6.2-54.5-32.5
		C281.5,292.7,293.7,274.7,321.5,267.5z M322.5,284.5c-9.8,3-16.7,9.3-20.5,19c-3.1,17.9,4,29.4,21.5,34.5
		c15.6,1.1,25.7-5.7,30.5-20.5C355.3,295.3,344.8,284.3,322.5,284.5z"/>
</g>
</svg>
