<?xml version="1.0" encoding="utf-8"?>
<!-- Generator: Adobe Illustrator 24.3.0, SVG Export Plug-In . SVG Version: 6.00 Build 0)  -->
<svg version="1.1" id="Слой_1" xmlns="http://www.w3.org/2000/svg" xmlns:xlink="http://www.w3.org/1999/xlink" x="0px" y="0px"
	 viewBox="0 0 512 512" style="enable-background:new 0 0 512 512;" xml:space="preserve">
<style type="text/css">
	.st0{opacity:0.95;fill-rule:evenodd;clip-rule:evenodd;enable-background:new    ;}
	.st1{opacity:0.884;fill-rule:evenodd;clip-rule:evenodd;enable-background:new    ;}
	.st2{opacity:0.938;fill-rule:evenodd;clip-rule:evenodd;enable-background:new    ;}
	.st3{opacity:0.93;fill-rule:evenodd;clip-rule:evenodd;enable-background:new    ;}
	.st4{opacity:0.958;fill-rule:evenodd;clip-rule:evenodd;enable-background:new    ;}
</style>
<path class="st0" d="M503,331.5c-0.5-1.8-1.7-3-3.5-3.5c-17.3-0.5-34.7-0.7-52-0.5c0.2-36,0-72-0.5-108
	c-19-27.6-38.2-55.1-57.5-82.5c-4.3-2.1-8.4-1.9-12.5,0.5c-18.7,26.7-37.3,53.3-56,80c-1.3,17.9-2,35.9-2,54
	c-11.8-14.5-26-26-42.5-34.5c4.2-4.9,8-10.1,11.5-15.5c16.6-31.7,20.1-64.9,10.5-99.5c15.5-9.2,25-22.7,28.5-40.5
	c3.2-29.1-8.3-49.9-34.5-62.5c-30.9-9.4-54.9-0.5-72,26.5c-14.6-4.6-29.6-6.6-45-6c-15.4-0.6-30.4,1.4-45,6
	c-14-23.2-34.7-33.2-62-30c-20.5,5-34.6,17.3-42.5,37c-7.6,29.7,1.2,53,26.5,70c-11.9,41.6-4.9,79.6,21,114
	c-41.4,23.3-63.4,58.8-66,106.5c0.5,22,10.8,37.5,31,46.5c-3.1,6.7-5.2,13.7-6.5,21c-4.5,32.9,6.7,58.7,33.5,77.5
	c30.1,14.1,56.3,8.9,78.5-15.5c21,9.3,42,9.3,63,0c8.1,9.2,18,16,29.5,20.5c35.4,7.8,61.1-4.5,77-37c62-0.3,124-0.7,186-1
	c1.8-0.5,3-1.7,3.5-3.5C503.7,411.5,503.7,371.5,503,331.5z M382.5,159.5c1-0.1,1.8,0.2,2.5,1c12.7,17.9,25.2,35.9,37.5,54
	c-26,1.3-52,1.3-78,0C357.2,196.1,369.9,177.8,382.5,159.5z M335.5,231.5c32,0,64,0,96,0c0,32,0,64,0,96c-29.7,0.2-59.3,0-89-0.5
	c-1.6-8-3.8-15.8-6.5-23.5C335.5,279.5,335.3,255.5,335.5,231.5z M311,290.5c11,18.5,16,38.5,15,60c-3.2,13.2-11.4,20.7-24.5,22.5
	c-9.5-11.8-21.9-18.9-37-21.5c-1.8-30.7-11.8-58.2-30-82.5c6-3.3,12-6.7,18-10c3.6-2.6,6.9-5.4,10-8.5
	C282.9,258.4,299.1,271.7,311,290.5z M270.5,31.5c24.4,2.4,37.7,15.7,40,40c-0.1,14.6-6.3,26-18.5,34c-12-24.2-30.2-42.2-54.5-54
	C245.3,39.4,256.3,32.8,270.5,31.5z M46,50.5c8-11.4,18.8-17.7,32.5-19c15.4,0.7,27,7.5,35,20.5C89.1,63.4,70.9,81.3,59,105.5
	C39.4,90.7,35.1,72.4,46,50.5z M63.5,159.5c3-53.5,30.3-87,82-100.5c9.8-1.6,19.4-2.8,29-3.5c31.9-0.5,59.5,9.8,83,31
	c22.9,24.5,32.4,53.5,28.5,87c-8.7,49-37.5,78.2-86.5,87.5c-32.2,5.5-62.6,0.2-91-16C79.2,224.3,64.2,195.8,63.5,159.5z M24.5,343
	c2.8-42.2,22.8-73,60-92.5c1.8,0,3.5,0.5,5,1.5c8.2,6.9,17.2,12.6,27,17c-18,24.4-28,51.9-30,82.5c-15.8,2.9-28.6,10.6-38.5,23
	C32.8,369.5,24.9,359,24.5,343z M121.5,470c-27.7,15.4-49.8,9.6-66.5-17.5c-12.7-28.7-7.9-53.8,14.5-75.5c5.5-3.4,11.1-6.2,17-8.5
	c30.6-0.9,49.1,13.8,55.5,44C145.5,435.5,138.6,454.6,121.5,470z M193,441.5c1.2,5.4,3.1,10.6,5.5,15.5c-15.3,8.7-30.7,8.7-46,0
	c13.7-33.5,8.4-63.5-16-90c-8.9-7.8-19.3-13-31-15.5c0-29.4,9.7-55,29-77c13.2,4,26.7,5.6,40.5,5c14,0.6,27.7-1,41-5
	c19.8,21.8,29.6,47.5,29.5,77c-22.8,5.8-39,19.5-48.5,41C191.3,408.5,190,424.8,193,441.5z M281.5,470
	c-27.7,15.4-49.8,9.6-66.5-17.5c-12.7-28.7-7.9-53.8,14.5-75.5c5.5-3.4,11.1-6.2,17-8.5c30.6-0.9,49.1,13.8,55.5,44
	C305.5,435.5,298.6,454.6,281.5,470z M312.5,389.5c7.5-3.2,13.8-7.8,19-14c4,0,8,0,12,0c0,10.7,0,21.3,0,32c-8.8,0.6-17.3,0-25.5-2
	C316.7,400,314.8,394.7,312.5,389.5z M375.5,439.5c-19,0-38,0-57,0c0.8-5.3,1.2-10.6,1-16c12,0.2,24,0,36-0.5c1.8-0.5,3-1.7,3.5-3.5
	c0.7-18.7,0.7-37.3,0-56c-0.5-1.8-1.7-3-3.5-3.5c-4.7-0.2-9.4-0.7-14-1.5c1.7-4.9,2.3-9.9,2-15c10.7,0,21.3,0,32,0
	C375.5,375.5,375.5,407.5,375.5,439.5z M487.5,439.5c-32,0-64,0-96,0c0-32,0-64,0-96c32,0,64,0,96,0
	C487.5,375.5,487.5,407.5,487.5,439.5z"/>
<g>
	<path class="st1" d="M123.5,135.5c11.4-0.8,14.7,4,10,14.5c-7.7,3.6-12.7,1.4-15-6.5C119.2,140.1,120.9,137.4,123.5,135.5z"/>
</g>
<g>
	<path class="st1" d="M219.5,135.5c11.4-0.8,14.7,4,10,14.5c-7.7,3.6-12.7,1.4-15-6.5C215.2,140.1,216.9,137.4,219.5,135.5z"/>
</g>
<path class="st2" d="M239,183.5c-0.5-1.8-1.7-3-3.5-3.5c-3.5-0.8-6.8-0.5-10,1c-3.8,24-17.8,37.8-42,41.5c-0.3-8.4,0-16.7,1-25
	c7.6-4.4,14.4-9.8,20.5-16c5.8-12.9,2.7-22.7-9.5-29.5c-13.3-0.5-26.7-0.7-40-0.5c-13,7.9-15.8,18.5-8.5,32c6.1,5.1,12.4,9.7,19,14
	c0.8,8.4,0.7,16.7-0.5,25c-4-1.2-8-2.3-12-3.5c-17-7-26.3-19.6-28-38c-8.3-3.8-13.3-1.3-15,7.5c2.9,22.9,15.2,38.4,37,46.5
	c23.6,7.6,46.2,5.6,68-6C232.2,218.4,240,203.2,239,183.5z M159.5,171c0.9-1.4,1.9-2.5,3-3.5c8.7-0.2,17.3,0,26,0.5
	c2.5,1.9,2.5,3.9,0,6c-4.2,3.2-8.7,6.1-13.5,8.5C169.4,179.3,164.2,175.4,159.5,171z"/>
<g>
	<path class="st3" d="M375.5,247.5c28.5-1.7,41.6,11.6,39.5,40c-6.4,18.9-19.5,26.8-39.5,23.5c-18.9-6.4-26.8-19.5-23.5-39.5
		C355.3,259,363.2,251,375.5,247.5z M378.5,264.5c-2.9,1.4-5.4,3.4-7.5,6c-4.2,8.1-3,15.2,3.5,21.5c8.1,4.2,15.2,3,21.5-3.5
		C401.6,272.3,395.8,264.3,378.5,264.5z"/>
</g>
<g>
	<path class="st4" d="M435.5,359.5c3.8-0.4,7.3,0.2,10.5,2c8.3,16.7,16.7,33.3,25,50c0.9,3.7,0.4,7.2-1.5,10.5
		c-9.9,1.1-19.9,1.6-30,1.5c-9.3-0.2-18.7-0.3-28-0.5c-0.9-0.4-1.8-0.9-2.5-1.5c-1.5-3.2-1.8-6.5-1-10c8.3-16.7,16.7-33.3,25-50
		C434,360.9,434.8,360.3,435.5,359.5z M438.5,387.5c-2.7,6.4-5.7,12.8-9,19c6.7,1.3,13.3,1.3,20,0c-3-6-6-12-9-18
		C440,387.7,439.4,387.4,438.5,387.5z"/>
</g>
</svg>
