<?xml version="1.0" encoding="utf-8"?>
<!-- Generator: Adobe Illustrator 24.3.0, SVG Export Plug-In . SVG Version: 6.00 Build 0)  -->
<svg version="1.1" id="Слой_1" xmlns="http://www.w3.org/2000/svg" xmlns:xlink="http://www.w3.org/1999/xlink" x="0px" y="0px"
	 viewBox="0 0 512 512" style="enable-background:new 0 0 512 512;" xml:space="preserve">
<style type="text/css">
	.st0{opacity:0.942;fill-rule:evenodd;clip-rule:evenodd;enable-background:new    ;}
	.st1{opacity:0.948;fill-rule:evenodd;clip-rule:evenodd;enable-background:new    ;}
	.st2{opacity:0.943;fill-rule:evenodd;clip-rule:evenodd;enable-background:new    ;}
	.st3{opacity:0.93;fill-rule:evenodd;clip-rule:evenodd;enable-background:new    ;}
	.st4{opacity:0.927;fill-rule:evenodd;clip-rule:evenodd;enable-background:new    ;}
</style>
<path class="st0" d="M477.5,196.5c-1.4-30.9-9.5-59.9-24.5-87c-40.5-65-99-101.6-175.5-110c-14.7,0-29.3,0-44,0
	c-39.4,4.2-75.7,17-109,38.5c-55.5,38.2-85.9,91-91,158.5c-17.9,4.3-29.3,15.3-34,33c0,40.3,0,80.7,0,121
	c5.2,16.6,16.2,27.5,33,32.5c20,0.7,40,0.7,60,0c8.5-3.2,14.3-9,17.5-17.5c0.7-50.3,0.7-100.7,0-151c-3.8-12-12-18.6-24.5-20
	c5-42.5,24-77.4,57-104.5C200,48.3,262,40.3,328.5,66c55.9,25.1,88.3,67.9,97,128.5c-12.5,1.4-20.7,8-24.5,20
	c-0.7,50.3-0.7,100.7,0,151c3.2,8.5,9,14.3,17.5,17.5c20,0.7,40,0.7,60,0c16.8-5,27.8-15.9,33-32.5c0-40.3,0-80.7,0-121
	C506.8,211.8,495.4,200.8,477.5,196.5z M58.5,365.5c-8.7,0.4-17.4-0.1-26-1.5c-7-3.6-11.8-9.1-14.5-16.5c-0.7-38.3-0.7-76.7,0-115
	c3-9.5,9.2-15.8,18.5-19c7.3,0,14.7,0,22,0C58.5,264.2,58.5,314.8,58.5,365.5z M87.5,214c2.2,0.8,3.7,2.3,4.5,4.5
	c0.7,47.7,0.7,95.3,0,143c-1.2,1.2-2.3,2.3-3.5,3.5c-4,0.5-8,0.7-12,0.5c0-50.7,0-101.3,0-152C80.2,213.3,83.8,213.5,87.5,214z
	 M434.5,365.5c-4,0.2-8,0-12-0.5c-1.2-1.2-2.3-2.3-3.5-3.5c-0.7-47.7-0.7-95.3,0-143c1-2.2,2.5-3.9,4.5-5c3.7,0,7.3,0,11,0
	C434.5,264.2,434.5,314.8,434.5,365.5z M443.5,195.5c-6.3-60.5-35.6-106-88-136.5c-55.4-29.1-112.8-33.5-172-13
	C125.4,68.5,87.9,109.6,71,169.5c-1.7,8.6-2.8,17.3-3.5,26c-5.3,0-10.7,0-16,0c6.2-63.6,36.2-112.4,90-146.5
	c29-17.6,60.4-28.1,94-31.5c71.7-4.8,131.8,18.8,180.5,71c26.1,30.8,40.6,66.5,43.5,107C454.2,195.5,448.8,195.5,443.5,195.5z
	 M493,347.5c-3.2,8.5-9,14.3-17.5,17.5c-7.7,0.5-15.3,0.7-23,0.5c0-50.7,0-101.3,0-152c8.4-0.4,16.8,0.1,25,1.5
	c8,3.4,13.2,9.2,15.5,17.5C493.7,270.8,493.7,309.2,493,347.5z"/>
<path class="st1" d="M383,164.5c-1.9-6.2-6.1-10.1-12.5-11.5c-71.3-0.7-142.7-0.7-214,0c-14.9,2.5-24.4,11-28.5,25.5
	c-0.7,102.3-0.7,204.7,0,307c4,13.2,12.5,21.8,25.5,26c70,0,140,0,210,0c6-2.2,9.9-6.6,11.5-13c0.3-13.3,0.7-26.7,1-40
	c3.1-2.4,5.4-5.4,7-9C383.7,354.5,383.7,259.5,383,164.5z M357.5,493.5c-67,0.2-134,0-201-0.5c-11.6-6.2-14.1-15.1-7.5-26.5
	c3.1-2.9,6.6-4.9,10.5-6c66,0,132,0,198,0C357.5,471.5,357.5,482.5,357.5,493.5z M365.5,442.5c-69.3-0.2-138.7,0-208,0.5
	c-4,0.6-7.9,1.7-11.5,3.5c-0.7-88-0.7-176,0-264c2.1-6.3,6.3-10.3,12.5-12c69,0,138,0,207,0C365.5,261.2,365.5,351.8,365.5,442.5z"
	/>
<g>
	<path class="st2" d="M252.5,246.5c11.3-0.8,18.1,4.2,20.5,15c0.7,35.7,0.7,71.3,0,107c-2.4,12.5-9.9,17.3-22.5,14.5
		c-14.2-10.3-27.9-21.3-41-33c-39.5,5.5-55.3-11.3-47.5-50.5c3-10.4,9.9-16.5,20.5-18.5c9.3-0.3,18.7-0.7,28-1
		C223.8,267.8,237.8,256.6,252.5,246.5z M254.5,266.5c-10.6,9-21.3,18-32,27c-1.2,14.3-1.3,28.7-0.5,43c11,8.8,21.8,17.8,32.5,27
		C255.8,331,255.8,298.7,254.5,266.5z M185.5,298.5c-2.3,1.1-4.1,2.8-5.5,5c-0.9,8.4-0.6,16.8,1,25c0.9,1.2,2.1,2,3.5,2.5
		c6.3,0.5,12.7,0.7,19,0.5c0-11,0-22,0-33C197.5,298.5,191.5,298.5,185.5,298.5z"/>
</g>
<g>
	<path class="st3" d="M320.5,255.5c3.1-0.3,6.1,0.2,9,1.5c17.6,21.7,24.1,46.6,19.5,74.5c-2.5,15.3-8.5,28.9-18,41
		c-8.3,5.4-13.8,3.4-16.5-6c5.8-9,10.7-18.7,14.5-29c3.5-15.5,3.3-31-0.5-46.5c-4.2-9.3-8.8-18.3-14-27
		C315.2,260.2,317.2,257.3,320.5,255.5z"/>
</g>
<g>
	<path class="st4" d="M295.5,280.5c2.8-0.1,5.4,0.4,8,1.5c8.5,9.3,12.5,20.3,12,33c1,13.4-3.4,24.7-13,34
		c-10.2,1.8-14.3-2.3-12.5-12.5c10-14.3,10-28.7,0-43C288.1,287.4,289.9,283.1,295.5,280.5z"/>
</g>
</svg>
