<svg xmlns="http://www.w3.org/2000/svg" width="488.827" height="513" viewBox="0 0 488.827 513"><g transform="translate(-10.949 1)"><g opacity="0.945"><path d="M-618.394-8.561a16.761,16.761,0,0,1-10.1-3.234,25.985,25.985,0,0,1-7.623-9.7c-21.681-55.432-43.886-111.619-66-167a30.353,30.353,0,0,1-2.365-9.035,17.975,17.975,0,0,1,.962-7.762,17.681,17.681,0,0,1,4.288-6.488A29.3,29.3,0,0,1-691.616-217c56.965-22.134,114.5-44.845,171-67.5h13a30.207,30.207,0,0,1,10.5,10c23.752,59.48,47.135,120.041,69.5,180a20.271,20.271,0,0,1-3.311,10.631A19.964,19.964,0,0,1-439.616-77l-168,66A28.393,28.393,0,0,1-618.394-8.561Zm102.511-256.468L-682.777-197.6l67.8,167.82L-448.08-97.209l-67.8-167.82Z" transform="translate(810.116 284)"/><path d="M-618.394-8.061v0a17.251,17.251,0,0,1-10.394-3.33,26.473,26.473,0,0,1-7.776-9.888l-.017-.039c-21.68-55.43-43.885-111.616-66-167a30.833,30.833,0,0,1-2.4-9.179,18.471,18.471,0,0,1,.991-7.976,18.177,18.177,0,0,1,4.407-6.672,29.793,29.793,0,0,1,7.744-5.307l.04-.018c56.965-22.135,114.5-44.844,171-67.5l.09-.036h13.228l.115.065A30.7,30.7,0,0,1-496.7-274.771l.026.041.018.045c23.753,59.482,47.138,120.047,69.5,180.011l.036.1-.005.1a20.762,20.762,0,0,1-3.4,10.889,20.455,20.455,0,0,1-8.9,7.044l-.018.007-168,66A28.869,28.869,0,0,1-618.394-8.061ZM-635.659-21.7a25.482,25.482,0,0,0,7.46,9.5,16.271,16.271,0,0,0,9.8,3.138,27.9,27.9,0,0,0,10.586-2.4l.009,0,167.991-66a19.471,19.471,0,0,0,8.468-6.69,19.732,19.732,0,0,0,3.219-10.27c-22.347-59.91-45.71-120.418-69.441-179.847A29.714,29.714,0,0,0-507.749-284h-12.77c-56.466,22.64-113.965,45.337-170.895,67.458a28.782,28.782,0,0,0-7.466,5.113,17.186,17.186,0,0,0-4.17,6.3,17.48,17.48,0,0,0-.933,7.547,29.858,29.858,0,0,0,2.328,8.885l0,.007C-679.54-133.309-657.337-77.128-635.659-21.7Zm20.41-7.427-.187-.464-67.991-168.284.464-.187,167.357-67.616,68.178,168.747-.464.187Zm-66.877-168.195L-614.7-30.431l165.965-67.054L-516.16-264.378Z" transform="translate(810.116 284)" fill="rgba(0,0,0,0)"/></g><path d="M-693.4-166.485h0a15.15,15.15,0,0,1-6.135-1.454,11.587,11.587,0,0,1-3.5-4.5c-1.11-17.225-1.615-34.72-1.5-52-.121-16.966.384-34.125,1.5-51a21.063,21.063,0,0,1,9.5-9c.912-.041,1.835-.061,2.743-.061a61.264,61.264,0,0,1,8.258.562l2.52,1.8.119.085,4.36,3.115c21.443,22.436,42.807,45.483,63.5,68.5a22.027,22.027,0,0,1,.932,6.84,8.366,8.366,0,0,1-1.548,4.719c-1.594,2.092-4.45,3.152-8.488,3.152a29.761,29.761,0,0,1-3.4-.211l-2.572-1.715-3.428-2.285a65.111,65.111,0,0,0-13.5-13.5c-12.506,4.677-25.123,9.555-37.5,14.5-.634,9.1-1.476,18.351-2.5,27.5a14.476,14.476,0,0,1-4.365,3.715A10.586,10.586,0,0,1-693.4-166.485Zm8.865-92.954a270.363,270.363,0,0,0,2,42l27-10.5c-9.875-10.369-19.632-20.967-29-31.5Z" transform="translate(916.037 365.938)"/><path d="M-693.4-165.985h0a15.642,15.642,0,0,1-6.339-1.5l-.056-.025-.048-.038a12.082,12.082,0,0,1-3.649-4.692l-.036-.081-.006-.088c-1.111-17.234-1.616-34.74-1.5-52.032-.121-16.977.384-34.147,1.5-51.034l.007-.111.054-.1a21.553,21.553,0,0,1,9.721-9.209l.092-.044.1,0c.918-.041,1.849-.062,2.765-.062a61.765,61.765,0,0,1,8.325.566l.122.017,2.74,1.957,4.36,3.115.038.027.032.034c21.446,22.44,42.814,45.49,63.511,68.511l.079.088.031.114a22.517,22.517,0,0,1,.95,7,8.853,8.853,0,0,1-1.649,5c-1.694,2.222-4.683,3.349-8.886,3.349a30.262,30.262,0,0,1-3.455-.214l-.12-.014-.1-.067-2.446-1.631-.127-.084-3.428-2.285-.072-.048-.052-.07a64.617,64.617,0,0,0-13.179-13.234c-12.329,4.613-24.755,9.417-36.943,14.284-.632,9-1.466,18.151-2.48,27.208l-.016.147-.093.114a14.972,14.972,0,0,1-4.519,3.841A11.081,11.081,0,0,1-693.4-165.985Zm-5.874-2.385a14.612,14.612,0,0,0,5.874,1.385v0a10.091,10.091,0,0,0,4.766-1.18,13.883,13.883,0,0,0,4.119-3.477c1.017-9.1,1.852-18.295,2.482-27.332l.022-.313.291-.116c12.372-4.943,24.992-9.823,37.51-14.5l.255-.1.218.162a65.612,65.612,0,0,1,13.552,13.534l3.356,2.238.127.084,2.345,1.564a29.043,29.043,0,0,0,3.22.194c3.874,0,6.6-.994,8.09-2.955a7.881,7.881,0,0,0,1.446-4.442,21.377,21.377,0,0,0-.884-6.568c-20.655-22.973-41.978-45.973-63.378-68.367l-4.322-3.088-2.539-1.813a60.764,60.764,0,0,0-8.068-.541c-.868,0-1.748.019-2.618.056a20.557,20.557,0,0,0-9.133,8.649c-1.111,16.828-1.613,33.936-1.492,50.852v.007c-.114,17.24.388,34.692,1.494,51.876A11.087,11.087,0,0,0-699.276-168.37Zm16.324-48.37-.08-.635a270.868,270.868,0,0,1-2-42.078l.038-1.256.835.939c9.374,10.538,19.127,21.132,28.989,31.487l.515.54Zm-1.12-41.425a269.954,269.954,0,0,0,1.953,40.028l25.707-10C-665.814-238.017-675.112-248.112-684.073-258.165Z" transform="translate(916.037 365.938)" fill="rgba(0,0,0,0)"/><path d="M299.5,241.5a102.41,102.41,0,0,1,24,4.5q83.583,22.27,167,45,11.959,8.195,8.5,22.5-23.766,90.566-48,181-9.438,13.814-25.5,8.5-90.3-23.574-180-49-9.353-7.553-7.5-19.5,23.5-88.5,47-177Q287.879,245.379,299.5,241.5Zm6,22q86.555,23.014,173,46.5Q455.175,394.545,433,479.5a3.635,3.635,0,0,1-2,2q-85.889-22.659-171.5-46Q282.811,349.566,305.5,263.5Z" fill-rule="evenodd" opacity="0.947" style="isolation:isolate"/><g opacity="0.964"><path d="M-495.5-63.5h-197c-2.505-1.509-5.029-3.192-7.5-5a22.665,22.665,0,0,1-4-8c-.985-65.756-.648-132.373,1-198a18.882,18.882,0,0,1,5.165-6.163A18.992,18.992,0,0,1-690.5-284c32.019-.332,64.487-.5,96.5-.5s64.481.168,96.5.5a17.655,17.655,0,0,1,7.626,3.627A17.54,17.54,0,0,1-485-273.5c1.648,65.3,1.984,131.577,1,197a25.443,25.443,0,0,1-4.579,7.578A24.922,24.922,0,0,1-495.5-63.5h0Zm-188.054-200v179h179v-179h-179Z" transform="translate(716 575)"/><path d="M-495.5-63H-692.639l-.119-.072c-2.518-1.517-5.054-3.208-7.538-5.025l-.056-.041-.043-.055a23.163,23.163,0,0,1-4.087-8.176l-.017-.061v-.063c-.985-65.762-.648-132.385,1-198.02l0-.119.057-.105a19.379,19.379,0,0,1,5.3-6.324,19.489,19.489,0,0,1,7.527-3.426l.052-.012h.054c32.024-.332,64.493-.5,96.5-.5s64.482.168,96.5.5h.052l.051.011a18.149,18.149,0,0,1,7.839,3.732,18.034,18.034,0,0,1,5.015,7.065l.035.085,0,.092c1.648,65.3,1.985,131.589,1,197.02v.091l-.033.085a25.941,25.941,0,0,1-4.67,7.726,25.42,25.42,0,0,1-7.059,5.532l-.111.059Zm-196.86-1h196.734a24.392,24.392,0,0,0,6.673-5.254A24.919,24.919,0,0,0-484.5-76.6c.982-65.355.646-131.57-1-196.8a17.009,17.009,0,0,0-4.7-6.6,17.139,17.139,0,0,0-7.362-3.51c-32-.332-64.45-.5-96.442-.5s-64.437.168-96.44.5a18.477,18.477,0,0,0-7.092,3.235,18.344,18.344,0,0,0-4.97,5.9c-1.645,65.563-1.98,132.108-1,197.8a22.167,22.167,0,0,0,3.852,7.709C-697.245-67.106-694.795-65.471-692.36-64Zm188.305-20h-180V-264h180Zm-179-1h178V-263h-178Z" transform="translate(716 575)" fill="rgba(0,0,0,0)"/></g><path d="M363.5,314.5q33.561-4.587,53.5,22a27.881,27.881,0,0,1,4,23q-7.26,10.791-17,2a91.4,91.4,0,0,0-8-20q-16.125-16.133-35.5-4.5-21.316,22.947-14.5,53.5,10.206,16.223,29.5,13.5a20.51,20.51,0,0,0,8-3l14-14q15.074-1.426,12.5,13.5-13.2,25.98-42.5,23.5-53.215-9.754-44.5-63.5Q329.369,324.9,363.5,314.5Z" fill-rule="evenodd" opacity="0.939" style="isolation:isolate"/><path d="M87.5,343.5q26.5-.25,53,.5,28.074,7.1,21.5,35.5A24.8,24.8,0,0,1,149.5,393q28.293,13.883,14.5,42.5-10.3,13.293-27.5,13.5-25,1-50,0a11.532,11.532,0,0,1-4.5-3.5q-2.478-47.871-1-96A11.423,11.423,0,0,1,87.5,343.5Zm15,17v26q12.51.249,25-.5a14.834,14.834,0,0,0,12.5-7.5q4.335-9.83-4.5-15.5A126.022,126.022,0,0,0,102.5,360.5Zm0,43v29a206.7,206.7,0,0,0,34-1.5,14.077,14.077,0,0,0,6.5-4.5q8.633-16.979-9.5-22.5Q118.008,403.25,102.5,403.5Z" fill-rule="evenodd" opacity="0.955" style="isolation:isolate"/></g></svg>