<?xml version="1.0" encoding="UTF-8"?>
<!DOCTYPE svg PUBLIC "-//W3C//DTD SVG 1.1//EN" "http://www.w3.org/Graphics/SVG/1.1/DTD/svg11.dtd">
<svg xmlns="http://www.w3.org/2000/svg" version="1.1" width="512px" height="512px" style="shape-rendering:geometricPrecision; text-rendering:geometricPrecision; image-rendering:optimizeQuality; fill-rule:evenodd; clip-rule:evenodd" xmlns:xlink="http://www.w3.org/1999/xlink">
<g><path style="opacity:0.941" fill="#000000" d="M 83.5,-0.5 C 89.8333,-0.5 96.1667,-0.5 102.5,-0.5C 121.037,4.53999 132.204,16.54 136,35.5C 136.667,79.8333 136.667,124.167 136,168.5C 133.989,179.531 128.655,188.531 120,195.5C 119.5,207.495 119.333,219.495 119.5,231.5C 159.871,236.371 182.371,259.038 187,299.5C 187.318,358.563 173.651,414.23 146,466.5C 138.647,479.689 129.481,491.522 118.5,502C 113.137,505.898 107.47,509.065 101.5,511.5C 96.1667,511.5 90.8333,511.5 85.5,511.5C 79.8161,509.489 74.4828,506.656 69.5,503C 54.5646,488.73 42.7313,472.23 34,453.5C 16.4091,414.788 4.90912,374.455 -0.5,332.5C -0.5,320.5 -0.5,308.5 -0.5,296.5C 5.13772,257.199 27.8044,235.532 67.5,231.5C 67.6665,219.495 67.4999,207.495 67,195.5C 58.4285,188.907 53.0951,180.241 51,169.5C 50.3333,124.167 50.3333,78.8333 51,33.5C 55.6028,16.0667 66.4361,4.73332 83.5,-0.5 Z M 86.5,17.5 C 102.673,15.4913 113.173,22.158 118,37.5C 118.667,80.5 118.667,123.5 118,166.5C 112.6,182.953 101.433,189.119 84.5,185C 76.5074,181.674 71.3407,175.841 69,167.5C 68.3333,123.833 68.3333,80.1667 69,36.5C 71.9552,27.3831 77.7885,21.0498 86.5,17.5 Z M 85.5,204.5 C 90.8333,204.5 96.1667,204.5 101.5,204.5C 101.5,212.833 101.5,221.167 101.5,229.5C 96.1667,229.5 90.8333,229.5 85.5,229.5C 85.5,221.167 85.5,212.833 85.5,204.5 Z M 79.5,247.5 C 89.2726,247.052 98.9393,247.552 108.5,249C 106.494,263.537 103.994,278.037 101,292.5C 99.3777,299.538 96.8777,306.205 93.5,312.5C 88.6726,303.853 85.5059,294.52 84,284.5C 81.2127,272.177 79.7127,259.844 79.5,247.5 Z M 56.5,251.5 C 57.8333,251.5 59.1667,251.5 60.5,251.5C 62.6242,272.578 66.7908,293.245 73,313.5C 75.3765,319.762 78.8765,325.262 83.5,330C 95.1359,335.587 103.969,332.754 110,321.5C 119.055,299.059 124.222,275.726 125.5,251.5C 152.539,257.051 167.039,273.718 169,301.5C 168.704,358.724 154.704,412.391 127,462.5C 120.825,473.665 112.658,483.165 102.5,491C 95.6349,494.57 88.9682,494.237 82.5,490C 73.8894,482.722 66.7228,474.222 61,464.5C 31.9368,413.315 17.6034,358.315 18,299.5C 20.3917,274.958 33.225,258.958 56.5,251.5 Z"/></g>
<g><path style="opacity:0.943" fill="#000000" d="M 511.5,45.5 C 511.5,49.5 511.5,53.5 511.5,57.5C 507.231,83.4708 497.398,107.137 482,128.5C 463.146,149.073 439.646,159.073 411.5,158.5C 397.424,158.132 383.59,156.132 370,152.5C 369.5,152.833 369,153.167 368.5,153.5C 361.04,172.468 357.706,192.134 358.5,212.5C 399.835,212.333 441.168,212.5 482.5,213C 493.708,217.93 497.542,226.43 494,238.5C 491.66,257.886 488.993,277.22 486,296.5C 483.045,302.564 478.212,306.064 471.5,307C 470.874,307.75 470.374,308.584 470,309.5C 461.912,373.203 453.579,436.869 445,500.5C 442.643,505.355 439.143,509.021 434.5,511.5C 377.833,511.5 321.167,511.5 264.5,511.5C 261.979,509.981 259.479,508.314 257,506.5C 255.092,503.785 253.759,500.785 253,497.5C 245.151,434.034 236.651,370.701 227.5,307.5C 219.32,306.153 214.153,301.486 212,293.5C 209.207,272.326 206.374,251.159 203.5,230C 204.098,221.41 208.431,215.743 216.5,213C 257.832,212.5 299.165,212.333 340.5,212.5C 340.839,191.869 337.506,171.869 330.5,152.5C 310.766,157.645 290.766,159.145 270.5,157C 246.514,153.929 227.347,142.763 213,123.5C 196.591,99.6125 188.258,73.2792 188,44.5C 188.833,43.6667 189.667,42.8333 190.5,42C 277.147,15.7339 327.647,47.2339 342,136.5C 344.59,141.349 346.924,146.349 349,151.5C 351.064,147.039 353.398,142.706 356,138.5C 359.701,110.041 370.035,84.3747 387,61.5C 405.914,41.5193 429.248,31.8526 457,32.5C 473.922,32.9173 490.422,35.7506 506.5,41C 508.687,42.025 510.354,43.525 511.5,45.5 Z M 235.5,50.5 C 276.432,49.0395 303.266,67.7061 316,106.5C 317.825,111.472 319.158,116.472 320,121.5C 285.894,99.0582 252.06,76.2249 218.5,53C 224.331,52.2903 229.998,51.457 235.5,50.5 Z M 448.5,50.5 C 458.981,50.1337 469.315,51.1337 479.5,53.5C 446.123,76.2775 412.623,98.9441 379,121.5C 382.706,98.2501 393.539,79.0834 411.5,64C 422.726,56.2049 435.059,51.7049 448.5,50.5 Z M 208.5,70.5 C 208.897,69.475 209.563,69.3083 210.5,70C 243.697,92.6958 277.03,115.196 310.5,137.5C 288.194,143.045 266.86,140.545 246.5,130C 232.395,120.29 222.228,107.457 216,91.5C 213.368,84.4287 210.868,77.4287 208.5,70.5 Z M 488.5,69.5 C 477.823,124.772 444.49,147.439 388.5,137.5C 421.899,114.81 455.233,92.1438 488.5,69.5 Z M 222.5,230.5 C 307.167,230.5 391.833,230.5 476.5,230.5C 474.085,250.157 471.751,269.824 469.5,289.5C 389.5,289.5 309.5,289.5 229.5,289.5C 226.92,269.862 224.587,250.195 222.5,230.5 Z M 246.5,307.5 C 314.833,307.5 383.167,307.5 451.5,307.5C 443.833,369.5 436.167,431.5 428.5,493.5C 375.833,493.5 323.167,493.5 270.5,493.5C 262.826,431.443 254.826,369.443 246.5,307.5 Z"/></g>
<g><path style="opacity:0.871" fill="#000000" d="M 89.5,33.5 C 100.189,32.5459 104.022,37.2126 101,47.5C 96,52.8333 91,52.8333 86,47.5C 83.2672,41.7222 84.4339,37.0555 89.5,33.5 Z"/></g>
<g><path style="opacity:0.913" fill="#000000" d="M 243.5,246.5 C 251.507,246.334 259.507,246.5 267.5,247C 275.5,252.667 275.5,258.333 267.5,264C 259.5,264.667 251.5,264.667 243.5,264C 235.649,258.19 235.649,252.356 243.5,246.5 Z"/></g>
<g><path style="opacity:0.932" fill="#000000" d="M 294.5,246.5 C 316.836,246.333 339.169,246.5 361.5,247C 366.155,249.897 367.655,254.063 366,259.5C 365.167,261.667 363.667,263.167 361.5,264C 339.167,264.667 316.833,264.667 294.5,264C 290.916,262.336 289.249,259.503 289.5,255.5C 289.377,251.405 291.044,248.405 294.5,246.5 Z"/></g>
</svg>
