<?xml version="1.0" encoding="UTF-8"?>
<!DOCTYPE svg PUBLIC "-//W3C//DTD SVG 1.1//EN" "http://www.w3.org/Graphics/SVG/1.1/DTD/svg11.dtd">
<svg xmlns="http://www.w3.org/2000/svg" version="1.1" width="512px" height="512px" style="shape-rendering:geometricPrecision; text-rendering:geometricPrecision; image-rendering:optimizeQuality; fill-rule:evenodd; clip-rule:evenodd" xmlns:xlink="http://www.w3.org/1999/xlink">
<g><path style="opacity:0.945" fill="#000000" d="M 192.5,-0.5 C 234.5,-0.5 276.5,-0.5 318.5,-0.5C 320.97,1.08167 322.47,3.41501 323,6.5C 323.667,18.1667 323.667,29.8333 323,41.5C 321.977,46.6085 318.81,49.2752 313.5,49.5C 312.335,57.145 312.169,64.8117 313,72.5C 329.922,105.344 346.589,138.344 363,171.5C 368.033,183.333 371.033,195.666 372,208.5C 372.667,300.833 372.667,393.167 372,485.5C 369.615,498.711 362.115,507.378 349.5,511.5C 286.833,511.5 224.167,511.5 161.5,511.5C 148.885,507.378 141.385,498.711 139,485.5C 138.333,393.167 138.333,300.833 139,208.5C 139.967,195.666 142.967,183.333 148,171.5C 164.411,138.344 181.078,105.344 198,72.5C 198.831,64.8117 198.665,57.145 197.5,49.5C 192.19,49.2752 189.023,46.6085 188,41.5C 187.333,29.8333 187.333,18.1667 188,6.5C 188.53,3.41501 190.03,1.08167 192.5,-0.5 Z M 205.5,16.5 C 238.833,16.5 272.167,16.5 305.5,16.5C 305.5,21.5 305.5,26.5 305.5,31.5C 272.167,31.5 238.833,31.5 205.5,31.5C 205.5,26.5 205.5,21.5 205.5,16.5 Z M 216.5,49.5 C 242.5,49.5 268.5,49.5 294.5,49.5C 294.114,58.9005 294.614,68.2338 296,77.5C 305.911,97.6559 316.078,117.656 326.5,137.5C 319.455,141.042 312.788,145.208 306.5,150C 300.515,151.942 294.515,151.942 288.5,150C 281.58,144.373 273.914,140.039 265.5,137C 256.658,135.874 247.992,136.541 239.5,139C 233.663,142.418 227.996,146.084 222.5,150C 217.572,151.418 212.572,151.751 207.5,151C 199.703,146.699 192.037,142.199 184.5,137.5C 194.922,117.656 205.089,97.6559 215,77.5C 216.386,68.2338 216.886,58.9005 216.5,49.5 Z M 250.5,153.5 C 255.248,153.275 259.915,153.775 264.5,155C 269.996,158.916 275.663,162.582 281.5,166C 292.167,170.667 302.833,170.667 313.5,166C 320.041,161.898 326.708,158.064 333.5,154.5C 346.245,172.017 353.412,191.684 355,213.5C 355.667,302.833 355.667,392.167 355,481.5C 354.504,487.666 351.338,491.833 345.5,494C 285.5,494.667 225.5,494.667 165.5,494C 161.725,492.558 158.892,490.058 157,486.5C 155.346,395.535 155.013,304.535 156,213.5C 157.588,191.684 164.755,172.017 177.5,154.5C 184.292,158.064 190.959,161.898 197.5,166C 208.167,170.667 218.833,170.667 229.5,166C 236.456,161.497 243.456,157.331 250.5,153.5 Z"/></g>
<g><path style="opacity:0.926" fill="#000000" d="M 236.5,64.5 C 249.171,64.3334 261.838,64.5001 274.5,65C 279.068,67.5874 280.568,71.4208 279,76.5C 278.167,78.6667 276.667,80.1667 274.5,81C 261.833,81.6667 249.167,81.6667 236.5,81C 231.931,78.4586 230.431,74.6253 232,69.5C 233.366,67.6383 234.866,65.9717 236.5,64.5 Z"/></g>
<g><path style="opacity:0.953" fill="#000000" d="M 185.5,178.5 C 191.473,178.635 194.473,181.635 194.5,187.5C 192.202,195.028 190.368,202.695 189,210.5C 188.667,276.5 188.333,342.5 188,408.5C 186.601,412.238 183.934,413.904 180,413.5C 176.066,413.904 173.399,412.238 172,408.5C 171.333,341.167 171.333,273.833 172,206.5C 172.808,196.737 175.975,187.903 181.5,180C 183.058,179.79 184.391,179.29 185.5,178.5 Z"/></g>
<g><path style="opacity:0.931" fill="#000000" d="M 176.5,429.5 C 181.635,428.426 185.468,430.093 188,434.5C 188.667,447.833 188.667,461.167 188,474.5C 182.667,481.167 177.333,481.167 172,474.5C 171.333,461.167 171.333,447.833 172,434.5C 173.025,432.313 174.525,430.646 176.5,429.5 Z"/></g>
</svg>
