<?xml version="1.0" encoding="UTF-8"?>
<!DOCTYPE svg PUBLIC "-//W3C//DTD SVG 1.1//EN" "http://www.w3.org/Graphics/SVG/1.1/DTD/svg11.dtd">
<svg xmlns="http://www.w3.org/2000/svg" version="1.1" width="512px" height="512px" style="shape-rendering:geometricPrecision; text-rendering:geometricPrecision; image-rendering:optimizeQuality; fill-rule:evenodd; clip-rule:evenodd" xmlns:xlink="http://www.w3.org/1999/xlink">
<g><path style="opacity:0.985" fill="#000000" d="M 511.5,86.5 C 511.5,91.8333 511.5,97.1667 511.5,102.5C 507.699,115.589 499.032,123.422 485.5,126C 332.167,126.667 178.833,126.667 25.5,126C 11.8495,123.51 3.18288,115.676 -0.5,102.5C -0.5,97.1667 -0.5,91.8333 -0.5,86.5C 3.41571,74.7539 11.4157,67.2539 23.5,64C 178.167,63.3333 332.833,63.3333 487.5,64C 499.584,67.2539 507.584,74.7539 511.5,86.5 Z"/></g>
<g><path style="opacity:0.972" fill="#000000" d="M 511.5,247.5 C 511.5,252.833 511.5,258.167 511.5,263.5C 506.813,277.343 497.146,285.177 482.5,287C 331.167,287.667 179.833,287.667 28.5,287C 13.8536,285.177 4.18697,277.343 -0.5,263.5C -0.5,258.167 -0.5,252.833 -0.5,247.5C 4.18697,233.657 13.8536,225.823 28.5,224C 179.833,223.333 331.167,223.333 482.5,224C 497.146,225.823 506.813,233.657 511.5,247.5 Z"/></g>
<g><path style="opacity:0.985" fill="#000000" d="M 511.5,408.5 C 511.5,413.833 511.5,419.167 511.5,424.5C 507.584,436.246 499.584,443.746 487.5,447C 332.833,447.667 178.167,447.667 23.5,447C 11.4157,443.746 3.41571,436.246 -0.5,424.5C -0.5,419.167 -0.5,413.833 -0.5,408.5C 3.08868,395.748 11.422,387.914 24.5,385C 178.5,384.333 332.5,384.333 486.5,385C 499.578,387.914 507.911,395.748 511.5,408.5 Z"/></g>
</svg>
