<?xml version="1.0" encoding="utf-8"?>
<!-- Generator: Adobe Illustrator 24.3.0, SVG Export Plug-In . SVG Version: 6.00 Build 0)  -->
<svg version="1.1" id="Слой_1" xmlns="http://www.w3.org/2000/svg" xmlns:xlink="http://www.w3.org/1999/xlink" x="0px" y="0px"
	 viewBox="0 0 512 512" style="enable-background:new 0 0 512 512;" xml:space="preserve">
<style type="text/css">
	.st0{opacity:0.968;fill-rule:evenodd;clip-rule:evenodd;enable-background:new    ;}
	.st1{opacity:0.947;fill-rule:evenodd;clip-rule:evenodd;enable-background:new    ;}
	.st2{opacity:0.969;fill-rule:evenodd;clip-rule:evenodd;enable-background:new    ;}
</style>
<path class="st0" d="M486.5,85c-154-0.7-308-0.7-462,0c-12.4,3.6-20.8,11.4-25,23.5c0,98,0,196,0,294c4.2,12.1,12.6,19.9,25,23.5
	c154,0.7,308,0.7,462,0c12.4-3.6,20.8-11.4,25-23.5c0-98,0-196,0-294C507.3,96.4,498.9,88.6,486.5,85z M383.5,404.5
	c-117.7,0.2-235.3,0-353-0.5c-4-0.7-6.8-2.8-8.5-6.5c-0.7-94.7-0.7-189.3,0-284c1.9-3.7,4.7-6,8.5-7c117.7,0,235.3,0,353,0
	C383.5,205.8,383.5,305.2,383.5,404.5z M488,399.5c-2,2.4-4.5,3.9-7.5,4.5c-25,0.5-50,0.7-75,0.5c0-99.3,0-198.7,0-298
	c25-0.2,50,0,75,0.5c3.2,0.2,5.7,1.7,7.5,4.5c1.2,47.9,1.7,95.9,1.5,144C489.7,303.6,489.2,351.6,488,399.5z"/>
<g>
	<path class="st1" d="M441.5,127.5c20.6-0.9,29.4,8.8,26.5,29c-6.1,12.7-15.9,16.8-29.5,12.5c-12-7.2-15.5-17.3-10.5-30.5
		C431.2,133.1,435.7,129.4,441.5,127.5z"/>
</g>
<g>
	<path class="st2" d="M70.5,148.5c87.7-0.2,175.3,0,263,0.5c4.3,1.3,6.8,4.1,7.5,8.5c0.7,65.3,0.7,130.7,0,196
		c-0.7,4.4-3.2,7.2-7.5,8.5c-87.7,0.7-175.3,0.7-263,0c-3.1-0.8-5.2-2.6-6.5-5.5c-0.7-67.3-0.7-134.7,0-202
		C65.5,151.7,67.7,149.7,70.5,148.5z M85.5,170.5c0,56.7,0,113.3,0,170c78,0,156,0,234,0c0-56.7,0-113.3,0-170
		C241.5,170.5,163.5,170.5,85.5,170.5z"/>
</g>
<g>
	<path class="st1" d="M441.5,191.5c20.6-0.9,29.4,8.8,26.5,29c-6.1,12.7-15.9,16.8-29.5,12.5c-12-7.2-15.5-17.3-10.5-30.5
		C431.2,197.1,435.7,193.4,441.5,191.5z"/>
</g>
<g>
	<path class="st1" d="M441.5,255.5c20.6-0.9,29.4,8.8,26.5,29c-6.1,12.7-15.9,16.8-29.5,12.5c-12-7.2-15.5-17.3-10.5-30.5
		C431.2,261.1,435.7,257.4,441.5,255.5z"/>
</g>
</svg>
