<?xml version="1.0" encoding="UTF-8"?>
<!DOCTYPE svg PUBLIC "-//W3C//DTD SVG 1.1//EN" "http://www.w3.org/Graphics/SVG/1.1/DTD/svg11.dtd">
<svg xmlns="http://www.w3.org/2000/svg" version="1.1" width="512px" height="512px" style="shape-rendering:geometricPrecision; text-rendering:geometricPrecision; image-rendering:optimizeQuality; fill-rule:evenodd; clip-rule:evenodd" xmlns:xlink="http://www.w3.org/1999/xlink">
<g><path style="opacity:0.954" fill="#000000" d="M 247.5,79.5 C 275.968,77.8007 289.134,91.1341 287,119.5C 285.554,125.058 283.054,130.058 279.5,134.5C 297.914,166.997 316.581,199.33 335.5,231.5C 370.036,210.468 404.702,189.634 439.5,169C 436.885,139.947 450.218,126.28 479.5,128C 492,131.167 499.833,139 503,151.5C 505.969,167.294 500.802,179.46 487.5,188C 483.104,190.299 478.438,191.466 473.5,191.5C 460.08,255.435 447.246,319.435 435,383.5C 437,384.167 438.333,385.5 439,387.5C 441.823,397.791 444.489,408.124 447,418.5C 447.837,422.295 447.504,425.961 446,429.5C 445.25,430.126 444.416,430.626 443.5,431C 318.167,431.667 192.833,431.667 67.5,431C 66.5838,430.626 65.7504,430.126 65,429.5C 63.4961,425.961 63.1628,422.295 64,418.5C 66.3333,409.167 68.6667,399.833 71,390.5C 72.1359,386.751 73.9692,383.585 76.5,381C 63.4333,317.833 50.4333,254.666 37.5,191.5C 22.1525,190.247 12.3192,182.247 8,167.5C 5.82311,139.01 18.9898,125.844 47.5,128C 60,131.167 67.8333,139 71,151.5C 71.4059,157.536 71.5726,163.369 71.5,169C 106.298,189.634 140.964,210.468 175.5,231.5C 194.419,199.33 213.086,166.997 231.5,134.5C 223.522,123.989 221.356,112.322 225,99.5C 229.42,89.2305 236.92,82.5638 247.5,79.5 Z M 250.5,96.5 C 267.765,96.2567 273.598,104.257 268,120.5C 261.749,127.011 254.582,128.177 246.5,124C 239.989,117.749 238.823,110.582 243,102.5C 245.114,99.8792 247.614,97.8792 250.5,96.5 Z M 34.5,142.5 C 49.3132,142.479 55.8132,149.813 54,164.5C 47.3599,175.702 38.5266,177.868 27.5,171C 19.13,158.73 21.4633,149.23 34.5,142.5 Z M 246.5,142.5 C 252.788,143.454 258.955,143.787 265,143.5C 284.747,178.663 304.747,213.663 325,248.5C 329.863,253.473 335.029,253.64 340.5,249C 376.167,227.333 411.833,205.667 447.5,184C 450.719,184.502 453.552,186.002 456,188.5C 443.164,253.511 429.998,318.511 416.5,383.5C 309.167,383.5 201.833,383.5 94.5,383.5C 81.0023,318.511 67.8356,253.511 55,188.5C 57.4479,186.002 60.2813,184.502 63.5,184C 101.636,207.483 140.136,230.317 179,252.5C 183.159,251.676 186.159,249.342 188,245.5C 207.512,211.139 227.012,176.806 246.5,142.5 Z M 466.5,144.5 C 483.765,144.257 489.598,152.257 484,168.5C 477.749,175.011 470.582,176.177 462.5,172C 455.989,165.749 454.823,158.582 459,150.5C 461.114,147.879 463.614,145.879 466.5,144.5 Z M 86.5,399.5 C 199.167,399.333 311.834,399.5 424.5,400C 426.221,405.05 427.554,410.217 428.5,415.5C 313.167,415.5 197.833,415.5 82.5,415.5C 83.525,410.067 84.8583,404.733 86.5,399.5 Z"/></g>
</svg>
