<?xml version="1.0" encoding="utf-8"?>
<!-- Generator: Adobe Illustrator 24.3.0, SVG Export Plug-In . SVG Version: 6.00 Build 0)  -->
<svg version="1.1" id="Слой_1" xmlns="http://www.w3.org/2000/svg" xmlns:xlink="http://www.w3.org/1999/xlink" x="0px" y="0px"
	 viewBox="0 0 512 512" style="enable-background:new 0 0 512 512;" xml:space="preserve">
<style type="text/css">
	.st0{opacity:0.961;fill-rule:evenodd;clip-rule:evenodd;enable-background:new    ;}
	.st1{opacity:0.891;fill-rule:evenodd;clip-rule:evenodd;enable-background:new    ;}
	.st2{opacity:0.947;fill-rule:evenodd;clip-rule:evenodd;enable-background:new    ;}
</style>
<path class="st0" d="M485.5,74c-112-0.7-224-0.7-336,0c-2.3,0.3-4.2,1.5-5.5,3.5c-3.8,6.6-2.6,12.1,3.5,16.5c111,0.3,222,0.7,333,1
	c4.5,0.3,7.6,2.5,9.5,6.5c0.7,82,0.7,164,0,246c-1.2,3.2-3.3,5.3-6.5,6.5c-61.3,0.3-122.7,0.7-184,1c-1.6,0.7-3.1,1.5-4.5,2.5
	c-13.3,17.6-27,35-41,52c-14.2-16.8-28.2-33.8-42-51c-1.6-1.5-3.4-2.7-5.5-3.5c-59.7-0.3-119.3-0.7-179-1c-3.2-1.2-5.3-3.3-6.5-6.5
	c-0.7-82-0.7-164,0-246c1.9-4,5-6.2,9.5-6.5c14.3-0.3,28.7-0.7,43-1c3.6-2.1,5.3-5.3,5-9.5c0.5-5.5-1.8-9-7-10.5
	c-15.3-0.7-30.7-0.7-46,0c-13.2,2.4-21.9,9.9-26,22.5c0,85.3,0,170.7,0,256c3.9,11.7,11.9,19.2,24,22.5c58.3,0.2,116.7,0.7,175,1.5
	c15.4,18.2,30.5,36.5,45.5,55c4.9,6.3,10.7,7.4,17.5,3.5c15.7-19.7,31.3-39.3,47-59c59.7-0.3,119.3-0.7,179-1
	c12.1-3.3,20.1-10.8,24-22.5c0-85.3,0-170.7,0-256C507.4,83.9,498.7,76.4,485.5,74z"/>
<g>
	<path class="st1" d="M107.5,73.5c11.2,0,15.3,5.3,12.5,16c-3.7,4.8-8.5,6.3-14.5,4.5c-5-3.8-6.5-8.7-4.5-14.5
		C102.5,76.7,104.7,74.7,107.5,73.5z"/>
</g>
<g>
	<path class="st2" d="M113.5,159.5c3.8-0.3,7.5,0.2,11,1.5c6.7,9.2,13,18.7,19,28.5c10.3,3,20.6,5.8,31,8.5
		c7.2,4.3,8.7,10.2,4.5,17.5c-6.3,7.3-12.7,14.7-19,22c-0.1,10.7,0.4,21.3,1.5,32c0.5,6.3-2.3,10-8.5,11c-2.5-0.7-5-1.2-7.5-1.5
		c-9.2-3.5-18.3-7-27.5-10.5c-6.3,2.1-12.5,4.6-18.5,7.5c-5.2,2-10.5,3.5-16,4.5c-6.1-0.5-9.1-3.8-9-10c1.3-11,1.8-22,1.5-33
		c-6.7-8-13.3-16-20-24c-2.7-6.8-0.9-12,5.5-15.5c10.3-2.8,20.6-5.5,31-8C98.6,179.1,105.6,168.9,113.5,159.5z M117.5,190.5
		c-2.9,6.6-6.9,12.4-12,17.5c-6.7,2.2-13.3,4.3-20,6.5c4.2,5.7,8.3,11.3,12.5,17c-0.3,7.4-0.1,14.7,0.5,22c6.3-3,12.8-5.4,19.5-7
		c7,1.5,13.6,3.8,20,7c0.3-7,0.3-14,0-21c3.2-5.9,7.2-11.2,12-16c0.5-0.9,0.6-1.9,0.5-3c-6.8-1.2-13.5-3-20-5.5
		C125.5,202.5,121.2,196.7,117.5,190.5z"/>
</g>
<g>
	<path class="st2" d="M250.5,159.5c4.5-0.6,8.5,0.4,12,3c5.9,9.3,11.9,18.4,18,27.5c10.3,2.8,20.6,5.5,31,8c2.5,1.2,4.3,3,5.5,5.5
		c0.8,3.8,0.5,7.5-1,11c-6.7,8-13.3,16-20,24c0.4,9.5,0.9,19,1.5,28.5c1,12.1-4.4,16.1-16,12c-9-3.5-18-7-27-10.5
		c-7.2,2.3-14.2,5.1-21,8.5c-6.2,2.8-12.5,3.4-19,2c-1.2-0.9-2-2.1-2.5-3.5c-0.3-12.4,0-24.7,1-37c-6.7-8-13.3-16-20-24
		c-1.5-3.5-1.8-7.2-1-11c1.2-2.5,3-4.3,5.5-5.5c10.4-2.5,20.7-5.2,31-8c5.9-8.2,11.4-16.7,16.5-25.5
		C246.4,162.3,248.2,160.6,250.5,159.5z M253.5,190.5c-2.5,6.5-6.2,12.4-11,17.5c-7,2.3-14,4.5-21,6.5c4.4,5.2,8.5,10.5,12.5,16
		c0.7,6.9,0.6,13.7-0.5,20.5c0.3,0.8,0.7,1.7,1,2.5c6.1-3.9,12.8-6.3,20-7c7.2,0.7,13.9,3.1,20,7c0-7.6,0.2-15.3,0.5-23
		c4-5.5,8.1-10.8,12.5-16c-7-2-14-4.2-21-6.5c-4.5-4.9-8.2-10.4-11-16.5C255,190.7,254.4,190.4,253.5,190.5z"/>
</g>
<g>
	<path class="st2" d="M386.5,159.5c5.3-0.9,9.8,0.4,13.5,4c5.4,8.9,10.9,17.8,16.5,26.5c10.4,2.5,20.7,5.2,31,8
		c6.4,3.5,8.2,8.7,5.5,15.5c-6.7,8-13.3,16-20,24c-0.4,10.9,0.1,21.7,1.5,32.5c0.1,5.9-2.7,9.4-8.5,10.5c-3.8-0.8-7.7-1.6-11.5-2.5
		c-7.8-3.4-15.6-6.5-23.5-9.5c-7.3,2.4-14.5,5.3-21.5,8.5c-4.4,1.7-8.9,2.8-13.5,3.5c-4-0.3-6.6-2.3-8-6c0.4-12.3,0.7-24.7,1-37
		c-6.3-7.3-12.7-14.7-19-22c-4.2-7.4-2.7-13.2,4.5-17.5c10.4-2.7,20.7-5.5,31-8.5c5.7-8.5,11.2-17.2,16.5-26
		C383.4,161.9,384.9,160.6,386.5,159.5z M390.5,190.5c-2.9,6.6-6.9,12.4-12,17.5c-6.9,2.5-13.9,4.5-21,6c4,5.3,8.2,10.4,12.5,15.5
		c0.8,1.9,1.3,3.9,1.5,6c-1,6-1.2,12-0.5,18c6.4-3.2,13-5.5,20-7c6.9,1.7,13.5,4.1,20,7c0-7.3,0-14.7,0-22c4.2-5.7,8.3-11.3,12.5-17
		c-6.7-2.1-13.4-4.2-20-6.5c-1.8-1.8-3.7-3.7-5.5-5.5C395.7,198.3,393.2,194.3,390.5,190.5z"/>
</g>
</svg>
