<?xml version="1.0" encoding="UTF-8"?>
<!DOCTYPE svg PUBLIC "-//W3C//DTD SVG 1.1//EN" "http://www.w3.org/Graphics/SVG/1.1/DTD/svg11.dtd">
<svg xmlns="http://www.w3.org/2000/svg" version="1.1" width="512px" height="512px" style="shape-rendering:geometricPrecision; text-rendering:geometricPrecision; image-rendering:optimizeQuality; fill-rule:evenodd; clip-rule:evenodd" xmlns:xlink="http://www.w3.org/1999/xlink">
<g><path style="opacity:0.936" fill="#000000" d="M 214.5,-0.5 C 241.833,-0.5 269.167,-0.5 296.5,-0.5C 353.057,10.5586 386.224,44.5586 396,101.5C 396.333,123.167 396.667,144.833 397,166.5C 397.752,177.509 400.085,188.175 404,198.5C 412.192,212.883 419.858,227.55 427,242.5C 440.517,283.208 435.017,321.042 410.5,356C 400.055,359.036 395.555,355.203 397,344.5C 423.05,303.047 422.383,262.047 395,221.5C 385.483,205.101 380.15,187.434 379,168.5C 378.928,144.468 378.261,120.468 377,96.5C 366.411,52.5784 338.911,26.4117 294.5,18C 268.5,17.3333 242.5,17.3333 216.5,18C 169.101,27.3993 141.267,55.8993 133,103.5C 132.667,125.167 132.333,146.833 132,168.5C 131.047,181.977 128.047,194.977 123,207.5C 116.573,220.025 109.906,232.358 103,244.5C 87.9935,285.465 94.6602,322.465 123,355.5C 128.387,360.558 134.053,365.225 140,369.5C 152.506,365.511 165.339,363.344 178.5,363C 196.787,357.564 205.454,345.398 204.5,326.5C 165.809,305.818 144.642,273.485 141,229.5C 140.333,207.167 140.333,184.833 141,162.5C 142.587,156.62 146.421,154.12 152.5,155C 155.057,155.685 156.891,157.185 158,159.5C 158.11,185.522 158.776,211.522 160,237.5C 170.315,286.148 200.149,313.648 249.5,320C 296.771,319.96 329.271,298.127 347,254.5C 349.961,245.402 351.628,236.068 352,226.5C 352.667,208.833 352.667,191.167 352,173.5C 328.798,170.637 313.798,157.971 307,135.5C 270.307,159.398 230.141,173.565 186.5,178C 180.181,174.685 178.848,169.852 182.5,163.5C 183.665,162.416 184.998,161.583 186.5,161C 231.547,154.437 272.547,138.104 309.5,112C 312.5,111.333 315.5,111.333 318.5,112C 320.815,113.109 322.315,114.943 323,117.5C 324.143,143.651 337.643,156.151 363.5,155C 366.057,155.685 367.891,157.185 369,159.5C 370.136,171.433 370.636,183.433 370.5,195.5C 370.828,212.238 369.994,228.904 368,245.5C 356.607,293.894 326.773,324.06 278.5,336C 260.079,339.816 241.912,338.982 224,333.5C 222.317,348.372 215.817,360.539 204.5,370C 221.119,382.284 237.453,394.951 253.5,408C 254.833,408.667 256.167,408.667 257.5,408C 267.215,399.95 277.215,392.284 287.5,385C 294.845,383.172 299.178,386.006 300.5,393.5C 299.82,396.36 298.487,398.86 296.5,401C 284.833,410 273.167,419 261.5,428C 257.5,430 253.5,430 249.5,428C 228.643,411.642 207.643,395.475 186.5,379.5C 175.917,381.439 165.25,382.939 154.5,384C 124.665,392.49 106.832,411.99 101,442.5C 100.667,463.5 100.333,484.5 100,505.5C 99.1959,508.146 97.6959,510.146 95.5,511.5C 92.5,511.5 89.5,511.5 86.5,511.5C 85.1639,509.99 83.9973,508.323 83,506.5C 82.3333,484.5 82.3333,462.5 83,440.5C 86.8707,414.233 99.704,393.733 121.5,379C 80.1548,341.606 67.6548,296.106 84,242.5C 85.6667,238.5 87.3333,234.5 89,230.5C 95.0669,220.757 100.734,210.757 106,200.5C 110.555,189.614 113.221,178.281 114,166.5C 114.333,144.833 114.667,123.167 115,101.5C 124.776,44.5586 157.943,10.5586 214.5,-0.5 Z"/></g>
<g><path style="opacity:0.934" fill="#000000" d="M 424.5,511.5 C 421.5,511.5 418.5,511.5 415.5,511.5C 413.304,510.146 411.804,508.146 411,505.5C 410.667,484.5 410.333,463.5 410,442.5C 403.606,409.773 384.106,389.94 351.5,383C 332.059,384.299 315.225,378.466 301,365.5C 298.277,362.443 295.944,359.11 294,355.5C 293.017,345.146 297.517,341.313 307.5,344C 312.662,352.09 319.662,358.09 328.5,362C 338.782,363.689 349.115,365.022 359.5,366C 398.316,376.149 421.149,400.982 428,440.5C 428.667,462.5 428.667,484.5 428,506.5C 427.003,508.323 425.836,509.99 424.5,511.5 Z"/></g>
</svg>
