<?xml version="1.0" encoding="UTF-8"?>
<!DOCTYPE svg PUBLIC "-//W3C//DTD SVG 1.1//EN" "http://www.w3.org/Graphics/SVG/1.1/DTD/svg11.dtd">
<svg xmlns="http://www.w3.org/2000/svg" version="1.1" width="512px" height="512px" style="shape-rendering:geometricPrecision; text-rendering:geometricPrecision; image-rendering:optimizeQuality; fill-rule:evenodd; clip-rule:evenodd" xmlns:xlink="http://www.w3.org/1999/xlink">
<g><path style="opacity:0.945" fill="#000000" d="M 121.5,-0.5 C 152.167,-0.5 182.833,-0.5 213.5,-0.5C 215.663,0.46906 217.996,1.30239 220.5,2C 233.6,9.96592 246.767,17.7993 260,25.5C 271.133,24.366 282.299,24.1993 293.5,25C 299.507,25.836 304.507,28.5026 308.5,33C 328.231,33.0362 347.898,33.7028 367.5,35C 375.22,38.7198 380.887,44.3865 384.5,52C 394.5,54.3333 404.5,56.6667 414.5,59C 418.41,60.9066 421.744,63.5733 424.5,67C 432.5,67.3333 440.5,67.6667 448.5,68C 456.3,70.7768 460.3,76.2768 460.5,84.5C 475.837,84.3334 491.17,84.5001 506.5,85C 508.687,86.025 510.354,87.525 511.5,89.5C 511.5,92.1667 511.5,94.8333 511.5,97.5C 510.146,99.6959 508.146,101.196 505.5,102C 490.504,102.5 475.504,102.667 460.5,102.5C 460.176,109.649 456.842,114.816 450.5,118C 441.554,119.083 432.554,119.916 423.5,120.5C 421.644,123.19 419.311,125.356 416.5,127C 405.293,130.136 393.959,132.636 382.5,134.5C 380.59,142.915 375.59,148.748 367.5,152C 347.885,153.284 328.218,153.951 308.5,154C 305.348,157.154 301.681,159.487 297.5,161C 285.858,162.028 274.191,162.862 262.5,163.5C 259.215,170.62 253.882,175.453 246.5,178C 236.216,179.204 225.882,179.87 215.5,180C 210.392,184.885 207.725,190.885 207.5,198C 209.617,207.507 211.617,217.007 213.5,226.5C 213.991,235.019 210.658,241.519 203.5,246C 186.933,245.513 176.099,253.013 171,268.5C 163,296.5 155,324.5 147,352.5C 142.846,362.665 145.68,369.832 155.5,374C 178.5,374.333 201.5,374.667 224.5,375C 241.727,377.363 256.227,384.863 268,397.5C 277.579,410.324 286.912,423.324 296,436.5C 296.667,438.5 297.333,440.5 298,442.5C 298.667,455.833 298.667,469.167 298,482.5C 296.162,490.013 291.996,495.847 285.5,500C 279.071,503.872 272.737,507.706 266.5,511.5C 197.167,511.5 127.833,511.5 58.5,511.5C 41.7117,506.998 30.8784,496.331 26,479.5C 24.3844,451.202 24.0511,422.868 25,394.5C 26.1901,389.787 28.1901,385.453 31,381.5C 38.0988,375.074 44.4321,368.074 50,360.5C 47.8015,308.088 54.1349,256.755 69,206.5C 70.9986,198.149 68.4986,191.649 61.5,187C 45.5,179.667 29.5,172.333 13.5,165C 6.43314,159.667 1.76647,152.834 -0.5,144.5C -0.5,110.5 -0.5,76.5 -0.5,42.5C 3.65084,29.5168 12.3175,21.0168 25.5,17C 47.5,16.6667 69.5,16.3333 91.5,16C 98.7405,14.4385 104.74,10.7718 109.5,5C 113.475,2.85371 117.475,1.02038 121.5,-0.5 Z M 124.5,17.5 C 153.169,17.3334 181.835,17.5 210.5,18C 222.463,24.3153 234.13,31.1486 245.5,38.5C 246.667,77.4957 246.833,116.496 246,155.5C 245.215,157.286 244.049,158.786 242.5,160C 224.886,161.278 207.219,161.945 189.5,162C 167.783,166.42 152.283,178.587 143,198.5C 137.894,218.34 139.56,237.673 148,256.5C 149.777,259.72 151.277,263.053 152.5,266.5C 144.232,295.471 136.065,324.471 128,353.5C 127.108,360.627 127.608,367.627 129.5,374.5C 107.497,374.667 85.4975,374.5 63.5,374C 66.1694,370.664 67.6694,366.831 68,362.5C 66.048,310.449 72.3814,259.449 87,209.5C 89.8105,189.948 82.3105,176.114 64.5,168C 50.9991,162.388 37.6658,156.388 24.5,150C 21.5665,147.736 19.3999,144.902 18,141.5C 17.3333,109.5 17.3333,77.5 18,45.5C 20.1667,40.6667 23.6667,37.1667 28.5,35C 52.1984,34.9268 75.8651,34.2601 99.5,33C 103.719,31.8913 107.719,30.2246 111.5,28C 115.172,23.5209 119.505,20.0209 124.5,17.5 Z M 264.5,42.5 C 273.173,42.3336 281.84,42.5002 290.5,43C 293.455,43.3917 295.622,44.8917 297,47.5C 297.167,62.6667 297.333,77.8333 297.5,93C 297.652,108.922 297.152,124.756 296,140.5C 294.442,142.768 292.276,143.934 289.5,144C 281.173,144.5 272.84,144.666 264.5,144.5C 264.5,138.833 264.5,133.167 264.5,127.5C 268.514,127.666 272.514,127.499 276.5,127C 279.934,125.471 281.6,122.804 281.5,119C 281.327,113.825 278.66,110.825 273.5,110C 270.518,109.502 267.518,109.335 264.5,109.5C 264.5,98.5 264.5,87.5 264.5,76.5C 268.514,76.6655 272.514,76.4988 276.5,76C 282.769,71.0969 283.102,65.7636 277.5,60C 273.27,58.7101 268.936,58.2101 264.5,58.5C 264.5,53.1667 264.5,47.8333 264.5,42.5 Z M 315.5,51.5 C 330.837,51.3334 346.17,51.5001 361.5,52C 362.667,53.1667 363.833,54.3333 365,55.5C 365.667,80.5 365.667,105.5 365,130.5C 364.535,131.931 363.701,133.097 362.5,134C 346.929,135.469 331.263,135.969 315.5,135.5C 315.5,118.833 315.5,102.167 315.5,85.5C 324.506,85.6664 333.506,85.4998 342.5,85C 349.548,82.3506 351.381,77.5172 348,70.5C 347.097,69.2986 345.931,68.4652 344.5,68C 334.839,67.5002 325.172,67.3335 315.5,67.5C 315.5,62.1667 315.5,56.8333 315.5,51.5 Z M 51.5,68.5 C 59.5,68.5 67.5,68.5 75.5,68.5C 75.6666,86.5031 75.4999,104.503 75,122.5C 67.3434,119.004 59.5101,116.004 51.5,113.5C 51.5,98.5 51.5,83.5 51.5,68.5 Z M 383.5,70.5 C 391.739,72.2682 399.906,74.2682 408,76.5C 408.832,87.848 408.666,99.1813 407.5,110.5C 399.623,112.427 391.79,114.427 384,116.5C 383.5,101.17 383.333,85.837 383.5,70.5 Z M 426.5,85.5 C 431.833,85.5 437.167,85.5 442.5,85.5C 442.5,90.8333 442.5,96.1667 442.5,101.5C 437.167,101.5 431.833,101.5 426.5,101.5C 426.5,96.1667 426.5,90.8333 426.5,85.5 Z M 192.5,180.5 C 190.909,186.212 189.909,192.045 189.5,198C 190.642,208.72 192.642,219.22 195.5,229.5C 182.456,229.773 171.622,234.773 163,244.5C 160.08,236.068 158.247,227.401 157.5,218.5C 159.419,196.913 171.085,184.246 192.5,180.5 Z M 45.5,392.5 C 106.532,392.023 167.532,392.523 228.5,394C 238.886,397.062 247.72,402.562 255,410.5C 262.667,421.167 270.333,431.833 278,442.5C 279.908,445.206 280.741,448.206 280.5,451.5C 201.167,451.5 121.833,451.5 42.5,451.5C 42.3334,433.497 42.5001,415.497 43,397.5C 43.8466,395.807 44.6799,394.14 45.5,392.5 Z M 42.5,469.5 C 121.833,469.5 201.167,469.5 280.5,469.5C 280.854,473.637 280.354,477.637 279,481.5C 273.587,485.457 268.087,489.29 262.5,493C 195.5,493.667 128.5,493.667 61.5,493C 50.3172,489.156 43.9839,481.322 42.5,469.5 Z"/></g>
<g><path style="opacity:0.945" fill="#000000" d="M 45.5,50.5 C 57.5046,50.3335 69.5046,50.5001 81.5,51C 86.1849,52.3498 89.6849,55.1832 92,59.5C 93.6354,82.4366 93.9687,105.437 93,128.5C 88.9266,138.788 81.4266,142.621 70.5,140C 60.0041,136.057 49.6707,131.723 39.5,127C 37.0439,124.592 35.2106,121.759 34,118.5C 33.3333,99.8333 33.3333,81.1667 34,62.5C 36.0188,56.6498 39.8522,52.6498 45.5,50.5 Z M 51.5,68.5 C 51.5,83.5 51.5,98.5 51.5,113.5C 59.5101,116.004 67.3434,119.004 75,122.5C 75.4999,104.503 75.6666,86.5031 75.5,68.5C 67.5,68.5 59.5,68.5 51.5,68.5 Z"/></g>
<g><path style="opacity:0.939" fill="#000000" d="M 123.5,50.5 C 154.502,50.3334 185.502,50.5 216.5,51C 221.155,53.8966 222.655,58.0633 221,63.5C 219.363,65.8102 217.196,67.3102 214.5,68C 184.833,68.6667 155.167,68.6667 125.5,68C 118.428,65.1202 116.761,60.2869 120.5,53.5C 121.77,52.7124 122.77,51.7124 123.5,50.5 Z"/></g>
<g><path style="opacity:0.936" fill="#000000" d="M 123.5,84.5 C 154.502,84.3334 185.502,84.5 216.5,85C 221.155,87.8966 222.655,92.0633 221,97.5C 219.773,99.7261 217.939,101.226 215.5,102C 185.5,102.667 155.5,102.667 125.5,102C 118.428,99.1202 116.761,94.2869 120.5,87.5C 121.77,86.7124 122.77,85.7124 123.5,84.5 Z"/></g>
<g><path style="opacity:0.938" fill="#000000" d="M 124.5,118.5 C 154.835,118.333 185.168,118.5 215.5,119C 221.092,121.402 222.925,125.569 221,131.5C 219.773,133.726 217.939,135.226 215.5,136C 185.167,136.667 154.833,136.667 124.5,136C 116.555,130.17 116.555,124.336 124.5,118.5 Z"/></g>
</svg>
