<?xml version="1.0" encoding="UTF-8"?>
<!DOCTYPE svg PUBLIC "-//W3C//DTD SVG 1.1//EN" "http://www.w3.org/Graphics/SVG/1.1/DTD/svg11.dtd">
<svg xmlns="http://www.w3.org/2000/svg" version="1.1" width="512px" height="512px" style="shape-rendering:geometricPrecision; text-rendering:geometricPrecision; image-rendering:optimizeQuality; fill-rule:evenodd; clip-rule:evenodd" xmlns:xlink="http://www.w3.org/1999/xlink">
<g><path style="opacity:0.951" fill="#000000" d="M 84.5,-0.5 C 210.5,-0.5 336.5,-0.5 462.5,-0.5C 465.254,1.32859 466.754,3.99526 467,7.5C 467.667,145.167 467.667,282.833 467,420.5C 466.768,423.738 465.268,426.238 462.5,428C 440.423,428.583 428.09,439.749 425.5,461.5C 427.965,482.796 439.965,493.962 461.5,495C 469.122,500.101 469.455,505.601 462.5,511.5C 336.5,511.5 210.5,511.5 84.5,511.5C 57.675,503.391 44.0084,485.224 43.5,457C 44.3324,317.903 44.8324,178.736 45,39.5C 50.3483,18.319 63.5149,4.98567 84.5,-0.5 Z M 103.5,16.5 C 218.833,16.5 334.167,16.5 449.5,16.5C 449.5,148.167 449.5,279.833 449.5,411.5C 334.167,411.5 218.833,411.5 103.5,411.5C 103.5,279.833 103.5,148.167 103.5,16.5 Z M 82.5,18.5 C 83.5,18.5 84.5,18.5 85.5,18.5C 85.5,149.833 85.5,281.167 85.5,412.5C 76.5834,413.875 68.75,417.542 62,423.5C 61.3333,297.167 61.3333,170.833 62,44.5C 64.3213,32.1517 71.1547,23.4851 82.5,18.5 Z M 90.5,428.5 C 200.167,428.333 309.834,428.5 419.5,429C 403.511,450.705 403.511,472.372 419.5,494C 309.5,494.667 199.5,494.667 89.5,494C 72.1222,490.121 62.7888,479.287 61.5,461.5C 63.099,443.247 72.7657,432.247 90.5,428.5 Z"/></g>
</svg>
