<?xml version="1.0" encoding="UTF-8"?>
<!DOCTYPE svg PUBLIC "-//W3C//DTD SVG 1.1//EN" "http://www.w3.org/Graphics/SVG/1.1/DTD/svg11.dtd">
<svg xmlns="http://www.w3.org/2000/svg" version="1.1" width="512px" height="512px" style="shape-rendering:geometricPrecision; text-rendering:geometricPrecision; image-rendering:optimizeQuality; fill-rule:evenodd; clip-rule:evenodd" xmlns:xlink="http://www.w3.org/1999/xlink">
<g><path style="opacity:0.943" fill="#000000" d="M 263.5,-0.5 C 277.167,-0.5 290.833,-0.5 304.5,-0.5C 383.58,9.78142 441.747,50.1148 479,120.5C 512.565,196.614 506.898,269.614 462,339.5C 450.245,355.923 436.412,370.423 420.5,383C 410.053,384.553 405.553,380.053 407,369.5C 471.551,311.657 492.884,240.657 471,156.5C 456.75,114.806 431.916,80.9723 396.5,55C 338.921,16.974 277.588,9.64064 212.5,33C 189.113,42.7481 168.113,56.0815 149.5,73C 140.947,75.7237 135.614,72.7237 133.5,64C 134.288,60.5373 135.954,57.5373 138.5,55C 174.285,23.4447 215.952,4.94467 263.5,-0.5 Z"/></g>
<g><path style="opacity:0.958" fill="#000000" d="M 152.5,511.5 C 107.167,511.5 61.8333,511.5 16.5,511.5C 14.193,510.023 12.3597,508.023 11,505.5C 10.3333,417.833 10.3333,330.167 11,242.5C 13.7217,236.108 18.555,233.775 25.5,235.5C 25.3334,219.83 25.5001,204.163 26,188.5C 27.3821,183.058 30.8821,180.392 36.5,180.5C 36.3333,135.832 36.5,91.1654 37,46.5C 38.2969,41.7109 41.4635,39.3776 46.5,39.5C 74.9119,51.9558 102.745,65.6225 130,80.5C 130.667,81.8333 131.333,83.1667 132,84.5C 132.5,116.498 132.667,148.498 132.5,180.5C 136.689,180.182 139.855,181.848 142,185.5C 142.5,202.163 142.667,218.83 142.5,235.5C 147.121,234.993 151.454,235.826 155.5,238C 156.717,239.648 157.55,241.481 158,243.5C 158.667,330.167 158.667,416.833 158,503.5C 157.375,507.109 155.542,509.776 152.5,511.5 Z M 56.5,66.5 C 74.4734,75.4867 92.4734,84.4867 110.5,93.5C 111.5,122.492 111.833,151.492 111.5,180.5C 93.1667,180.5 74.8333,180.5 56.5,180.5C 56.5,142.5 56.5,104.5 56.5,66.5 Z M 46.5,200.5 C 71.8333,200.5 97.1667,200.5 122.5,200.5C 122.5,212.167 122.5,223.833 122.5,235.5C 97.1667,235.5 71.8333,235.5 46.5,235.5C 46.5,223.833 46.5,212.167 46.5,200.5 Z M 30.5,255.5 C 66.1667,255.5 101.833,255.5 137.5,255.5C 137.5,334.167 137.5,412.833 137.5,491.5C 101.833,491.5 66.1667,491.5 30.5,491.5C 30.5,412.833 30.5,334.167 30.5,255.5 Z"/></g>
<g><path style="opacity:0.942" fill="#000000" d="M 272.5,39.5 C 338.673,37.8386 391.173,63.5052 430,116.5C 470.616,182.982 470.283,249.315 429,315.5C 385.859,372.971 328.359,397.471 256.5,389C 223.749,383.452 194.749,370.119 169.5,349C 163.527,344.714 162.027,339.214 165,332.5C 168.396,328.797 172.563,327.631 177.5,329C 226.897,371.109 282.23,381.109 343.5,359C 404.05,330.432 436.05,282.599 439.5,215.5C 436.942,153.168 408.609,107.001 354.5,77C 292.807,49.2118 235.474,56.2118 182.5,98C 173.099,106.732 164.432,116.065 156.5,126C 147.907,129.205 142.574,126.371 140.5,117.5C 141.183,113.801 142.683,110.468 145,107.5C 178.112,67.3592 220.612,44.6925 272.5,39.5 Z"/></g>
<g><path style="opacity:0.948" fill="#000000" d="M 394.5,135.5 C 406.384,134.879 410.551,140.212 407,151.5C 346.833,211.667 286.667,271.833 226.5,332C 219.915,335.042 214.748,333.542 211,327.5C 210.183,324.036 210.517,320.702 212,317.5C 272.728,256.605 333.562,195.938 394.5,135.5 Z"/></g>
<g><path style="opacity:0.918" fill="#000000" d="M 406.5,180.5 C 418.579,182.66 421.413,188.994 415,199.5C 370.833,243.667 326.667,287.833 282.5,332C 276.606,335.678 271.106,335.178 266,330.5C 263.879,326.003 264.212,321.67 267,317.5C 311.833,272.667 356.667,227.833 401.5,183C 403.315,182.243 404.981,181.41 406.5,180.5 Z"/></g>
<g><path style="opacity:0.947" fill="#000000" d="M 172.5,394.5 C 278.501,394.333 384.501,394.5 490.5,395C 499.79,397.079 502.624,402.579 499,411.5C 491.851,429.652 481.351,445.485 467.5,459C 452.098,471.584 434.432,478.917 414.5,481C 333.167,481.667 251.833,481.667 170.5,481C 163.943,478.315 161.777,473.481 164,466.5C 165.5,465 167,463.5 168.5,462C 247.833,461.667 327.167,461.333 406.5,461C 437.562,459.146 459.895,444.313 473.5,416.5C 372.502,415.667 271.502,415.167 170.5,415C 165.45,413.566 163.117,410.233 163.5,405C 163.85,399.155 166.85,395.655 172.5,394.5 Z"/></g>
</svg>
