<?xml version="1.0" encoding="utf-8"?>
<!-- Generator: Adobe Illustrator 24.3.0, SVG Export Plug-In . SVG Version: 6.00 Build 0)  -->
<svg version="1.1" id="Слой_1" xmlns="http://www.w3.org/2000/svg" xmlns:xlink="http://www.w3.org/1999/xlink" x="0px" y="0px"
	 viewBox="0 0 512 512" style="enable-background:new 0 0 512 512;" xml:space="preserve">
<style type="text/css">
	.st0{opacity:0.935;fill-rule:evenodd;clip-rule:evenodd;enable-background:new    ;}
	.st1{opacity:0.896;fill-rule:evenodd;clip-rule:evenodd;enable-background:new    ;}
	.st2{opacity:0.893;fill-rule:evenodd;clip-rule:evenodd;enable-background:new    ;}
	.st3{opacity:0.898;fill-rule:evenodd;clip-rule:evenodd;enable-background:new    ;}
	.st4{opacity:0.925;fill-rule:evenodd;clip-rule:evenodd;enable-background:new    ;}
</style>
<path class="st0" d="M439,295.5c-15-74.4-58.5-123.7-130.5-148c-0.7-6.2-1.4-12.4-2-18.5c4.8-5.5,9.7-11,14.5-16.5
	c3.7-10.2,0.2-14.3-10.5-12.5c-5.7,6.3-11.3,12.7-17,19c-4,0.5-8,0.7-12,0.5c4.4-18.1,9-36.1,14-54c14.7-1.2,29.3-1.3,44-0.5
	c-2.8,3.5-5.7,7-8.5,10.5c-2.8,10.5,1,14.3,11.5,11.5c4.5-5.2,9-10.3,13.5-15.5c5.5-8.8,5.9-17.8,1-27C344.5,31.3,332,18.2,319.5,5
	c-3.3-2.1-6.6-4-10-5.5c-36,0-72,0-108,0c-3.4,1.5-6.7,3.4-10,5.5c-12.5,13.2-25,26.3-37.5,39.5c-4.9,9.2-4.5,18.2,1,27
	c16.5,19.2,33,38.3,49.5,57.5c-0.6,6.1-1.3,12.3-2,18.5c-33.9,10.4-62.8,28.8-86.5,55c-48.1,59-58.7,124.3-32,196
	c30.5,65,81.4,102.7,152.5,113c12.7,0,25.3,0,38,0c36.4-4.4,69.1-17.9,98-40.5C426.2,424.7,448.3,366.2,439,295.5z M291.5,136
	c1.1,3.4,1.3,6.9,0.5,10.5c-24.1,1.2-48.3,1.3-72.5,0.5c-1.3-3.8-1.3-7.7,0-11.5C243.5,135.3,267.5,135.5,291.5,136z M232.5,64.5
	c15.3,0,30.7,0,46,0c-4.3,17.7-8.8,35.4-13.5,53c-2.9,1.3-6.1,1.9-9.5,2c-3.4-0.1-6.6-0.7-9.5-2C241.3,99.9,236.8,82.2,232.5,64.5z
	 M316.5,26.5c7.5,6.7,14.5,13.8,21,21.5c-11.3,0.7-22.7,0.7-34,0C308,40.9,312.3,33.7,316.5,26.5z M302.5,15c0.5,0.4,0.8,0.9,1,1.5
	c-4.8,8.3-9.7,16.7-14.5,25c-6-8.8-12.2-17.5-18.5-26C281,14.3,291.7,14.2,302.5,15z M257,23.5c5.4,8.3,10.9,16.4,16.5,24.5
	c-12,0.7-24,0.7-36,0c5.9-8.4,11.6-16.9,17-25.5C255.5,22.4,256.3,22.7,257,23.5z M208.5,14.5c10.7-0.2,21.3,0,32,0.5
	c-6.2,8.8-12.3,17.7-18.5,26.5c-4.8-8.3-9.7-16.7-14.5-25C207.9,15.8,208.2,15.1,208.5,14.5z M193.5,26.5c5,6.8,9.7,14,14,21.5
	c-11.3,0.7-22.7,0.7-34,0C180,40.7,186.7,33.5,193.5,26.5z M171.5,65.5c14.5-1.3,29.2-1.3,44,0c5,17.9,9.7,35.9,14,54
	c-4,0.2-8,0-12-0.5C202.3,101,187,83.1,171.5,65.5z M415,384.5c-21.8,55.2-61.3,90.7-118.5,106.5c-73.6,14.6-133.5-7.6-179.5-66.5
	c-38.9-60-41.6-121.7-8-185c24.3-39.1,58.4-65.1,102.5-78c1.6,0.6,3.3,1.1,5,1.5c69.4-15.5,126.9,3.6,172.5,57.5
	C426,270.6,434.6,325.2,415,384.5z"/>
<g>
	<path class="st1" d="M119.5,3.5c2.5-0.2,4.8,0.3,7,1.5c5.2,5.2,10.3,10.3,15.5,15.5c2.6,4.9,1.8,9.1-2.5,12.5c-3.1,0.8-6.1,0.5-9-1
		c-5.2-5.2-10.3-10.3-15.5-15.5C112.5,10.8,114,6.4,119.5,3.5z"/>
</g>
<g>
	<path class="st2" d="M385.5,3.5c9.5-0.2,12.7,4.1,9.5,13c-5.2,5.2-10.3,10.3-15.5,15.5c-5.4,2.9-9.6,1.7-12.5-3.5
		c-0.8-2.8-0.4-5.5,1-8C373.7,14.6,379.6,8.9,385.5,3.5z"/>
</g>
<g>
	<path class="st3" d="M99.5,49.5c8.7-0.2,17.3,0,26,0.5c4.4,2.2,5.9,5.7,4.5,10.5c-0.8,2.2-2.3,3.7-4.5,4.5c-8.7,0.7-17.3,0.7-26,0
		c-5.1-3-6.2-7.1-3.5-12.5C97.1,51.4,98.3,50.4,99.5,49.5z"/>
</g>
<g>
	<path class="st1" d="M384.5,49.5c8.7-0.2,17.3,0,26,0.5c4.4,2.2,5.9,5.7,4.5,10.5c-0.8,2.2-2.3,3.7-4.5,4.5c-8.7,0.7-17.3,0.7-26,0
		c-5-3-6.2-7.2-3.5-12.5C382.1,51.4,383.3,50.4,384.5,49.5z"/>
</g>
<g>
	<path class="st2" d="M132.5,81.5c8.7-0.5,12.2,3.5,10.5,12c-5.5,5.5-11,11-16.5,16.5c-10.5,2.9-14.3-1-11.5-11.5
		C120.7,92.6,126.6,86.9,132.5,81.5z"/>
</g>
<g>
	<path class="st2" d="M371.5,81.5c2.8-0.3,5.5,0.2,8,1.5c5.2,5.2,10.3,10.3,15.5,15.5c2.8,10.5-1,14.3-11.5,11.5
		c-5.2-5.2-10.3-10.3-15.5-15.5C365.3,89,366.5,84.7,371.5,81.5z"/>
</g>
<g>
	<path class="st4" d="M238.5,178.5c62.5-4,110.6,20,144.5,72c9.4,16.1,15.6,33.5,18.5,52c-0.3,7.1-4,10-11,8.5
		c-1.4-0.5-2.6-1.3-3.5-2.5c-12.9-64.6-51.7-102.4-116.5-113.5c-63.2-3.5-108.7,23-136.5,79.5c-21.2,59.5-8.7,110.6,37.5,153.5
		c43.6,33,90.6,38.7,141,17c44.8-23.7,70.1-60.9,76-111.5c4.8-4.2,9.3-3.9,13.5,1c-1.5,36.7-14.8,68.4-40,95
		c-48.4,44.8-103.5,55.6-165.5,32.5c-61.1-30-90.6-79.1-88.5-147.5c5.3-51.7,30.1-90.9,74.5-117.5
		C200.2,187.5,218.9,181.3,238.5,178.5z"/>
</g>
</svg>
