<?xml version="1.0" encoding="UTF-8"?>
<!DOCTYPE svg PUBLIC "-//W3C//DTD SVG 1.1//EN" "http://www.w3.org/Graphics/SVG/1.1/DTD/svg11.dtd">
<svg xmlns="http://www.w3.org/2000/svg" version="1.1" width="512px" height="512px" style="shape-rendering:geometricPrecision; text-rendering:geometricPrecision; image-rendering:optimizeQuality; fill-rule:evenodd; clip-rule:evenodd" xmlns:xlink="http://www.w3.org/1999/xlink">
<g><path style="opacity:0.94" fill="#000000" d="M 228.5,-0.5 C 239.5,-0.5 250.5,-0.5 261.5,-0.5C 292.661,3.74666 318.328,17.9133 338.5,42C 371.955,48.7884 392.122,68.955 399,102.5C 403.532,128.778 400.365,154.112 389.5,178.5C 395.124,199.357 394.291,220.024 387,240.5C 381.447,253.386 372.447,263.053 360,269.5C 358.394,290.713 349.394,308.047 333,321.5C 332.167,338.177 332.334,354.843 333.5,371.5C 345.917,383.531 359.25,394.364 373.5,404C 378.003,406.39 382.669,408.39 387.5,410C 402.931,412.81 417.598,417.81 431.5,425C 448.34,434.587 465.34,443.921 482.5,453C 486.5,458 486.5,463 482.5,468C 452.122,484.571 419.788,495.571 385.5,501C 353.214,506.361 320.881,509.861 288.5,511.5C 265.167,511.5 241.833,511.5 218.5,511.5C 174.331,509.356 130.664,502.856 87.5,492C 65.9554,486.601 45.7888,478.101 27,466.5C 24.891,462.219 25.0577,458.052 27.5,454C 49.5817,441.598 71.915,429.598 94.5,418C 103.951,414.554 113.618,411.887 123.5,410C 128.167,408 132.833,406 137.5,404C 151.558,394.114 164.891,383.28 177.5,371.5C 178.666,354.843 178.833,338.177 178,321.5C 161.606,308.047 152.606,290.713 151,269.5C 128.898,256.319 117.898,236.652 118,210.5C 116.79,200.26 117.79,190.26 121,180.5C 122.561,177.217 124.727,174.383 127.5,172C 117.642,144.272 116.142,116.105 123,87.5C 141.335,37.9988 176.502,8.66547 228.5,-0.5 Z M 231.5,17.5 C 271.795,13.411 304.128,27.2443 328.5,59C 357.259,61.7573 374.759,77.2573 381,105.5C 384.88,127.283 382.38,148.283 373.5,168.5C 368.881,169.757 364.215,170.757 359.5,171.5C 357.831,152.156 353.331,133.49 346,115.5C 341.457,104.56 334.623,95.3933 325.5,88C 321.5,86 317.5,86 313.5,88C 300.308,107.507 282.308,120.507 259.5,127C 252.312,129.297 244.978,130.964 237.5,132C 218.5,132.333 199.5,132.667 180.5,133C 158.978,136.185 147.644,148.685 146.5,170.5C 124.641,115.08 137.641,69.9134 185.5,35C 199.775,26.0798 215.108,20.2464 231.5,17.5 Z M 320.5,109.5 C 327.411,117.989 332.245,127.656 335,138.5C 343.943,171.943 345.776,205.776 340.5,240C 341.54,251.487 341.706,262.987 341,274.5C 339.572,283.021 336.238,290.687 331,297.5C 325.054,303.446 319.054,309.446 313,315.5C 303.955,327.756 294.788,339.923 285.5,352C 282.211,354.478 278.544,356.144 274.5,357C 260.444,357.928 246.444,357.595 232.5,356C 229.059,354.224 225.892,352.057 223,349.5C 210.888,331.045 196.888,314.045 181,298.5C 174.81,290.94 171.144,282.273 170,272.5C 169.43,263.658 169.597,254.824 170.5,246C 168.927,226.839 167.427,207.673 166,188.5C 165.083,179.091 165.416,169.758 167,160.5C 170.614,154.937 175.781,151.77 182.5,151C 201.167,150.667 219.833,150.333 238.5,150C 264.445,146.914 287.778,137.58 308.5,122C 312.704,117.964 316.704,113.798 320.5,109.5 Z M 137.5,187.5 C 142.093,187.167 145.593,188.834 148,192.5C 149.032,208.378 150.532,224.212 152.5,240C 152.435,242.591 151.935,245.091 151,247.5C 145.345,241.841 141.345,235.174 139,227.5C 135.41,214.193 134.91,200.86 137.5,187.5 Z M 369.5,187.5 C 373.664,187.772 375.497,190.106 375,194.5C 375.766,207.805 374.099,220.805 370,233.5C 367.443,238.723 364.109,243.39 360,247.5C 358.978,245.298 358.478,242.965 358.5,240.5C 359.11,230.733 360.443,221.066 362.5,211.5C 361.468,205.524 361.302,199.524 362,193.5C 363.707,190.41 366.207,188.41 369.5,187.5 Z M 196.5,344.5 C 200.752,350.599 205.252,356.599 210,362.5C 215.108,367.974 221.275,371.807 228.5,374C 244.127,375.568 259.793,375.901 275.5,375C 287.409,373.792 296.909,368.292 304,358.5C 307.333,353.833 310.667,349.167 314,344.5C 314.333,366.833 314.667,389.167 315,411.5C 319.778,419.647 325.445,420.314 332,413.5C 332.333,407.5 332.667,401.5 333,395.5C 342.805,404.815 353.305,413.149 364.5,420.5C 361.44,439.608 354.274,456.942 343,472.5C 334.391,483.55 323.224,490.05 309.5,492C 270.802,494.261 232.135,493.927 193.5,491C 174.084,482.247 160.917,467.747 154,447.5C 150.718,438.703 148.218,429.703 146.5,420.5C 157.695,413.149 168.195,404.815 178,395.5C 178.333,401.5 178.667,407.5 179,413.5C 185.555,420.314 191.222,419.647 196,411.5C 196.5,389.169 196.667,366.836 196.5,344.5 Z M 126.5,427.5 C 128.124,427.36 129.29,428.027 130,429.5C 134.127,450.916 142.961,470.083 156.5,487C 121.098,483.316 87.0985,474.316 54.5,460C 70.0396,451.397 85.7063,443.064 101.5,435C 109.906,432.321 118.239,429.821 126.5,427.5 Z M 381.5,427.5 C 390.988,429.372 400.322,431.872 409.5,435C 425.454,442.977 441.121,451.477 456.5,460.5C 423.774,474.348 389.774,483.181 354.5,487C 368.498,469.499 377.498,449.666 381.5,427.5 Z"/></g>
</svg>
