<?xml version="1.0" encoding="UTF-8"?>
<!DOCTYPE svg PUBLIC "-//W3C//DTD SVG 1.1//EN" "http://www.w3.org/Graphics/SVG/1.1/DTD/svg11.dtd">
<svg xmlns="http://www.w3.org/2000/svg" version="1.1" width="512px" height="512px" style="shape-rendering:geometricPrecision; text-rendering:geometricPrecision; image-rendering:optimizeQuality; fill-rule:evenodd; clip-rule:evenodd" xmlns:xlink="http://www.w3.org/1999/xlink">
<g><path style="opacity:0.931" fill="#000000" d="M 430.5,30.5 C 460.198,31.6804 476.864,47.0137 480.5,76.5C 479.815,86.3893 476.648,95.3893 471,103.5C 452.333,125.5 433.667,147.5 415,169.5C 412.163,178.024 411.83,186.691 414,195.5C 421.333,256.833 428.667,318.167 436,379.5C 438.34,393.81 435.34,406.81 427,418.5C 414.833,430.667 402.667,442.833 390.5,455C 385.676,457.446 381.509,456.613 378,452.5C 359.965,389.02 341.632,325.686 323,262.5C 292.834,290.008 261.5,316.008 229,340.5C 226.192,344.758 224.692,349.425 224.5,354.5C 229.037,378.519 233.704,402.519 238.5,426.5C 238.079,434.263 235.579,441.263 231,447.5C 220.833,457.667 210.667,467.833 200.5,478C 196.5,480 192.5,480 188.5,478C 176.085,450.335 163.252,422.835 150,395.5C 141.833,380.667 130.333,369.167 115.5,361C 88.4066,347.786 61.0733,335.12 33.5,323C 31.5715,319.744 31.0715,316.244 32,312.5C 42.1366,301.363 52.6366,290.529 63.5,280C 69.7368,275.421 76.7368,272.921 84.5,272.5C 108.481,277.296 132.481,281.963 156.5,286.5C 161.575,286.308 166.242,284.808 170.5,282C 194.992,249.5 220.992,218.166 248.5,188C 185.314,169.368 121.98,151.035 58.5,133C 54.3873,129.491 53.554,125.324 56,120.5C 68.1667,108.333 80.3333,96.1667 92.5,84C 104.19,75.6599 117.19,72.6599 131.5,75C 192.833,82.3333 254.167,89.6667 315.5,97C 327.679,100.662 338.679,98.6622 348.5,91C 368.167,74 387.833,57 407.5,40C 414.562,35.1284 422.229,31.9618 430.5,30.5 Z M 428.5,48.5 C 448.624,47.2989 459.957,56.6322 462.5,76.5C 462.366,82.7336 460.533,88.4003 457,93.5C 439.667,113.5 422.333,133.5 405,153.5C 396.935,163.813 393.935,175.48 396,188.5C 403.667,252.5 411.333,316.5 419,380.5C 420.526,389.321 419.192,397.654 415,405.5C 407.031,414.47 398.697,423.137 390,431.5C 371.801,368.569 353.801,305.569 336,242.5C 333.459,237.931 329.625,236.431 324.5,238C 301.129,259.039 277.463,279.706 253.5,300C 242.115,309.052 230.449,317.719 218.5,326C 209.181,336.437 205.681,348.604 208,362.5C 212.504,383.846 217.004,405.18 221.5,426.5C 220.668,429.161 219.834,431.828 219,434.5C 211.986,441.681 204.819,448.681 197.5,455.5C 186.35,431.864 175.183,408.197 164,384.5C 159.05,377.216 153.717,370.216 148,363.5C 141.118,357.617 133.952,352.117 126.5,347C 102.803,335.817 79.1359,324.65 55.5,313.5C 62.3187,306.181 69.3187,299.014 76.5,292C 79.0618,290.859 81.7284,290.026 84.5,289.5C 105.847,293.936 127.181,298.436 148.5,303C 165.048,305.707 178.548,300.541 189,287.5C 214.409,252.744 242.076,219.744 272,188.5C 274.776,182.866 273.609,178.366 268.5,175C 205.455,157.155 142.455,139.155 79.5,121C 87.1667,113.333 94.8333,105.667 102.5,98C 108.51,93.2883 115.343,91.1216 123,91.5C 189.531,99.0455 256.031,106.879 322.5,115C 335.52,117.065 347.187,114.065 357.5,106C 377.5,88.6667 397.5,71.3333 417.5,54C 421.017,51.6738 424.683,49.8405 428.5,48.5 Z"/></g>
</svg>
