<?xml version="1.0" encoding="UTF-8"?>
<!DOCTYPE svg PUBLIC "-//W3C//DTD SVG 1.1//EN" "http://www.w3.org/Graphics/SVG/1.1/DTD/svg11.dtd">
<svg xmlns="http://www.w3.org/2000/svg" version="1.1" width="512px" height="512px" style="shape-rendering:geometricPrecision; text-rendering:geometricPrecision; image-rendering:optimizeQuality; fill-rule:evenodd; clip-rule:evenodd" xmlns:xlink="http://www.w3.org/1999/xlink">
<g><path style="opacity:0.935" fill="#000000" d="M 25.5,-0.5 C 31.5,-0.5 37.5,-0.5 43.5,-0.5C 74.5317,5.35147 96.6984,22.6848 110,51.5C 115.018,67.193 114.518,82.693 108.5,98C 123.139,106.307 133.972,118.141 141,133.5C 160.496,177.992 173.496,224.325 180,272.5C 183.566,308.595 187.566,344.595 192,380.5C 270.222,369.68 348.555,359.347 427,349.5C 456.522,351.083 478.856,364.417 494,389.5C 504.593,408.062 507.927,427.728 504,448.5C 500.07,460.219 492.237,468.052 480.5,472C 471.552,473.307 462.552,473.807 453.5,473.5C 451.661,493.214 441.328,505.88 422.5,511.5C 320.833,511.5 219.167,511.5 117.5,511.5C 110.331,508.492 105.831,503.158 104,495.5C 98,470.833 92,446.167 86,421.5C 81.7723,401.84 87.6057,386.007 103.5,374C 118.67,365.741 134.003,365.408 149.5,373C 153.929,375.261 157.596,378.428 160.5,382.5C 165.579,383.714 170.579,383.381 175.5,381.5C 171.804,348.878 168.304,316.211 165,283.5C 158.937,228.656 143.604,176.656 119,127.5C 111.481,118.488 101.981,112.655 90.5,110C 78.8685,108.532 67.2018,108.199 55.5,109C 48.9791,111.685 45.3124,116.519 44.5,123.5C 61.7305,200.486 78.8971,277.486 96,354.5C 97.6746,365.5 93.3413,369.167 83,365.5C 55.7539,252.773 29.5872,139.773 4.5,26.5C 5.93788,13.0737 12.9379,4.07366 25.5,-0.5 Z M 28.5,15.5 C 56.5766,15.4515 77.7433,27.4515 92,51.5C 98.8122,65.2562 99.3122,79.2562 93.5,93.5C 80.1794,92.5273 66.846,92.3607 53.5,93C 47.7502,93.7911 42.9169,96.2911 39,100.5C 33.1772,77.542 27.5105,54.542 22,31.5C 20.062,24.3891 22.2287,19.0558 28.5,15.5 Z M 424.5,365.5 C 458.301,367.989 479.468,385.656 488,418.5C 489.928,427.189 489.928,435.856 488,444.5C 485.041,450.79 480.207,454.956 473.5,457C 443.167,457.333 412.833,457.667 382.5,458C 375.615,463.465 375.948,468.465 383.5,473C 401.497,473.5 419.497,473.667 437.5,473.5C 436.302,484.75 430.302,491.917 419.5,495C 343.498,495.833 267.498,495.667 191.5,494.5C 189.675,487.533 188.008,480.533 186.5,473.5C 242.168,473.667 297.834,473.5 353.5,473C 358.069,470.459 359.569,466.625 358,461.5C 356.833,460.333 355.667,459.167 354.5,458C 297.168,457.5 239.834,457.333 182.5,457.5C 178.17,438.847 173.837,420.181 169.5,401.5C 169.818,400.353 170.484,399.519 171.5,399C 256.01,388.062 340.344,376.896 424.5,365.5 Z M 120.5,383.5 C 134.979,381.322 145.479,386.655 152,399.5C 160.132,431.361 167.632,463.361 174.5,495.5C 156.83,495.667 139.164,495.5 121.5,495C 113.569,466.943 106.569,438.609 100.5,410C 101.769,396.913 108.435,388.08 120.5,383.5 Z"/></g>
</svg>
