<?xml version="1.0" encoding="UTF-8"?>
<!DOCTYPE svg PUBLIC "-//W3C//DTD SVG 1.1//EN" "http://www.w3.org/Graphics/SVG/1.1/DTD/svg11.dtd">
<svg xmlns="http://www.w3.org/2000/svg" version="1.1" width="512px" height="512px" style="shape-rendering:geometricPrecision; text-rendering:geometricPrecision; image-rendering:optimizeQuality; fill-rule:evenodd; clip-rule:evenodd" xmlns:xlink="http://www.w3.org/1999/xlink">
<g><path style="opacity:0.971" fill="#000000" d="M 249.5,83.5 C 282.986,84.1511 298.486,101.151 296,134.5C 287.566,159.245 270.4,169.412 244.5,165C 221.511,156.543 211.677,140.043 215,115.5C 219.983,97.6799 231.483,87.0132 249.5,83.5 Z"/></g>
<g><path style="opacity:0.973" fill="#000000" d="M 246.5,214.5 C 271.86,211.725 288.36,222.391 296,246.5C 299.264,271.88 288.764,288.38 264.5,296C 239.12,299.264 222.62,288.764 215,264.5C 211.945,239.094 222.445,222.428 246.5,214.5 Z"/></g>
<g><path style="opacity:0.972" fill="#000000" d="M 249.5,344.5 C 282.955,345.122 298.455,362.122 296,395.5C 287.68,420.416 270.513,430.582 244.5,426C 221.424,417.554 211.59,401.054 215,376.5C 220.009,358.652 231.509,347.986 249.5,344.5 Z"/></g>
</svg>
