<?xml version="1.0" encoding="UTF-8"?>
<!DOCTYPE svg PUBLIC "-//W3C//DTD SVG 1.1//EN" "http://www.w3.org/Graphics/SVG/1.1/DTD/svg11.dtd">
<svg xmlns="http://www.w3.org/2000/svg" version="1.1" width="512px" height="512px" style="shape-rendering:geometricPrecision; text-rendering:geometricPrecision; image-rendering:optimizeQuality; fill-rule:evenodd; clip-rule:evenodd" xmlns:xlink="http://www.w3.org/1999/xlink">
<g><path style="opacity:0.933" fill="#000000" d="M 511.5,251.5 C 511.5,254.167 511.5,256.833 511.5,259.5C 509.887,261.27 507.887,262.436 505.5,263C 487.824,263.167 470.157,263.667 452.5,264.5C 430.183,301.003 402.85,333.503 370.5,362C 341.207,387.967 310.207,411.634 277.5,433C 271.488,437.007 265.155,440.507 258.5,443.5C 240.495,434.504 223.495,424.004 207.5,412C 167.905,382.413 131.405,349.246 98,312.5C 87.5579,299.78 77.7246,286.613 68.5,273C 47.1667,272.667 25.8333,272.333 4.5,272C 2.67694,271.003 1.01027,269.836 -0.5,268.5C -0.5,265.833 -0.5,263.167 -0.5,260.5C 1.08167,258.03 3.41501,256.53 6.5,256C 23.8429,255.833 41.1763,255.333 58.5,254.5C 41.7867,222.46 37.2867,188.793 45,153.5C 62.455,100.014 99.2883,71.3471 155.5,67.5C 192.708,70.4388 226.708,82.4388 257.5,103.5C 288.162,82.5867 321.996,70.5867 359,67.5C 404.966,69.4673 438.966,90.4673 461,130.5C 474.597,160.149 477.263,190.816 469,222.5C 466.86,230.754 464.027,238.754 460.5,246.5C 475.822,247.333 491.156,247.833 506.5,248C 508.323,248.997 509.99,250.164 511.5,251.5 Z M 149.5,84.5 C 176.87,84.9005 202.537,91.7338 226.5,105C 236.166,110.164 245.5,115.831 254.5,122C 258.12,122.841 261.454,122.174 264.5,120C 293.002,99.7514 324.668,87.9181 359.5,84.5C 407.157,87.9973 438.657,112.331 454,157.5C 459.084,179 458.417,200.333 452,221.5C 448.921,230.24 445.754,238.907 442.5,247.5C 426.486,247.833 410.486,247.499 394.5,246.5C 388.2,235.038 381.7,223.704 375,212.5C 369.643,208.213 364.643,208.547 360,213.5C 355,220.833 350,228.167 345,235.5C 335.802,206.905 326.802,178.239 318,149.5C 316.471,146.066 313.804,144.4 310,144.5C 307.186,144.408 304.853,145.408 303,147.5C 287.468,199.763 272.135,252.097 257,304.5C 240.333,262.5 223.667,220.5 207,178.5C 202.702,174.621 198.369,174.621 194,178.5C 180.911,203.678 168.078,229.011 155.5,254.5C 129.84,255.666 104.173,255.833 78.5,255C 57.5205,220.337 53.3538,183.837 66,145.5C 82.7737,109.877 110.607,89.5441 149.5,84.5 Z M 309.5,182.5 C 318.109,207.906 326.276,233.573 334,259.5C 338.006,264.166 342.506,264.666 347.5,261C 354.124,251.587 360.624,242.087 367,232.5C 372,241.167 377,249.833 382,258.5C 383.227,260.726 385.061,262.226 387.5,263C 402.5,263.333 417.5,263.667 432.5,264C 422.853,278.79 412.353,292.957 401,306.5C 358.214,352.343 310.547,392.009 258,425.5C 207.641,393.506 161.641,355.839 120,312.5C 108.74,299.91 98.2396,286.743 88.5,273C 113.921,272.982 139.254,272.315 164.5,271C 176.638,249.226 188.138,227.059 199,204.5C 215.471,247.579 232.137,290.579 249,333.5C 253.608,340.54 258.941,341.207 265,335.5C 280.144,284.57 294.977,233.57 309.5,182.5 Z"/></g>
</svg>
