<?xml version="1.0" encoding="UTF-8"?>
<!DOCTYPE svg PUBLIC "-//W3C//DTD SVG 1.1//EN" "http://www.w3.org/Graphics/SVG/1.1/DTD/svg11.dtd">
<svg xmlns="http://www.w3.org/2000/svg" version="1.1" width="512px" height="512px" style="shape-rendering:geometricPrecision; text-rendering:geometricPrecision; image-rendering:optimizeQuality; fill-rule:evenodd; clip-rule:evenodd" xmlns:xlink="http://www.w3.org/1999/xlink">
<g><path style="opacity:0.927" fill="#000000" d="M 511.5,384.5 C 511.5,390.167 511.5,395.833 511.5,401.5C 503.449,413.907 495.116,426.24 486.5,438.5C 484.972,439.861 483.305,441.028 481.5,442C 408.145,451.129 339.145,437.796 274.5,402C 182.126,344.154 90.4594,285.32 -0.5,225.5C -0.5,222.833 -0.5,220.167 -0.5,217.5C 38.131,168.263 76.2976,118.596 114,68.5C 118.076,64.966 122.409,64.6326 127,67.5C 132.298,97.7616 145.298,124.095 166,146.5C 175.99,157.081 188.156,163.915 202.5,167C 222.485,170.245 242.485,170.245 262.5,167C 272.881,164.988 283.214,162.821 293.5,160.5C 289.445,142.231 293.779,126.397 306.5,113C 315.242,110.279 319.408,113.446 319,122.5C 309.26,133.129 306.26,145.462 310,159.5C 317.051,175.274 325.384,190.274 335,204.5C 340.211,199.842 345.545,199.508 351,203.5C 352.422,206.03 352.755,208.697 352,211.5C 350.06,214.395 347.56,216.728 344.5,218.5C 347.805,223.638 351.305,228.638 355,233.5C 359.682,228.477 365.182,227.311 371.5,230C 375.25,236.914 373.584,242.08 366.5,245.5C 365.417,246.365 365.251,247.365 366,248.5C 368.646,251.98 371.479,255.314 374.5,258.5C 378.682,255.234 383.349,254.067 388.5,255C 394.11,260.733 393.61,265.899 387,270.5C 386.333,271.5 386.333,272.5 387,273.5C 408.499,298.346 432.999,319.513 460.5,337C 471.814,341.987 482.481,347.987 492.5,355C 502.029,362.92 508.363,372.753 511.5,384.5 Z M 115.5,93.5 C 125.227,121.438 140.894,145.605 162.5,166C 182.498,180.773 204.998,187.273 230,185.5C 253.321,185.478 276.154,182.145 298.5,175.5C 305.078,188.329 312.411,200.662 320.5,212.5C 311.284,218.697 302.117,225.031 293,231.5C 290.361,238.727 292.861,243.06 300.5,244.5C 309.3,239.598 317.966,234.432 326.5,229C 327.759,228.018 329.092,227.685 330.5,228C 334.028,232.696 337.362,237.529 340.5,242.5C 333.195,247.305 326.029,252.305 319,257.5C 315.775,266.555 318.942,270.722 328.5,270C 336.085,265.291 343.585,260.458 351,255.5C 354.167,259.333 357.333,263.167 360.5,267C 353.581,271.376 346.748,275.876 340,280.5C 336.802,290.265 340.302,294.432 350.5,293C 357.343,288.818 364.177,284.651 371,280.5C 394.089,306.599 419.923,329.432 448.5,349C 460.655,354.908 472.322,361.575 483.5,369C 491.324,375.301 494.991,383.301 494.5,393C 430.301,398.96 369.634,386.96 312.5,357C 271.167,331 229.833,305 188.5,279C 180.333,277.833 176.833,281.333 178,289.5C 178.785,291.286 179.951,292.786 181.5,294C 220.331,318.917 259.331,343.583 298.5,368C 356.792,399.66 419.126,413.993 485.5,411C 481.972,415.696 478.638,420.529 475.5,425.5C 408.771,434.189 345.771,422.356 286.5,390C 197.098,333.759 108.098,276.925 19.5,219.5C 24.5,212.833 29.5,206.167 34.5,199.5C 74.1667,225 113.833,250.5 153.5,276C 158.169,279.395 162.669,279.228 167,275.5C 169.158,271.306 168.658,267.472 165.5,264C 150.833,254.667 136.167,245.333 121.5,236C 138.156,202.107 137.322,168.607 119,135.5C 115.882,130.714 112.382,126.214 108.5,122C 97.84,120.154 94.34,124.32 98,134.5C 119.891,163.238 123.058,193.904 107.5,226.5C 86.3657,213.197 65.3657,199.697 44.5,186C 68.5389,155.407 92.2055,124.574 115.5,93.5 Z"/></g>
</svg>
