<?xml version="1.0" encoding="utf-8"?>
<!-- Generator: Adobe Illustrator 24.3.0, SVG Export Plug-In . SVG Version: 6.00 Build 0)  -->
<svg version="1.1" id="Слой_1" xmlns="http://www.w3.org/2000/svg" xmlns:xlink="http://www.w3.org/1999/xlink" x="0px" y="0px"
	 viewBox="0 0 512 512" style="enable-background:new 0 0 512 512;" xml:space="preserve">
<style type="text/css">
	.st0{opacity:0.947;fill-rule:evenodd;clip-rule:evenodd;enable-background:new    ;}
	.st1{opacity:0.962;fill-rule:evenodd;clip-rule:evenodd;enable-background:new    ;}
	.st2{opacity:0.964;fill-rule:evenodd;clip-rule:evenodd;enable-background:new    ;}
	.st3{opacity:0.954;fill-rule:evenodd;clip-rule:evenodd;enable-background:new    ;}
</style>
<path class="st0" d="M234.5,31.5c14-0.2,28,0,42,0.5c8.8,0.8,17.4,2.1,26,4c8.4,5.8,9.1,12.5,2,20c-2.2,0.9-4.6,1.4-7,1.5
	c-82.1-13.6-149.6,11.4-202.5,75c-44.5,62.2-53.1,129.2-26,201c33.5,73,90.4,114.2,170.5,123.5c74.4,3.7,134.3-23.8,179.5-82.5
	c34-48.7,45.5-102.4,34.5-161c1.5-10.1,7.2-13.6,17-10.5c1.2,1.2,2.3,2.3,3.5,3.5c17.1,88.7-8.1,162.9-75.5,222.5
	c-63,48.7-133,62.3-210,41C115.3,444.8,66.2,395.7,41,322.5c-21.3-77-7.7-147,41-210C122.2,65.6,173,38.6,234.5,31.5z"/>
<g>
	<path class="st1" d="M410.5,31.5c3.4-0.2,6.7,0,10,0.5c2.9,1.3,4.7,3.4,5.5,6.5c0.5,15.3,0.7,30.7,0.5,46c15.3-0.2,30.7,0,46,0.5
		c5.2,1.6,7.5,5.1,7,10.5c0.5,5.4-1.8,8.9-7,10.5c-15.3,0.5-30.7,0.7-46,0.5c0.2,15.3,0,30.7-0.5,46c-1.6,5.2-5.1,7.5-10.5,7
		c-5.4,0.5-8.9-1.8-10.5-7c-0.5-15.3-0.7-30.7-0.5-46c-15.3,0.2-30.7,0-46-0.5c-5.2-1.6-7.5-5.1-7-10.5c-0.5-5.4,1.8-8.9,7-10.5
		c15.3-0.5,30.7-0.7,46-0.5c-0.2-15.3,0-30.7,0.5-46C406,35.4,407.8,33,410.5,31.5z"/>
</g>
<g>
	<path class="st2" d="M167.5,137.5c6.5-0.5,11,2.1,13.5,8c0.7,73.3,0.7,146.7,0,220c-6,9.8-13,10.5-21,2c-0.7-74.7-0.7-149.3,0-224
		C162.1,140.8,164.6,138.8,167.5,137.5z"/>
</g>
<path class="st3" d="M281.5,137.5c11-0.2,22,0,33,0.5c26.3,4.3,42.1,19.4,47.5,45.5c0.9,14.4,0.6,28.7-1,43
	c-3.1,11.6-9.3,21.3-18.5,29c15.7,14.1,22.4,31.8,20,53c2.8,27.5-7.8,47.7-32,60.5c-5.2,2-10.5,3.3-16,4
	c-60.2,6.5-87-20.3-80.5-80.5c1.8-14.9,8.3-27.2,19.5-37c-15.4-14.4-22.1-32.3-20-53.5C231.6,166.8,247.6,145.3,281.5,137.5z
	 M287.5,159.5c8.7-0.4,17.3,0,25.9,1.4c4.7,0.7,9.2,2.4,13.1,5.2c10.9,7.7,15.7,18.7,14.4,33.1c-0.2,1.9-0.2,3.9,0,5.8
	c1.6,19.1-6.3,31.6-23.7,37.7c-2.8,1-5.8,1.5-8.8,1.7c-8.1,0.4-16.2,0.2-24.2-0.6c-6.2-0.6-12.1-3-16.8-7c-2-1.8-3.9-3.8-5.4-6
	c-2.6-3.8-4.2-8.1-5-12.6c-1.8-10.5-1.8-20.9-0.1-31.4c0.8-4.7,2.5-9.3,5.3-13.1C268,165.2,276.5,160.5,287.5,159.5z M283.5,266.5
	c-12.2,2.3-20.7,9.3-25.5,21c-10.8,51.8,9.7,72.3,61.5,61.5c9.6-3.9,16.1-10.8,19.5-20.5c1.5-11.3,1.9-22.6,1-34
	c-2.8-15.5-12-24.7-27.5-27.5C302.8,266.5,293.2,266.3,283.5,266.5z"/>
</svg>
