<?xml version="1.0" encoding="utf-8"?>
<!-- Generator: Adobe Illustrator 24.3.0, SVG Export Plug-In . SVG Version: 6.00 Build 0)  -->
<svg version="1.1" id="Слой_1" xmlns="http://www.w3.org/2000/svg" xmlns:xlink="http://www.w3.org/1999/xlink" x="0px" y="0px"
	 viewBox="0 0 512 512" style="enable-background:new 0 0 512 512;" xml:space="preserve">
<style type="text/css">
	.st0{opacity:0.935;fill-rule:evenodd;clip-rule:evenodd;enable-background:new    ;}
	.st1{opacity:0.932;fill-rule:evenodd;clip-rule:evenodd;enable-background:new    ;}
	.st2{opacity:0.933;fill-rule:evenodd;clip-rule:evenodd;enable-background:new    ;}
</style>
<path class="st0" d="M385,122.5c-32.9-71-88-112-165.5-123c-13.3,0-26.7,0-40,0c-20.2,2.6-39.9,7.7-59,15.5
	C50,48.1,9.6,103.2-0.5,180.5c0,13,0,26,0,39c2,14.4,5.2,28.8,9.5,43c29.2,78.5,85.2,123.8,168,136c2.9,0.2,5.6-0.5,8-2
	c2.3-4.9,1.8-9.4-1.5-13.5c-37.9-4.2-71.4-18.4-100.5-42.5c-8.4-27.4-11.8-55.4-10-84c8-82.2,47.1-144.4,117.5-186.5
	c1.8-0.5,3.5-0.2,5,1c7,4.6,13.6,9.6,20,15c-26.2,19.3-43.4,44.8-51.5,76.5c-13.3,52.5-10.7,104.1,8,155
	c3.7,11.3,8.9,21.8,15.5,31.5c7.2,2.1,11.5-0.4,13-7.5c-4.5-11-9-22-13.5-33c-16.4-45.7-18.7-92-7-139c7.4-30.2,23.8-54.2,49-72
	c32.2,31.7,53.5,69.7,64,114c1.6,3.7,4.4,5.7,8.5,6c5.5-0.5,8.2-3.5,8-9c-10-45.8-31.4-85.3-64-118.5c35.1-9.6,66.8-2.9,95,20
	c21,19.4,35.7,42.7,44,70c7.6,3,12.3,0.5,14-7.5C395.9,155.3,391.4,138.7,385,122.5z M157.5,20.5c1.2-0.2,2.2,0.1,3,1
	c-1.6,3.8-4.1,6.8-7.5,9c-4.1-1.7-8.3-3.2-12.5-4.5C146.2,24,151.9,22.2,157.5,20.5z M112.5,37.5c8.2,0.9,16.2,2.7,24,5.5
	c-17.4,8.8-35.7,14.1-55,16C91.5,51.2,101.8,44,112.5,37.5z M57,243.5c-2.4,24.8-1.6,49.4,2.5,74c-37.2-45.6-50.4-97.6-39.5-156
	c6.8-30.7,20.3-57.8,40.5-81.5c28.1-2.4,55.1-9.1,81-20c5.5-2.9,10.8-6.1,16-9.5c5.9,2.3,11.6,5.1,17,8.5
	C107,102.1,67.8,163.6,57,243.5z M193,49.5c-7.1-4.1-14.3-8.1-21.5-12c4.1-6.2,7.1-12.8,9-20c6.2-0.7,12.2-1.3,18-2
	c21.3,0.5,41.9,4.3,62,11.5C236.8,31,214.3,38.5,193,49.5z M303.5,72c-24.3-5.8-48.2-4.3-71.5,4.5c-7.2-5.4-14.4-10.9-21.5-16.5
	c24.4-10.6,49.7-17.1,76-19.5c3.8-0.1,7.1,1.1,10,3.5c20.5,13.5,38.2,30.2,53,50C335.4,84.6,320.1,77.3,303.5,72z"/>
<g>
	<path class="st1" d="M511.5,254.5c0,12.3,0,24.7,0,37c-4.7,47.7-21.9,90.4-51.5,128c-43.9,53.9-100.4,84.5-169.5,92
		c-12.3,0-24.7,0-37,0c-16.9-1.7-33.6-5.2-50-10.5c-1.2-1.2-2.3-2.3-3.5-3.5c-26.4-109.4,5.1-197.9,94.5-265.5
		c62.6-41.9,130.3-52.5,203-32c3.1,2.4,5,5.6,5.5,9.5C506.9,224.4,509.8,239.4,511.5,254.5z M409.5,206.5c24.4-1.6,48.4,0.6,72,6.5
		c2,0.4,3.9,1.3,5.5,2.5c7.6,28,9.5,56.3,5.5,85c-23.3-31.4-50.3-59.3-81-83.5c-10.4-1.7-14.2,2.4-11.5,12.5
		c35.2,27.2,64.7,59.3,88.5,96.5c-22.9,74.2-70.2,126.2-142,156c-43.1,15.8-86.8,17.5-131,5c-9-28.3-11.1-57.1-6.5-86.5
		c22,30,47.5,56.9,76.5,80.5c5.7,4.9,10.8,4.4,15.5-1.5c0.8-3.1,0.5-6.1-1-9c-25.3-20-48-42.7-68-68c-6.8-8.8-13-17.9-18.5-27.5
		c18.7-62.1,56.1-109.4,112-142C351.9,218.8,379.9,210,409.5,206.5z"/>
</g>
<g>
	<path class="st2" d="M417.5,272.5c9.9,0.1,13.1,4.8,9.5,14c-5,4.8-9.8,9.8-14.5,15c3.7,3.9,7.2,7.9,10.5,12
		c2.4,9-1.1,13.1-10.5,12.5c-4.3-3.3-8.3-7-12-11c-0.7-0.7-1.3-0.7-2,0c-6.7,6.7-13.3,13.3-20,20c3.8,3.8,7.7,7.7,11.5,11.5
		c2.7,10.1-1.1,14.2-11.5,12.5c-3.7-3.7-7.3-7.3-11-11c-0.7-0.7-1.3-0.7-2,0c-6.7,6.7-13.3,13.3-20,20c3.5,3.5,7,7,10.5,10.5
		c3.6,10.1,0.1,14.6-10.5,13.5c-4.5-3.5-8.6-7.3-12.5-11.5c-6.7,6.7-13.3,13.3-20,20c-0.7,0.7-0.7,1.3,0,2c3.7,3.7,7.3,7.3,11,11
		c1.5,10.2-2.7,14-12.5,11.5c-3.8-3.8-7.7-7.7-11.5-11.5c-5.2,5.2-10.3,10.3-15.5,15.5c-7.4,3-12,0.7-14-7c0.7-1.4,1.2-2.9,1.5-4.5
		c5.3-5.2,10.5-10.5,15.5-16c-3.7-4.2-7.5-8.2-11.5-12c-3-7.4-0.7-12,7-14c6.5,3.5,12.2,8.1,17,14c7-6.8,13.8-13.8,20.5-21
		c-3.3-3.8-6.8-7.5-10.5-11c-4.4-9.2-1.6-14.1,8.5-14.5c5.3,3.3,9.9,7.3,14,12c0.7,0.7,1.3,0.7,2,0c6.7-6.7,13.3-13.3,20-20
		c-5.9-4.8-10.5-10.5-14-17c1.3-6.7,5.3-9.3,12-8c4.8,4,9.5,8.1,14,12.5c7.2-6.7,14.2-13.5,21-20.5c-6-4.8-10.7-10.7-14-17.5
		c1.6-7.1,5.9-9.6,13-7.5c4.8,3.8,9.3,8,13.5,12.5C405.7,283.6,411.6,277.9,417.5,272.5z"/>
</g>
</svg>
