<?xml version="1.0" encoding="UTF-8"?>
<!DOCTYPE svg PUBLIC "-//W3C//DTD SVG 1.1//EN" "http://www.w3.org/Graphics/SVG/1.1/DTD/svg11.dtd">
<svg xmlns="http://www.w3.org/2000/svg" version="1.1" width="512px" height="512px" style="shape-rendering:geometricPrecision; text-rendering:geometricPrecision; image-rendering:optimizeQuality; fill-rule:evenodd; clip-rule:evenodd" xmlns:xlink="http://www.w3.org/1999/xlink">
<g><path style="opacity:0.932" fill="#000000" d="M 113.5,85.5 C 208.203,85.012 302.869,85.512 397.5,87C 430.383,95.9276 450.216,117.094 457,150.5C 457.499,154.152 457.665,157.818 457.5,161.5C 479.829,161.673 495.329,172.006 504,192.5C 510.15,218.421 501.484,237.421 478,249.5C 477.667,273.167 477.333,296.833 477,320.5C 476.141,326.884 474.141,332.884 471,338.5C 466.865,344.302 462.365,349.802 457.5,355C 462.731,374.159 467.065,393.492 470.5,413C 468.765,431.22 458.765,438.886 440.5,436C 434.201,434.037 429.368,430.203 426,424.5C 423.01,414.205 420.176,403.872 417.5,393.5C 308.169,392.5 198.835,392.167 89.5,392.5C 87.4502,404.149 84.2836,415.482 80,426.5C 70.0621,437.624 58.5621,439.458 45.5,432C 37.312,424.417 34.812,415.25 38,404.5C 41.9913,388.202 45.8246,371.868 49.5,355.5C 42.6893,348.16 37.1893,339.826 33,330.5C 32.0797,327.899 31.413,325.232 31,322.5C 29.7267,298.202 29.06,273.869 29,249.5C 5.35303,236.864 -2.9803,217.531 4,191.5C 12.0816,172.26 26.5816,162.26 47.5,161.5C 51.3458,120.325 73.3458,94.992 113.5,85.5 Z M 118.5,99.5 C 207.834,99.3333 297.167,99.5 386.5,100C 420.414,106.081 439.414,126.248 443.5,160.5C 443.449,162.1 443.116,163.6 442.5,165C 428.81,170.022 419.977,179.522 416,193.5C 414.773,217.809 414.106,242.143 414,266.5C 405.468,258.318 395.301,253.485 383.5,252C 352.833,251.333 322.167,251.333 291.5,252C 275.351,254.9 262.685,263.066 253.5,276.5C 244.315,263.066 231.649,254.9 215.5,252C 200.167,251.833 184.833,251.667 169.5,251.5C 152.458,251.37 135.458,251.87 118.5,253C 108.562,255.383 100.062,260.217 93,267.5C 92.6667,245.167 92.3333,222.833 92,200.5C 88.5159,182.672 78.3492,170.505 61.5,164C 64.7992,128.539 83.7992,107.039 118.5,99.5 Z M 46.5,175.5 C 61.6702,176.504 71.8369,184.171 77,198.5C 77.3333,236.167 77.6667,273.833 78,311.5C 78.5,314.667 80.3333,316.5 83.5,317C 196.833,317.667 310.167,317.667 423.5,317C 426.667,316.5 428.5,314.667 429,311.5C 429.333,274.5 429.667,237.5 430,200.5C 437.311,180.761 451.144,173.595 471.5,179C 489.891,188.711 495.058,203.211 487,222.5C 484.537,225.965 481.704,229.131 478.5,232C 473.097,234.462 467.931,237.296 463,240.5C 462.667,265.5 462.333,290.5 462,315.5C 459.323,332.508 449.823,343.675 433.5,349C 314.876,350.659 196.21,350.992 77.5,350C 59.1267,345.626 48.2933,334.126 45,315.5C 44.6667,290.5 44.3333,265.5 44,240.5C 43.6258,239.584 43.1258,238.75 42.5,238C 23.6826,232.516 15.1826,220.016 17,200.5C 21.2633,185.469 31.0966,177.136 46.5,175.5 Z M 131.5,265.5 C 156.836,265.333 182.169,265.5 207.5,266C 229.78,267.947 242.78,279.947 246.5,302C 195.163,302.833 143.83,302.667 92.5,301.5C 96.6407,279.686 109.641,267.686 131.5,265.5 Z M 293.5,266.5 C 324.883,266.03 356.216,266.53 387.5,268C 403.863,274.223 412.863,286.056 414.5,303.5C 363.5,303.5 312.5,303.5 261.5,303.5C 263.642,283.697 274.309,271.364 293.5,266.5 Z M 63.5,361.5 C 67.6339,363.283 71.9672,364.283 76.5,364.5C 76.6663,371.508 76.4996,378.508 76,385.5C 73.6667,395.5 71.3333,405.5 69,415.5C 64.9639,422.235 59.7972,423.235 53.5,418.5C 52.5535,416.941 51.8868,415.274 51.5,413.5C 55.8196,396.223 59.8196,378.89 63.5,361.5 Z M 441.5,362.5 C 442.496,362.414 443.329,362.748 444,363.5C 447.509,378.537 451.176,393.537 455,408.5C 457,418.164 453.167,422.331 443.5,421C 441.43,420.052 439.93,418.552 439,416.5C 433.749,399.842 430.583,382.842 429.5,365.5C 433.8,365.245 437.8,364.245 441.5,362.5 Z M 91.5,365.5 C 199.167,365.5 306.833,365.5 414.5,365.5C 414.5,369.5 414.5,373.5 414.5,377.5C 306.833,377.5 199.167,377.5 91.5,377.5C 91.5,373.5 91.5,369.5 91.5,365.5 Z"/></g>
<g><path style="opacity:0.9" fill="#000000" d="M 173.5,141.5 C 182.479,139.311 187.812,142.644 189.5,151.5C 188.104,160.204 183.104,163.37 174.5,161C 168.975,158.081 167.142,153.581 169,147.5C 170.332,145.34 171.832,143.34 173.5,141.5 Z"/></g>
<g><path style="opacity:0.897" fill="#000000" d="M 251.5,141.5 C 260.125,139.634 265.125,142.967 266.5,151.5C 265.125,160.195 260.125,163.362 251.5,161C 245.975,158.081 244.142,153.581 246,147.5C 247.36,144.977 249.193,142.977 251.5,141.5 Z"/></g>
<g><path style="opacity:0.9" fill="#000000" d="M 327.5,141.5 C 336.479,139.311 341.812,142.644 343.5,151.5C 342.104,160.204 337.104,163.37 328.5,161C 322.975,158.081 321.142,153.581 323,147.5C 324.332,145.34 325.832,143.34 327.5,141.5 Z"/></g>
<g><path style="opacity:0.892" fill="#000000" d="M 136.5,185.5 C 146.976,186.131 150.809,191.464 148,201.5C 144.606,206.082 140.106,207.582 134.5,206C 128.891,202.723 127.058,197.89 129,191.5C 131.109,188.878 133.609,186.878 136.5,185.5 Z"/></g>
<g><path style="opacity:0.9" fill="#000000" d="M 213.5,185.5 C 223.913,185.97 227.746,191.303 225,201.5C 221.562,206.081 217.062,207.581 211.5,206C 205.891,202.723 204.058,197.89 206,191.5C 207.707,188.41 210.207,186.41 213.5,185.5 Z"/></g>
<g><path style="opacity:0.889" fill="#000000" d="M 290.5,185.5 C 300.12,186.077 303.954,191.077 302,200.5C 297.829,206.802 292.329,208.136 285.5,204.5C 279.244,196.026 280.91,189.693 290.5,185.5 Z"/></g>
<g><path style="opacity:0.882" fill="#000000" d="M 366.5,185.5 C 377.678,186.18 381.512,191.847 378,202.5C 374.257,206.259 369.757,207.426 364.5,206C 358.607,202.179 357.107,197.012 360,190.5C 361.965,188.45 364.132,186.783 366.5,185.5 Z"/></g>
</svg>
