<?xml version="1.0" encoding="UTF-8"?>
<!DOCTYPE svg PUBLIC "-//W3C//DTD SVG 1.1//EN" "http://www.w3.org/Graphics/SVG/1.1/DTD/svg11.dtd">
<svg xmlns="http://www.w3.org/2000/svg" version="1.1" width="512px" height="512px" style="shape-rendering:geometricPrecision; text-rendering:geometricPrecision; image-rendering:optimizeQuality; fill-rule:evenodd; clip-rule:evenodd" xmlns:xlink="http://www.w3.org/1999/xlink">
<g><path style="opacity:0.944" fill="#000000" d="M 164.5,20.5 C 178.73,19.3879 191.397,23.2212 202.5,32C 224.466,53.0358 235.466,78.8692 235.5,109.5C 236.166,136.313 226.832,158.813 207.5,177C 185.883,189.711 165.55,187.878 146.5,171.5C 130.635,155.77 121.135,136.77 118,114.5C 113.506,87.2958 118.84,62.2958 134,39.5C 142.157,29.6848 152.323,23.3515 164.5,20.5 Z M 166.5,41.5 C 178.678,41.1719 188.511,45.8386 196,55.5C 214.51,81.2275 218.843,109.227 209,139.5C 194.973,169.378 176.64,172.378 154,148.5C 136.975,122.988 133.308,95.6548 143,66.5C 147.318,54.6873 155.151,46.3539 166.5,41.5 Z"/></g>
<g><path style="opacity:0.945" fill="#000000" d="M 334.5,20.5 C 358.952,20.6517 376.119,31.9851 386,54.5C 400.416,91.7857 396.75,127.119 375,160.5C 364.134,175.6 349.467,184.266 331,186.5C 315.406,185.37 302.739,178.703 293,166.5C 270.031,128.448 269.697,90.1145 292,51.5C 301.879,35.099 316.045,24.7656 334.5,20.5 Z M 336.5,41.5 C 342.622,41.2804 348.288,42.7804 353.5,46C 367.51,60.1789 374.177,77.3456 373.5,97.5C 373.604,120.706 365.604,140.54 349.5,157C 333.558,169.216 319.725,167.049 308,150.5C 293.103,121.809 293.437,93.1427 309,64.5C 315.403,53.4015 324.57,45.7348 336.5,41.5 Z"/></g>
<g><path style="opacity:0.945" fill="#000000" d="M -0.5,234.5 C -0.5,226.167 -0.5,217.833 -0.5,209.5C 9.62409,169.431 34.6241,155.265 74.5,167C 103.178,181.157 120.678,203.99 127,235.5C 131.321,255.912 127.987,274.912 117,292.5C 96.5183,313.919 73.0183,317.752 46.5,304C 20.7335,287.625 5.06686,264.459 -0.5,234.5 Z M 44.5,183.5 C 64.4008,183.367 80.2341,191.367 92,207.5C 105.834,226.17 110.167,246.837 105,269.5C 96.5321,288.988 82.3654,295.154 62.5,288C 39.5954,276.387 25.762,257.887 21,232.5C 18.2808,218.287 20.9474,205.287 29,193.5C 33.3155,188.654 38.4822,185.321 44.5,183.5 Z"/></g>
<g><path style="opacity:0.944" fill="#000000" d="M 511.5,209.5 C 511.5,217.833 511.5,226.167 511.5,234.5C 505.994,263.517 490.994,286.351 466.5,303C 445.721,315.308 425.054,315.308 404.5,303C 386.426,286.449 379.259,265.949 383,241.5C 387.105,214.758 399.605,192.925 420.5,176C 437.714,163.091 456.714,159.424 477.5,165C 496.606,173.934 507.939,188.768 511.5,209.5 Z M 454.5,183.5 C 474.241,182.638 486.074,191.971 490,211.5C 492.589,239.07 483.422,261.903 462.5,280C 454.446,286.027 445.446,289.86 435.5,291.5C 420.696,290.867 410.863,283.533 406,269.5C 399.951,234.44 411.785,207.273 441.5,188C 445.945,186.425 450.278,184.925 454.5,183.5 Z"/></g>
<g><path style="opacity:0.944" fill="#000000" d="M 251.5,205.5 C 284.794,205.393 310.627,219.06 329,246.5C 341.062,274.318 356.395,299.985 375,323.5C 382.973,331.473 390.973,339.473 399,347.5C 418.384,374.144 422.717,403.144 412,434.5C 394.811,470.448 366.145,489.115 326,490.5C 320.133,490.384 314.3,489.884 308.5,489C 283.238,481.774 257.571,479.774 231.5,483C 218.541,485.592 205.541,487.925 192.5,490C 157.846,491.585 130.012,478.751 109,451.5C 90.238,420.641 89.238,389.307 106,357.5C 113.221,347.273 121.554,337.94 131,329.5C 152.277,304.643 169.277,276.976 182,246.5C 198.74,221.882 221.906,208.215 251.5,205.5 Z M 251.5,226.5 C 276.999,226.208 296.832,236.541 311,257.5C 327.03,297.269 350.696,331.603 382,360.5C 396.674,379.878 400.341,401.212 393,424.5C 380.151,453.437 357.817,468.437 326,469.5C 311.055,467.723 296.222,465.223 281.5,462C 264.167,460 246.833,460 229.5,462C 216.831,464.334 204.164,466.667 191.5,469C 158.968,469.989 135.135,456.156 120,427.5C 111.419,404.006 114.419,382.006 129,361.5C 160.421,331.719 184.421,296.719 201,256.5C 213.378,238.898 230.212,228.898 251.5,226.5 Z"/></g>
<g><path style="opacity:0.895" fill="#000000" d="M 292.5,280.5 C 302.999,280.169 307.166,285.169 305,295.5C 298.667,303.5 292.333,303.5 286,295.5C 283.885,288.414 286.051,283.414 292.5,280.5 Z"/></g>
<g><path style="opacity:0.93" fill="#000000" d="M 311.5,315.5 C 315.422,315.069 318.922,316.069 322,318.5C 332.318,334.778 344.318,349.778 358,363.5C 362.402,372.693 359.735,378.693 350,381.5C 343.247,378.767 337.581,374.434 333,368.5C 322.69,356.545 313.357,343.878 305,330.5C 302.865,323.45 305.032,318.45 311.5,315.5 Z"/></g>
</svg>
