<?xml version="1.0" encoding="UTF-8"?>
<!DOCTYPE svg PUBLIC "-//W3C//DTD SVG 1.1//EN" "http://www.w3.org/Graphics/SVG/1.1/DTD/svg11.dtd">
<svg xmlns="http://www.w3.org/2000/svg" version="1.1" width="512px" height="512px" style="shape-rendering:geometricPrecision; text-rendering:geometricPrecision; image-rendering:optimizeQuality; fill-rule:evenodd; clip-rule:evenodd" xmlns:xlink="http://www.w3.org/1999/xlink">
<g><path style="opacity:0.994" fill="#000000" d="M 248.5,-0.5 C 253.167,-0.5 257.833,-0.5 262.5,-0.5C 268.77,1.90425 273.27,6.23758 276,12.5C 277.426,22.7544 277.926,33.0878 277.5,43.5C 336.6,54.1063 376.767,87.4396 398,143.5C 400.63,152.021 402.63,160.687 404,169.5C 405.269,199.806 405.936,230.139 406,260.5C 408.226,288.516 417.559,313.849 434,336.5C 443.323,347.822 453.323,358.489 464,368.5C 474.595,390.289 470.095,408.122 450.5,422C 446.768,424.133 442.768,425.466 438.5,426C 316.5,426.667 194.5,426.667 72.5,426C 49.4327,419.054 39.5993,403.554 43,379.5C 44.6969,373.104 47.6969,367.438 52,362.5C 87.1203,333.588 105.12,296.255 106,250.5C 106.07,222.472 106.737,194.472 108,166.5C 116.741,121.823 140.241,87.3233 178.5,63C 195.87,52.8169 214.537,46.3169 234.5,43.5C 234.334,33.4944 234.5,23.4944 235,13.5C 237.687,6.98101 242.187,2.31434 248.5,-0.5 Z"/></g>
<g><path style="opacity:0.983" fill="#000000" d="M 268.5,511.5 C 260.167,511.5 251.833,511.5 243.5,511.5C 208.431,503.935 186.098,482.768 176.5,448C 229.166,447.5 281.832,447.333 334.5,447.5C 325.931,482.736 303.931,504.07 268.5,511.5 Z"/></g>
</svg>
