<?xml version="1.0" encoding="UTF-8"?>
<!DOCTYPE svg PUBLIC "-//W3C//DTD SVG 1.1//EN" "http://www.w3.org/Graphics/SVG/1.1/DTD/svg11.dtd">
<svg xmlns="http://www.w3.org/2000/svg" version="1.1" width="512px" height="512px" style="shape-rendering:geometricPrecision; text-rendering:geometricPrecision; image-rendering:optimizeQuality; fill-rule:evenodd; clip-rule:evenodd" xmlns:xlink="http://www.w3.org/1999/xlink">
<g><path style="opacity:0.989" fill="#000000" d="M 386.5,-0.5 C 393.167,-0.5 399.833,-0.5 406.5,-0.5C 424.484,4.65165 435.984,16.3183 441,34.5C 441.5,49.4963 441.667,64.4963 441.5,79.5C 477.143,75.222 500.476,89.8886 511.5,123.5C 511.5,157.5 511.5,191.5 511.5,225.5C 505.348,248.485 490.681,262.985 467.5,269C 448.17,269.5 428.836,269.667 409.5,269.5C 409.667,325.168 409.5,380.834 409,436.5C 404.167,454.667 392.667,466.167 374.5,471C 276.167,471.333 177.833,471.667 79.5,472C 59.6564,485.03 39.9898,498.196 20.5,511.5C 16.5,511.5 12.5,511.5 8.5,511.5C 7.01307,510.196 5.3464,509.03 3.5,508C 2.30342,505.985 0.970083,504.151 -0.5,502.5C -0.5,400.5 -0.5,298.5 -0.5,196.5C 4.65165,178.516 16.3183,167.016 34.5,162C 96.8324,161.5 159.166,161.333 221.5,161.5C 221.333,137.164 221.5,112.831 222,88.5C 223.5,84.3333 226.333,81.5 230.5,80C 254.5,79.3333 278.5,79.3333 302.5,80C 308.126,82.7534 311.126,87.2534 311.5,93.5C 324.416,92.292 335.249,86.9586 344,77.5C 346.804,73.5568 348.804,69.2234 350,64.5C 351.09,54.5321 351.756,44.5321 352,34.5C 357.016,16.3183 368.516,4.65165 386.5,-0.5 Z M 391.5,30.5 C 400.051,28.8597 406.218,31.8597 410,39.5C 411.273,59.7906 411.94,80.124 412,100.5C 413.5,104.667 416.333,107.5 420.5,109C 434.869,109.13 449.202,109.797 463.5,111C 471.667,113.833 477.167,119.333 480,127.5C 481.108,143.133 481.608,158.8 481.5,174.5C 481.608,190.2 481.108,205.867 480,221.5C 477.167,229.667 471.667,235.167 463.5,238C 444.532,239.12 425.532,239.62 406.5,239.5C 386.476,239.6 366.476,239.1 346.5,238C 331.789,234.739 320.289,226.906 312,214.5C 311.333,185.167 311.333,155.833 312,126.5C 325.282,123.304 338.115,118.804 350.5,113C 365.541,103.762 375.375,90.5957 380,73.5C 381,62.1667 382,50.8333 383,39.5C 384.688,35.3148 387.521,32.3148 391.5,30.5 Z M 251.5,109.5 C 261.5,109.5 271.5,109.5 281.5,109.5C 281.5,152.833 281.5,196.167 281.5,239.5C 271.5,239.5 261.5,239.5 251.5,239.5C 251.5,196.167 251.5,152.833 251.5,109.5 Z M 44.5,191.5 C 103.5,191.5 162.5,191.5 221.5,191.5C 221.333,214.502 221.5,237.502 222,260.5C 223.5,264.667 226.333,267.5 230.5,269C 254.5,269.667 278.5,269.667 302.5,269C 307.329,266.535 310.662,262.702 312.5,257.5C 321.974,263.567 332.307,267.4 343.5,269C 355.495,269.5 367.495,269.667 379.5,269.5C 379.667,321.834 379.5,374.168 379,426.5C 378.167,435.333 373.333,440.167 364.5,441C 265.833,441.333 167.167,441.667 68.5,442C 55.5809,450.376 42.7475,458.876 30,467.5C 29.3333,380.5 29.3333,293.5 30,206.5C 31.0117,197.657 35.8451,192.657 44.5,191.5 Z"/></g>
<g><path style="opacity:0.986" fill="#000000" d="M 68.5,251.5 C 105.835,251.333 143.168,251.5 180.5,252C 188.915,256.348 191.748,263.181 189,272.5C 187.5,276.667 184.667,279.5 180.5,281C 143.167,281.667 105.833,281.667 68.5,281C 59.5253,275.848 57.0253,268.348 61,258.5C 63.0147,255.588 65.5147,253.255 68.5,251.5 Z"/></g>
<g><path style="opacity:0.994" fill="#000000" d="M 68.5,311.5 C 159.167,311.333 249.834,311.5 340.5,312C 349.475,317.152 351.975,324.652 348,334.5C 346.235,337.473 343.735,339.64 340.5,341C 249.833,341.667 159.167,341.667 68.5,341C 59.5253,335.848 57.0253,328.348 61,318.5C 63.0147,315.588 65.5147,313.255 68.5,311.5 Z"/></g>
<g><path style="opacity:0.994" fill="#000000" d="M 68.5,371.5 C 159.167,371.333 249.834,371.5 340.5,372C 349.475,377.152 351.975,384.652 348,394.5C 346.235,397.473 343.735,399.64 340.5,401C 249.833,401.667 159.167,401.667 68.5,401C 59.5253,395.848 57.0253,388.348 61,378.5C 63.0147,375.588 65.5147,373.255 68.5,371.5 Z"/></g>
</svg>
