<?xml version="1.0" encoding="UTF-8"?>
<!DOCTYPE svg PUBLIC "-//W3C//DTD SVG 1.1//EN" "http://www.w3.org/Graphics/SVG/1.1/DTD/svg11.dtd">
<svg xmlns="http://www.w3.org/2000/svg" version="1.1" width="512px" height="512px" style="shape-rendering:geometricPrecision; text-rendering:geometricPrecision; image-rendering:optimizeQuality; fill-rule:evenodd; clip-rule:evenodd" xmlns:xlink="http://www.w3.org/1999/xlink">
<g><path style="opacity:0.981" fill="#000000" d="M 212.5,-0.5 C 215.167,-0.5 217.833,-0.5 220.5,-0.5C 298.637,3.21245 359.137,37.5458 402,102.5C 440.351,168.962 444.684,237.629 415,308.5C 380.807,377.67 325.641,419.17 249.5,433C 156.852,442.913 84.3518,409.746 32,333.5C 14.0611,304.181 3.22773,272.515 -0.5,238.5C -0.5,224.5 -0.5,210.5 -0.5,196.5C 11.68,108.151 59.0134,46.9841 141.5,13C 164.642,4.9368 188.309,0.436797 212.5,-0.5 Z M 203.5,61.5 C 272.673,59.3219 323.839,88.3219 357,148.5C 383.573,208.813 376.907,265.146 337,317.5C 292.993,366.276 238.826,383.11 174.5,368C 113.935,348.436 76.7681,307.603 63,245.5C 53.7799,172.837 80.2799,117.671 142.5,80C 161.78,69.9361 182.113,63.7695 203.5,61.5 Z"/></g>
<g><path style="opacity:0.973" fill="#000000" d="M 511.5,471.5 C 511.5,476.833 511.5,482.167 511.5,487.5C 506.648,501.355 496.981,509.355 482.5,511.5C 480.833,511.5 479.167,511.5 477.5,511.5C 471.028,510.44 465.028,507.94 459.5,504C 429.528,475.028 399.861,445.695 370.5,416C 387.315,403.019 402.315,388.185 415.5,371.5C 446.511,401.012 477.011,431.012 507,461.5C 508.83,464.815 510.33,468.149 511.5,471.5 Z"/></g>
</svg>
