<?xml version="1.0" encoding="UTF-8"?>
<!DOCTYPE svg PUBLIC "-//W3C//DTD SVG 1.1//EN" "http://www.w3.org/Graphics/SVG/1.1/DTD/svg11.dtd">
<svg xmlns="http://www.w3.org/2000/svg" version="1.1" width="512px" height="512px" style="shape-rendering:geometricPrecision; text-rendering:geometricPrecision; image-rendering:optimizeQuality; fill-rule:evenodd; clip-rule:evenodd" xmlns:xlink="http://www.w3.org/1999/xlink">
<g><path style="opacity:0.976" fill="#000000" d="M 253.5,31.5 C 254.873,31.3433 256.207,31.51 257.5,32C 281.5,44 305.5,56 329.5,68C 261.5,104.667 193.5,141.333 125.5,178C 122.702,179.914 119.702,180.914 116.5,181C 90.011,167.922 63.6776,154.589 37.5,141C 109.405,104.214 181.405,67.7144 253.5,31.5 Z"/></g>
<g><path style="opacity:0.976" fill="#000000" d="M 390.5,100.5 C 418.639,112.902 446.306,126.402 473.5,141C 400.952,177.774 328.286,214.274 255.5,250.5C 230.402,238.785 205.736,226.285 181.5,213C 251.228,175.471 320.895,137.971 390.5,100.5 Z"/></g>
<g><path style="opacity:0.993" fill="#000000" d="M 31.5,150.5 C 58.0511,163.692 84.5511,177.026 111,190.5C 111.5,217.831 111.667,245.165 111.5,272.5C 122.505,272.333 133.505,272.5 144.5,273C 154.667,283.167 164.833,293.333 175,303.5C 175.167,276.827 175.667,250.16 176.5,223.5C 200.5,235.5 224.5,247.5 248.5,259.5C 249.833,332.833 249.833,406.167 248.5,479.5C 176.1,443.55 103.934,407.217 32,370.5C 31.5,297.167 31.3333,223.834 31.5,150.5 Z"/></g>
<g><path style="opacity:0.994" fill="#000000" d="M 478.5,150.5 C 479.666,223.666 479.832,296.999 479,370.5C 407.066,407.217 334.9,443.55 262.5,479.5C 261.167,406.167 261.167,332.833 262.5,259.5C 334.561,223.137 406.561,186.803 478.5,150.5 Z"/></g>
</svg>
