<?xml version="1.0" encoding="UTF-8"?>
<!DOCTYPE svg PUBLIC "-//W3C//DTD SVG 1.1//EN" "http://www.w3.org/Graphics/SVG/1.1/DTD/svg11.dtd">
<svg xmlns="http://www.w3.org/2000/svg" version="1.1" width="512px" height="512px" style="shape-rendering:geometricPrecision; text-rendering:geometricPrecision; image-rendering:optimizeQuality; fill-rule:evenodd; clip-rule:evenodd" xmlns:xlink="http://www.w3.org/1999/xlink">
<g><path style="opacity:0.99" fill="#000000" d="M 251.5,38.5 C 258.289,37.8183 264.122,39.8183 269,44.5C 289.639,87.1122 310.806,129.445 332.5,171.5C 378.461,178.471 424.461,185.304 470.5,192C 480.074,194.973 484.241,201.473 483,211.5C 482.275,213.949 481.275,216.283 480,218.5C 446.667,251.167 413.333,283.833 380,316.5C 387.113,363.013 394.613,409.513 402.5,456C 402.252,466.417 396.919,472.25 386.5,473.5C 383.49,472.731 380.49,471.897 377.5,471C 336.992,449.245 296.325,427.745 255.5,406.5C 214.958,428.201 174.292,449.701 133.5,471C 115.745,475.546 107.578,468.712 109,450.5C 116.333,407.833 123.667,365.167 131,322.5C 131.814,320.098 131.647,317.765 130.5,315.5C 97.1811,283.348 64.0144,251.015 31,218.5C 25.832,210.012 26.6654,202.179 33.5,195C 35.7173,193.725 38.0506,192.725 40.5,192C 86.5388,185.304 132.539,178.471 178.5,171.5C 200.194,129.445 221.361,87.1122 242,44.5C 244.843,41.8373 248.009,39.8373 251.5,38.5 Z"/></g>
</svg>
