<?xml version="1.0" encoding="UTF-8"?>
<!DOCTYPE svg PUBLIC "-//W3C//DTD SVG 1.1//EN" "http://www.w3.org/Graphics/SVG/1.1/DTD/svg11.dtd">
<svg xmlns="http://www.w3.org/2000/svg" version="1.1" width="512px" height="512px" style="shape-rendering:geometricPrecision; text-rendering:geometricPrecision; image-rendering:optimizeQuality; fill-rule:evenodd; clip-rule:evenodd" xmlns:xlink="http://www.w3.org/1999/xlink">
<g><path style="opacity:0.956" fill="#000000" d="M 58.5,0.5 C 122.501,0.333338 186.501,0.500005 250.5,1C 280.411,4.57785 298.578,21.0778 305,50.5C 305.5,85.1651 305.667,119.832 305.5,154.5C 354.866,154.028 404.2,154.528 453.5,156C 482.303,163.803 499.803,182.303 506,211.5C 506.667,267.5 506.667,323.5 506,379.5C 496.98,417.68 472.813,436.68 433.5,436.5C 433.667,452.503 433.5,468.503 433,484.5C 425.838,506.998 411.004,514.498 388.5,507C 363.891,484.393 339.891,461.06 316.5,437C 280.833,436.667 245.167,436.333 209.5,436C 177.685,430.014 158.518,411.181 152,379.5C 151.667,338.5 151.333,297.5 151,256.5C 137.833,269.667 124.667,282.833 111.5,296C 96.7783,305.639 83.2783,304.139 71,291.5C 69.6667,288.833 68.3333,286.167 67,283.5C 65.5696,269.226 65.0696,254.892 65.5,240.5C 32.3526,240.178 12.1859,223.845 5,191.5C 4.02374,142.463 4.35708,93.4626 6,44.5C 14.3041,18.6841 31.8041,4.01742 58.5,0.5 Z M 59.5,25.5 C 123.168,25.3333 186.834,25.5 250.5,26C 266.139,28.9728 275.972,38.1395 280,53.5C 280.5,87.165 280.667,120.832 280.5,154.5C 257.164,154.333 233.831,154.5 210.5,155C 182.238,159.594 163.404,175.427 154,202.5C 152.355,208.392 151.355,214.392 151,220.5C 132.167,239.333 113.333,258.167 94.5,277C 93.0039,277.507 91.8373,277.007 91,275.5C 90.6667,258.5 90.3333,241.5 90,224.5C 88.2833,219.449 84.7833,216.615 79.5,216C 71.5,215.667 63.5,215.333 55.5,215C 42.3333,211.167 33.8333,202.667 30,189.5C 29.3333,143.833 29.3333,98.1667 30,52.5C 34.6312,37.6978 44.4645,28.6978 59.5,25.5 Z M 212.5,179.5 C 290.167,179.333 367.834,179.5 445.5,180C 464.58,184.081 476.414,195.581 481,214.5C 481.667,268.5 481.667,322.5 481,376.5C 476.833,395.333 465.333,406.833 446.5,411C 436.833,411.333 427.167,411.667 417.5,412C 414.438,413.061 411.938,414.894 410,417.5C 408.7,438.436 408.034,459.436 408,480.5C 406.206,484.658 403.373,485.824 399.5,484C 375.805,459.972 351.805,436.305 327.5,413C 288.893,411.684 250.226,411.018 211.5,411C 192.667,406.833 181.167,395.333 177,376.5C 176.333,322.5 176.333,268.5 177,214.5C 181.765,195.567 193.599,183.901 212.5,179.5 Z"/></g>
<g><path style="opacity:0.939" fill="#000000" d="M 250.5,277.5 C 268.498,278 275.331,287 271,304.5C 264.063,313.83 255.23,315.997 244.5,311C 235.734,303.461 234.234,294.628 240,284.5C 242.998,281.262 246.498,278.929 250.5,277.5 Z"/></g>
<g><path style="opacity:0.932" fill="#000000" d="M 324.5,277.5 C 339.654,276.492 347.154,283.492 347,298.5C 342.235,313.128 332.735,317.294 318.5,311C 308.813,301.899 308.146,292.232 316.5,282C 319.099,280.205 321.766,278.705 324.5,277.5 Z"/></g>
<g><path style="opacity:0.938" fill="#000000" d="M 399.5,277.5 C 418.11,278.384 424.61,287.717 419,305.5C 412.517,313.517 404.35,315.683 394.5,312C 385.17,305.063 383.003,296.23 388,285.5C 390.961,281.34 394.795,278.673 399.5,277.5 Z"/></g>
</svg>
